<svg width="25" height="25" viewBox="0 0 25 25" fill="none" xmlns="http://www.w3.org/2000/svg">
<g clip-path="url(#clip0_163_151)">
<path d="M13.4582 1.27285L16.2266 6.88236C16.4191 7.27251 16.7913 7.54285 17.2219 7.60531L23.4126 8.5049C24.497 8.6626 24.9296 9.99483 24.1452 10.7593L19.6657 15.1256C19.3544 15.4292 19.2121 15.867 19.2858 16.2956L20.3431 22.4611C20.5284 23.5409 19.3949 24.3642 18.4251 23.8548L12.8883 20.944C12.5033 20.7418 12.043 20.7418 11.658 20.944L6.12118 23.8548C5.15144 24.3647 4.01787 23.5409 4.20321 22.4611L5.2605 16.2956C5.33423 15.867 5.19189 15.4292 4.88059 15.1256L0.401075 10.7593C-0.383314 9.99432 0.0493286 8.66209 1.13375 8.5049L7.32439 7.60531C7.75498 7.54285 8.12721 7.27251 8.31972 6.88236L11.0881 1.27285C11.5725 0.290316 12.9733 0.290316 13.4582 1.27285Z" fill="#FF9A2C"/>
</g>
<defs>
<clipPath id="clip0_163_151">
<rect width="24.5455" height="24.5455" fill="white"/>
</clipPath>
</defs>
</svg>
