<svg width="135" height="25" viewBox="0 0 135 25" fill="none" xmlns="http://www.w3.org/2000/svg">
<g clip-path="url(#clip0_163_175)">
<path d="M123.913 1.27285L126.681 6.88236C126.874 7.27251 127.246 7.54285 127.677 7.60531L133.867 8.5049C134.952 8.6626 135.384 9.99483 134.6 10.7593L130.12 15.1256C129.809 15.4292 129.667 15.867 129.74 16.2956L130.798 22.4611C130.983 23.5409 129.849 24.3642 128.88 23.8548L123.343 20.944C122.958 20.7418 122.498 20.7418 122.113 20.944L116.576 23.8548C115.606 24.3647 114.472 23.5409 114.658 22.4611L115.715 16.2956C115.789 15.867 115.646 15.4292 115.335 15.1256L110.856 10.7593C110.071 9.99432 110.504 8.66209 111.588 8.5049L117.779 7.60531C118.21 7.54285 118.582 7.27251 118.774 6.88236L121.543 1.27285C122.027 0.290316 123.428 0.290316 123.913 1.27285Z" fill="#F9D4AB"/>
</g>
<g clip-path="url(#clip1_163_175)">
<path d="M96.299 1.27285L99.0674 6.88236C99.2599 7.27251 99.6322 7.54285 100.063 7.60531L106.253 8.5049C107.338 8.6626 107.77 9.99483 106.986 10.7593L102.507 15.1256C102.195 15.4292 102.053 15.867 102.127 16.2956L103.184 22.4611C103.369 23.5409 102.236 24.3642 101.266 23.8548L95.7292 20.944C95.3441 20.7418 94.8838 20.7418 94.4988 20.944L88.962 23.8548C87.9923 24.3647 86.8587 23.5409 87.044 22.4611L88.1013 16.2956C88.1751 15.867 88.0327 15.4292 87.7214 15.1256L83.2419 10.7593C82.4575 9.99432 82.8901 8.66209 83.9746 8.5049L90.1652 7.60531C90.5958 7.54285 90.968 7.27251 91.1605 6.88236L93.9289 1.27285C94.4133 0.290316 95.8141 0.290316 96.299 1.27285Z" fill="#F9D4AB"/>
</g>
<g clip-path="url(#clip2_163_175)">
<path d="M68.6852 1.27285L71.4536 6.88236C71.6462 7.27251 72.0184 7.54285 72.449 7.60531L78.6396 8.5049C79.724 8.6626 80.1567 9.99483 79.3723 10.7593L74.8928 15.1256C74.5815 15.4292 74.4391 15.867 74.5129 16.2956L75.5702 22.4611C75.7555 23.5409 74.6219 24.3642 73.6522 23.8548L68.1154 20.944C67.7304 20.7418 67.2701 20.7418 66.885 20.944L61.3482 23.8548C60.3785 24.3647 59.2449 23.5409 59.4303 22.4611L60.4876 16.2956C60.5613 15.867 60.4189 15.4292 60.1076 15.1256L55.6281 10.7593C54.8437 9.99432 55.2764 8.66209 56.3608 8.5049L62.5514 7.60531C62.982 7.54285 63.3543 7.27251 63.5468 6.88236L66.3152 1.27285C66.7995 0.290316 68.2004 0.290316 68.6852 1.27285Z" fill="#F9D4AB"/>
</g>
<g clip-path="url(#clip3_163_175)">
<path d="M41.072 1.27285L43.8404 6.88236C44.0329 7.27251 44.4051 7.54285 44.8357 7.60531L51.0263 8.5049C52.1108 8.6626 52.5434 9.99483 51.759 10.7593L47.2795 15.1256C46.9682 15.4292 46.8259 15.867 46.8996 16.2956L47.9569 22.4611C48.1422 23.5409 47.0086 24.3642 46.0389 23.8548L40.5021 20.944C40.1171 20.7418 39.6568 20.7418 39.2718 20.944L33.7349 23.8548C32.7652 24.3647 31.6316 23.5409 31.817 22.4611L32.8743 16.2956C32.948 15.867 32.8057 15.4292 32.4944 15.1256L28.0148 10.7593C27.2305 9.99432 27.6631 8.66209 28.7475 8.5049L34.9382 7.60531C35.3688 7.54285 35.741 7.27251 35.9335 6.88236L38.7019 1.27285C39.1863 0.290316 40.5871 0.290316 41.072 1.27285Z" fill="#F9D4AB"/>
</g>
<g clip-path="url(#clip4_163_175)">
<path d="M13.4582 1.27285L16.2266 6.88236C16.4191 7.27251 16.7913 7.54285 17.2219 7.60531L23.4126 8.5049C24.497 8.6626 24.9296 9.99483 24.1452 10.7593L19.6657 15.1256C19.3544 15.4292 19.2121 15.867 19.2858 16.2956L20.3431 22.4611C20.5284 23.5409 19.3949 24.3642 18.4251 23.8548L12.8883 20.944C12.5033 20.7418 12.043 20.7418 11.658 20.944L6.12118 23.8548C5.15144 24.3647 4.01787 23.5409 4.20321 22.4611L5.2605 16.2956C5.33423 15.867 5.19189 15.4292 4.88059 15.1256L0.401075 10.7593C-0.383314 9.99432 0.0493286 8.66209 1.13375 8.5049L7.32439 7.60531C7.75498 7.54285 8.12721 7.27251 8.31972 6.88236L11.0881 1.27285C11.5725 0.290316 12.9733 0.290316 13.4582 1.27285Z" fill="#F9D4AB"/>
</g>
<defs>
<clipPath id="clip0_163_175">
<rect width="24.5455" height="24.5455" fill="white" transform="translate(110.455)"/>
</clipPath>
<clipPath id="clip1_163_175">
<rect width="24.5455" height="24.5455" fill="white" transform="translate(82.8408)"/>
</clipPath>
<clipPath id="clip2_163_175">
<rect width="24.5455" height="24.5455" fill="white" transform="translate(55.2271)"/>
</clipPath>
<clipPath id="clip3_163_175">
<rect width="24.5455" height="24.5455" fill="white" transform="translate(27.6138)"/>
</clipPath>
<clipPath id="clip4_163_175">
<rect width="24.5455" height="24.5455" fill="white"/>
</clipPath>
</defs>
</svg>
