<svg width="734" height="636" viewBox="0 0 734 636" fill="none" xmlns="http://www.w3.org/2000/svg">
<path d="M217.668 584.527C337.882 584.527 435.335 578.599 435.335 571.287C435.335 563.975 337.882 558.047 217.668 558.047C97.4531 558.047 0 563.975 0 571.287C0 578.599 97.4531 584.527 217.668 584.527Z" fill="#9DA0AB"/>
<path d="M204.097 202.588L226.083 282.989L218.238 273.957C221.139 275.504 224.505 276.692 228.217 277.518C231.929 278.36 235.987 278.841 240.225 279.051C244.463 279.277 248.881 279.231 253.404 279.051C257.928 278.856 262.541 278.525 267.23 278.119H267.26C274.173 277.533 280.26 282.658 280.846 289.571C281.402 296.168 276.728 301.999 270.311 303.051C265.472 303.818 260.558 304.554 255.523 305.14C250.474 305.726 245.304 306.162 239.954 306.282C234.604 306.402 229.059 306.192 223.318 305.365C217.592 304.539 211.656 303.036 205.855 300.541C202.143 298.933 199.498 295.898 198.296 292.336L198.011 291.494L171.636 212.431C168.676 203.55 173.47 193.932 182.366 190.971C191.248 188.011 200.866 192.805 203.826 201.701C203.917 201.972 204.022 202.302 204.097 202.588Z" fill="#EA9B7A"/>
<path d="M212.559 494.044C212.228 494.044 211.898 493.984 211.567 493.864L96.3914 452.341C94.8886 451.8 94.1071 450.132 94.6482 448.629C95.1892 447.126 96.8573 446.33 98.3601 446.886L213.536 488.409C215.039 488.95 215.835 490.618 215.279 492.12C214.873 493.308 213.746 494.044 212.559 494.044Z" fill="#FF9A2C"/>
<path d="M92.5881 494.044C91.4009 494.044 90.2888 493.308 89.853 492.12C89.312 490.618 90.0934 488.949 91.5963 488.393L208.14 446.179C209.642 445.638 211.31 446.42 211.867 447.923C212.408 449.425 211.626 451.094 210.123 451.65L93.58 493.864C93.2493 493.984 92.9187 494.044 92.5881 494.044Z" fill="#FF9A2C"/>
<path d="M222.806 568.253C220.356 568.253 218.222 566.434 217.876 563.94L197.077 408.594H110.019L89.536 563.94C89.1753 566.66 86.6806 568.583 83.9605 568.223C81.2404 567.862 79.3168 565.367 79.6775 562.647L100.732 403.003C101.063 400.524 103.166 398.675 105.661 398.675H201.436C203.93 398.675 206.034 400.524 206.365 402.988L227.75 562.632C228.11 565.352 226.202 567.862 223.482 568.223C223.241 568.238 223.031 568.253 222.806 568.253Z" fill="#FFD147"/>
<path d="M173.697 403.635H111.495C91.7932 403.635 70.6936 392.845 67.658 373.383C63.6154 347.339 62.6085 322.137 63.7356 298.994C65.013 272.83 77.5164 248.484 98.0749 232.254C98.0749 232.254 110.503 286.4 94.8739 361.135C100.855 389.508 173.697 403.635 173.697 403.635Z" fill="#FFD147"/>
<path d="M170.631 87.6656C170.631 87.6656 161.34 80.4853 143.691 87.6657C130.839 92.8947 124.981 104.556 124.981 133.445C126.154 171.805 95.8854 192.392 95.8854 192.392L130.392 198.833C130.407 198.818 174.147 118.576 170.631 87.6656Z" fill="#39393B"/>
<path d="M317.59 501.693H289.803C289.803 501.693 283.371 470.855 281.222 453.573C279.058 436.275 277.946 395.294 277.946 395.294C277.946 395.294 255.81 402.492 209.463 399.772C106.775 393.776 145.713 318.334 145.713 318.334C149.185 323.128 170.435 319.807 184.967 322.092C229.555 326.375 268.208 343.867 291.411 353.876C297.002 356.281 301.961 358.835 306.319 361.525C311.91 364.967 315.411 375.441 317.53 389.192C323.857 430.535 317.59 501.693 317.59 501.693Z" fill="#39393B"/>
<path d="M293.259 486.83C292.794 486.83 292.388 486.499 292.283 486.034C288.27 466.196 286.933 441.505 285.85 421.668C284.949 405.212 284.107 389.673 281.988 387.81C280.275 386.292 273.167 387.479 264.18 388.967C246.281 391.942 219.231 396.421 189.415 389.493C173.169 385.706 161.222 377.816 153.918 366.034C141.31 345.716 147.066 320.514 147.126 320.258C147.246 319.717 147.787 319.386 148.328 319.522C148.869 319.642 149.2 320.183 149.064 320.724C149.004 320.964 143.459 345.385 155.632 364.997C162.65 376.313 174.176 383.902 189.881 387.554C219.321 394.407 246.131 389.959 263.879 387.013C274.504 385.255 280.921 384.188 283.341 386.322C285.956 388.636 286.692 399.997 287.864 421.563C288.946 441.34 290.284 465.941 294.266 485.643C294.371 486.184 294.026 486.71 293.485 486.815C293.38 486.83 293.319 486.83 293.259 486.83Z" fill="#585859"/>
<path d="M318.117 487.356H318.102L287.204 486.695C286.648 486.68 286.213 486.229 286.228 485.673C286.243 485.117 286.693 484.681 287.25 484.696L318.147 485.357C318.703 485.372 319.139 485.823 319.124 486.379C319.109 486.92 318.658 487.356 318.117 487.356Z" fill="#585859"/>
<path d="M316.821 537.28H297.209L293.437 514.287L291.363 501.693H315.724L316.114 514.287L316.821 537.28Z" fill="#EA9B7A"/>
<path d="M316.818 537.28H297.206L294.396 520.163L293.434 514.287H316.111L316.307 520.374L316.818 537.28Z" fill="#FF5D8F"/>
<path d="M316.307 520.374L294.396 520.163L293.434 514.287H316.111L316.307 520.374Z" fill="#FFB0BE"/>
<path d="M365.215 568.253H291.051C290.495 567.246 290.195 565.833 290.074 564.135C289.608 557.853 291.607 547.844 292.584 541.532C292.704 540.796 292.809 540.105 292.885 539.489C293.02 538.437 293.11 537.55 293.11 536.904C293.11 531.749 297.664 532.636 297.664 532.636C305.163 540 313.669 528.954 318.628 532.576C318.628 532.576 318.823 532.726 319.289 533.072C319.71 533.402 320.341 533.913 321.213 534.65C322.475 535.702 324.248 537.234 326.653 539.398C332.544 544.703 342.553 548.19 351.074 551.752C352.156 552.202 353.162 552.668 354.109 553.119C354.816 553.465 355.492 553.81 356.123 554.141C363.096 557.898 365.305 561.505 365.816 564.12C366.312 566.645 365.215 568.253 365.215 568.253Z" fill="#5842DB"/>
<path d="M356.133 554.156C354.224 555.674 349.971 558.725 346.56 558.725C346.409 558.725 346.259 558.725 346.109 558.71C343.704 558.514 334.868 554.171 327.669 550.219C323.552 547.95 319.78 545.725 317.074 543.937C312.641 541.007 311.86 539.894 311.694 539.113C311.048 536.182 315.887 534.154 319.284 533.087C319.704 533.417 320.336 533.928 321.207 534.665C316.999 535.807 313.528 537.61 313.693 538.647C314.114 539.519 318.502 542.855 328.992 548.611C337.002 552.999 344.591 556.531 346.274 556.681C348.558 556.861 351.91 554.787 354.104 553.149C354.825 553.48 355.501 553.826 356.133 554.156Z" fill="#380098"/>
<path d="M365.207 568.251H291.043C290.487 567.244 290.187 565.832 290.066 564.134H365.823C366.304 566.643 365.207 568.251 365.207 568.251Z" fill="#380098"/>
<path d="M298.601 568.251H296.392C298.586 565.742 300.645 561.879 300.375 556.379C300.014 549.045 295.626 544.116 292.56 541.531C292.68 540.795 292.785 540.104 292.86 539.488C296.152 541.997 301.697 547.513 302.133 556.289C302.418 561.549 300.69 565.471 298.601 568.251Z" fill="#380098"/>
<path d="M325.405 543.787C324.864 543.787 324.353 543.411 324.218 542.855C324.053 542.194 324.458 541.533 325.105 541.367L329.733 540.21C330.395 540.045 331.056 540.451 331.221 541.097C331.386 541.758 330.981 542.419 330.334 542.584L325.706 543.742C325.601 543.772 325.495 543.787 325.405 543.787Z" fill="white"/>
<path d="M320.813 539.938C320.272 539.938 319.761 539.563 319.626 539.007C319.461 538.345 319.866 537.684 320.513 537.519L325.141 536.362C325.802 536.196 326.464 536.602 326.629 537.248C326.794 537.91 326.389 538.571 325.742 538.721L321.114 539.878C321.008 539.923 320.903 539.938 320.813 539.938Z" fill="white"/>
<path d="M330.034 546.477C329.493 546.477 328.982 546.101 328.847 545.545C328.681 544.884 329.087 544.223 329.733 544.072L334.362 542.915C335.023 542.75 335.684 543.156 335.85 543.802C336.015 544.463 335.609 545.124 334.963 545.29L330.334 546.447C330.229 546.477 330.139 546.477 330.034 546.477Z" fill="white"/>
<path d="M334.663 549.077C334.107 549.077 333.611 548.701 333.475 548.145C333.31 547.484 333.716 546.822 334.362 546.657L338.991 545.5C339.652 545.335 340.313 545.74 340.478 546.387C340.644 547.048 340.238 547.709 339.592 547.859L334.963 549.016C334.873 549.062 334.768 549.077 334.663 549.077Z" fill="white"/>
<path d="M339.722 551.466C339.181 551.466 338.67 551.091 338.535 550.535C338.369 549.873 338.775 549.212 339.421 549.062L344.05 547.905C344.711 547.739 345.372 548.145 345.538 548.791C345.703 549.453 345.297 550.114 344.651 550.279L340.022 551.436C339.917 551.451 339.812 551.466 339.722 551.466Z" fill="white"/>
<path d="M345.204 553.509C344.663 553.509 344.152 553.134 344.017 552.578C343.851 551.916 344.257 551.255 344.903 551.09L349.532 549.933C350.193 549.767 350.855 550.173 351.02 550.819C351.185 551.481 350.779 552.142 350.133 552.292L345.505 553.449C345.399 553.494 345.309 553.509 345.204 553.509Z" fill="white"/>
<path d="M94.2867 294.41C94.2867 294.41 93.4151 300.406 101.44 302.089L185.117 304.885C185.117 304.885 190.767 302.044 189.746 295.041C189.746 295.026 154.414 275.174 94.2867 294.41Z" fill="#380098"/>
<path d="M186.26 322.077C142.829 345.972 95.3999 326.736 95.3999 326.736C97.7142 320.409 99.4425 313.271 100.69 306.778C102.133 299.219 102.944 292.547 103.32 289.045C121.789 288.038 167.084 286.1 184.832 290.308L184.968 297.416L186.26 322.077Z" fill="#EA9B7A"/>
<path d="M154.176 310.626C153.86 312.865 152.838 314.578 151.922 314.443C150.99 314.307 150.509 312.384 150.825 310.145C151.14 307.906 152.162 306.192 153.079 306.328C154.011 306.463 154.491 308.386 154.176 310.626Z" fill="#D96C63"/>
<path d="M184.952 297.416C166.453 296.289 130.07 295.898 100.675 306.764C102.117 299.204 102.929 292.532 103.305 289.03C121.774 288.023 167.069 286.085 184.817 290.293L184.952 297.416Z" fill="#D96C63"/>
<path d="M205.586 263.046C205.406 263.587 205.195 264.083 204.955 264.549C204.865 264.729 204.775 264.91 204.684 265.075C202.355 269.388 198.763 273.13 195.743 275.79C195.112 276.346 194.51 276.842 193.954 277.293C192.842 278.195 191.896 278.901 191.249 279.367C190.648 279.788 190.303 280.013 190.303 280.013C190.303 280.058 190.303 280.088 190.288 280.148C190.257 280.464 190.227 280.81 190.197 281.17C190.092 282.538 190.002 284.161 189.942 286.024C189.882 287.512 189.837 289.15 189.807 290.924C189.792 292.231 189.762 293.599 189.746 295.011C165.206 284.041 114.651 290.969 94.2877 294.395C94.6634 292.637 94.994 290.909 95.3096 289.225C96.7523 281.456 97.5639 274.468 97.8794 268.201C98.3603 258.884 97.5488 244.877 95.5651 230.405C95.4449 229.458 95.3096 228.527 95.1744 227.595C95.0842 226.979 94.994 226.378 94.8888 225.762C94.1976 221.223 93.386 216.669 92.4693 212.251C88.4568 192.985 91.2671 172.772 110.804 170.383C112.216 170.202 113.614 170.052 114.981 169.902C124.179 168.925 131.753 168.579 133.857 168.504C134.248 168.489 134.443 168.489 134.443 168.489L172.194 179.46L175.785 180.497C177.844 181.158 179.753 181.804 181.526 182.435C182.278 182.706 183.014 182.976 183.705 183.232C185.539 183.923 187.192 184.584 188.71 185.261C191.73 186.598 194.12 187.906 196.013 189.243C204.294 195.119 203.016 201.762 202.806 214.881C202.806 214.941 202.806 215.001 202.806 215.061C202.806 215.227 202.806 215.392 202.806 215.572C202.806 215.648 202.806 215.723 202.806 215.798C202.806 216.339 202.806 216.865 202.806 217.406C202.821 219.104 202.881 220.787 202.986 222.47C203.122 224.95 203.347 227.415 203.617 229.819C203.723 230.781 203.828 231.743 203.948 232.705C204.053 233.606 204.174 234.493 204.294 235.38C205.766 246.861 207.645 256.93 205.586 263.046Z" fill="#5842DB"/>
<path d="M133.54 274.062C133.645 274.377 133.916 274.603 134.216 274.663C134.367 274.693 134.532 274.693 134.682 274.633C134.847 274.573 150.913 269.373 167.804 276.376C176.385 279.938 184.02 281.29 190.196 281.17C190.226 280.809 190.256 280.479 190.286 280.148C190.286 280.103 190.301 280.058 190.301 280.028C190.301 280.028 190.647 279.802 191.248 279.382C185.177 279.682 177.407 278.39 168.495 274.708C150.958 267.434 134.787 272.694 134.111 272.92C133.645 273.085 133.39 273.596 133.54 274.062Z" fill="#380098"/>
<path d="M172.179 179.459C170.06 182.736 165.702 186.448 156.866 185.816C144.678 184.93 136.653 173.298 133.857 168.519C134.233 168.504 134.444 168.504 134.444 168.504L172.179 179.459Z" fill="#380098"/>
<path d="M196.012 189.243C195.231 197.899 197.365 212.191 202.955 222.47C202.82 220.261 202.76 218.022 202.79 215.798C202.79 215.723 202.79 215.648 202.79 215.572C202.79 215.347 202.805 215.122 202.805 214.896C203 201.777 204.278 195.119 196.012 189.243Z" fill="#EA9B7A"/>
<path d="M126.567 204.482C122.239 221.193 106.399 234.598 95.5791 230.42C95.4438 229.489 95.3236 228.542 95.1883 227.61C95.0982 226.994 95.008 226.393 94.9028 225.777C94.2115 221.238 93.4 216.685 92.4833 212.266C88.4708 193 91.296 172.787 110.818 170.398C112.23 170.218 113.628 170.067 114.995 169.917C124.749 174.08 131.556 185.246 126.567 204.482Z" fill="#EA9B7A"/>
<g filter="url(#filter0_i_84_124)">
<path d="M128.791 191.738L154.158 284.522L145.111 274.092C148.462 275.865 152.34 277.248 156.638 278.21C160.921 279.172 165.61 279.728 170.494 279.983C175.393 280.239 180.487 280.193 185.702 279.983C190.917 279.773 196.252 279.382 201.662 278.916H201.692C209.672 278.24 216.69 284.146 217.366 292.126C218.013 299.73 212.618 306.478 205.194 307.68C199.618 308.567 193.938 309.408 188.122 310.084C182.306 310.761 176.34 311.257 170.148 311.407C163.971 311.542 157.569 311.317 150.957 310.355C144.36 309.393 137.507 307.68 130.804 304.78C126.521 302.931 123.471 299.414 122.088 295.312L121.772 294.35L91.3254 203.099C87.899 192.85 93.4444 181.759 103.694 178.333C113.943 174.906 125.034 180.452 128.46 190.701C128.595 191.031 128.7 191.422 128.791 191.738Z" fill="#EA9B7A"/>
</g>
<path d="M140.153 281.561C139.898 281.561 139.642 281.426 139.507 281.185C139.297 280.824 139.432 280.374 139.793 280.163C140.033 280.028 145.579 276.902 151.379 276.451C151.8 276.421 152.161 276.722 152.191 277.143C152.221 277.563 151.92 277.924 151.5 277.954C146.044 278.375 140.589 281.441 140.544 281.471C140.409 281.531 140.274 281.561 140.153 281.561Z" fill="#D96C63"/>
<path d="M149.38 278.209C149.245 278.209 149.11 278.179 148.99 278.104C145.488 275.985 141.25 275.655 141.205 275.655C140.784 275.625 140.484 275.264 140.514 274.858C140.544 274.437 140.889 274.137 141.31 274.167C141.491 274.182 145.954 274.512 149.756 276.827C150.117 277.037 150.222 277.503 150.012 277.864C149.876 278.074 149.621 278.209 149.38 278.209Z" fill="#D96C63"/>
<path d="M170.053 229.68C181.279 231.949 186.193 220.347 186.239 220.227C186.434 219.761 186.209 219.235 185.743 219.055C185.277 218.859 184.751 219.085 184.57 219.551C184.39 219.986 180.152 229.89 170.414 227.921C160.18 225.847 141.094 205.725 140.914 205.514C140.568 205.154 139.997 205.139 139.636 205.484C139.276 205.83 139.261 206.401 139.606 206.762C140.388 207.588 159.278 227.485 170.053 229.68Z" fill="#380098"/>
<path d="M168.333 215.781C179.068 217.069 182.609 205.091 182.64 204.967C182.781 204.486 182.521 203.982 182.067 203.843C181.613 203.689 181.14 203.959 181.014 204.438C180.885 204.888 177.821 215.116 168.509 213.999C158.722 212.82 138.977 194.434 138.788 194.24C138.431 193.911 137.894 193.946 137.588 194.321C137.281 194.696 137.32 195.266 137.677 195.596C138.486 196.351 158.028 214.529 168.333 215.781Z" fill="#380098"/>
<path d="M154.354 156.226C154.354 156.226 136.336 152.83 131.256 134.646C126.417 117.333 130.144 108.347 135.178 98.9991C138.965 91.9509 150.988 82.4381 167.834 85.8495C184.846 89.2909 197.575 98.0373 199.454 112.028C202.955 138.208 181.841 170.142 154.354 156.226Z" fill="#39393B"/>
<path d="M139.224 126.858C138.949 126.676 138.78 126.36 138.822 125.997C138.872 125.322 140.33 109.401 155.796 97.3925C165.462 89.8912 174.758 89.8339 180.877 91.1028C187.487 92.4724 191.743 95.5819 191.931 95.7059C192.339 96.0129 192.429 96.612 192.104 97.049C191.788 97.4731 191.206 97.5915 190.785 97.2762C190.748 97.2514 186.6 94.2505 180.368 92.9626C172.072 91.2608 164.19 93.2582 156.922 98.8994C142.185 110.348 140.732 125.937 140.717 126.095C140.673 126.624 140.223 127.034 139.702 127.006C139.513 126.993 139.362 126.949 139.224 126.858Z" fill="#FF9A2C"/>
<path d="M189.294 137.742C189.294 137.742 195.155 133.113 196.703 139.245C198.251 145.376 193.893 156.272 187.07 152.965L189.294 137.742Z" fill="#D96C63"/>
<path d="M183.568 149.013C180.653 149.975 178.083 152.559 177.422 155.76C176.46 160.539 179.556 165.198 184.32 166.175C189.099 167.137 193.758 164.041 194.734 159.277C195.456 155.7 193.908 152.184 191.068 150.245C190.121 149.584 189.024 149.118 187.821 148.878C187.791 148.878 187.761 148.863 187.731 148.863C187.566 149.464 187.626 149.945 187.972 150.32C188.933 150.576 189.805 151.012 190.572 151.583C192.781 153.266 193.968 156.106 193.382 159.007C192.57 163.034 188.618 165.649 184.59 164.837C180.563 164.026 177.948 160.074 178.759 156.046C179.361 153.116 181.525 151.042 184.245 150.38L183.568 149.013Z" fill="#FFD147"/>
<path d="M171.532 164.026L169.082 179.385C169.082 179.385 157.586 191.122 136.592 170.068C142.227 165.875 144.376 156.137 143.715 149.855C143.715 149.855 145.368 150.847 147.923 153.161C148.419 153.612 149.065 153.957 149.681 154.393C155.226 158.15 163.732 163.064 171.532 164.026Z" fill="#EA9B7A"/>
<path d="M171.53 164.026L170.373 171.3C164.076 168.489 152.94 162.493 147.921 153.146C148.462 153.536 149.063 153.942 149.679 154.378C155.225 158.15 163.731 163.064 171.53 164.026Z" fill="#39393B"/>
<path d="M194.975 134.045C194.644 135.668 194.344 137.216 194.028 138.689C193.698 140.282 193.382 141.785 193.067 143.197C190.737 153.822 188.829 159.518 185.733 161.652C170.058 172.427 144.556 150.606 143.729 149.9C143.714 149.885 143.714 149.885 143.714 149.885C143.699 148.637 143.699 147.39 143.714 146.173C143.909 135.833 145.668 126.546 148.463 117.965C149.861 108.587 157.134 101.073 166.497 99.6606C176.205 98.2029 183.509 103.823 188.077 106.303C194.975 110.06 197.68 120.505 194.975 134.045Z" fill="#EA9B7A"/>
<path d="M149.003 108.317C149.003 108.317 159.974 87.2173 181.855 93.1083C203.736 98.9994 204.893 109.158 205.284 114.238C205.674 119.317 193.952 110.316 193.952 110.316C193.952 110.316 193.547 120.475 189.639 117.349C184.845 113.502 179.495 105.221 179.495 105.221C179.495 105.221 166.466 118.025 154.083 114.569C147.034 112.615 149.003 108.317 149.003 108.317Z" fill="#39393B"/>
<path d="M175.874 154.739C173.034 154.739 171.08 152.77 170.99 152.665C170.689 152.349 170.689 151.853 171.005 151.553C171.321 151.252 171.802 151.252 172.102 151.568C172.207 151.673 174.462 153.912 177.437 152.89C177.843 152.755 178.294 152.966 178.429 153.371C178.564 153.777 178.354 154.228 177.948 154.363C177.227 154.634 176.535 154.739 175.874 154.739Z" fill="#D96C63"/>
<path d="M169.336 141.965C169.336 141.965 179.886 145.091 185.356 145.091C185.356 145.091 182.621 152.905 174.807 150.17C168.72 148.036 169.336 141.965 169.336 141.965Z" fill="white"/>
<path d="M188.918 119.994C188.918 119.994 186.183 119.708 186.619 122.368C187.07 125.028 193.006 123.405 195.951 128.725C195.951 128.725 198.792 123.15 188.918 119.994Z" fill="#39393B"/>
<path d="M175.95 117.523C175.95 117.523 179.847 118.279 177.71 120.393C175.572 122.508 168.4 118.965 161.318 122.466C161.318 122.466 160.673 116.654 175.95 117.523Z" fill="#39393B"/>
<path d="M171.978 136.57C171.723 137.818 168.943 138.314 165.742 137.667C162.556 137.021 160.181 135.488 160.437 134.226C160.692 132.979 163.472 132.483 166.673 133.129C169.859 133.775 172.234 135.323 171.978 136.57Z" fill="#D96C63"/>
<g opacity="0.8">
<g opacity="0.8">
<g opacity="0.8">
<g opacity="0.8">
<g opacity="0.8">
<g opacity="0.8">
<g opacity="0.8">
<path opacity="0.8" d="M194.031 138.688C193.7 140.281 193.385 141.784 193.069 143.196C190.169 142.49 188.08 141.062 188.32 139.875C188.576 138.703 191.07 138.192 194.031 138.688Z" fill="#D96C63"/>
</g>
</g>
</g>
</g>
</g>
</g>
</g>
<path d="M174.221 130.273C173.875 132.001 172.808 133.233 171.847 133.038C170.885 132.842 170.389 131.295 170.735 129.566C171.08 127.838 172.147 126.606 173.109 126.801C174.071 126.996 174.567 128.544 174.221 130.273Z" fill="#39393B"/>
<path d="M191.26 133.728C190.914 135.457 189.847 136.689 188.885 136.494C187.924 136.298 187.428 134.75 187.773 133.022C188.119 131.294 189.186 130.062 190.148 130.257C191.109 130.452 191.605 132 191.26 133.728Z" fill="#39393B"/>
<path d="M182.262 138.379C183.081 138.579 183.668 138.573 183.713 138.575C183.909 138.568 184.108 138.487 184.249 138.342C184.391 138.198 184.444 137.989 184.438 137.794L183.679 129.715C183.635 129.322 183.287 129.021 182.894 129.065C182.501 129.109 182.201 129.457 182.244 129.85L182.92 137.053C182.203 136.918 181.135 136.572 180.193 135.72C179.903 135.452 179.436 135.478 179.168 135.767C178.9 136.057 178.926 136.524 179.215 136.792C180.245 137.708 181.384 138.162 182.262 138.379Z" fill="#39393B"/>
<path d="M150.764 144.038C150.643 144.219 147.307 149.013 143.745 149.884C143.73 149.869 143.73 149.869 143.73 149.869C143.7 148.622 143.715 147.375 143.73 146.157C143.851 146.172 147.247 146.262 150.764 144.038Z" fill="#39393B"/>
<path d="M150.025 131.445C150.025 131.445 145.006 120.805 138.499 127.042C133.134 132.196 137.822 149.389 147.14 145.707L150.025 131.445Z" fill="#EA9B7A"/>
<path d="M137.685 140.628C134.77 141.59 132.2 144.175 131.539 147.376C130.577 152.155 133.673 156.813 138.437 157.79C143.216 158.752 147.874 155.656 148.851 150.892C149.572 147.316 148.025 143.799 145.184 141.86C144.237 141.199 143.14 140.733 141.938 140.493C141.908 140.493 141.878 140.478 141.848 140.478C141.683 141.079 141.758 141.56 142.088 141.936C143.05 142.191 143.922 142.627 144.688 143.198C146.897 144.881 148.085 147.721 147.499 150.622C146.687 154.649 142.735 157.264 138.707 156.453C134.68 155.641 132.065 151.689 132.876 147.661C133.462 144.731 135.641 142.657 138.361 141.996L137.685 140.628Z" fill="#FFD147"/>
<path d="M146.749 142.746C146.779 142.746 146.794 142.761 146.824 142.761C147.215 142.791 147.576 142.506 147.606 142.1C148.342 134.06 142.271 129.987 142.015 129.822C141.685 129.597 141.234 129.702 141.008 130.032C140.783 130.363 140.888 130.814 141.219 131.039C141.444 131.19 146.824 134.826 146.163 141.98C146.148 142.34 146.404 142.671 146.749 142.746Z" fill="#39393B"/>
<path d="M141.009 137.111C141.159 137.141 141.339 137.126 141.49 137.035C142.211 136.66 144.33 135.818 145.487 136.374C145.848 136.555 146.284 136.404 146.449 136.044C146.629 135.683 146.479 135.247 146.118 135.082C144.105 134.105 141.159 135.593 140.828 135.758C140.468 135.938 140.332 136.374 140.528 136.735C140.618 136.93 140.813 137.066 141.009 137.111Z" fill="#39393B"/>
<path d="M156.488 113.396C156.488 113.396 149.741 131.716 149.38 135.412C148.884 140.447 142.227 123.195 148.914 108.467L156.488 113.396Z" fill="#39393B"/>
<path d="M269.23 501.783H241.443C241.443 501.783 235.011 470.945 232.862 453.663C230.698 436.366 229.586 395.384 229.586 395.384C229.586 395.384 207.449 402.582 161.102 399.862C58.415 393.866 97.3529 318.425 97.3529 318.425C100.824 323.219 126.853 329.816 141.37 332.115C185.959 336.398 219.847 343.973 243.051 353.981C248.641 356.386 253.601 358.941 257.959 361.631C263.549 365.072 267.051 375.547 269.17 389.298C275.497 430.64 269.23 501.783 269.23 501.783Z" fill="#39393B"/>
<path d="M244.88 486.936C244.414 486.936 244.008 486.606 243.903 486.14C239.891 466.303 238.553 441.611 237.471 421.774C236.57 405.318 235.728 389.779 233.609 387.916C231.896 386.398 224.787 387.585 215.801 389.073C197.902 392.049 170.851 396.527 141.036 389.599C124.79 385.812 112.843 377.922 105.539 366.14C92.9305 345.822 98.6863 320.62 98.7464 320.364C98.8667 319.823 99.4077 319.493 99.9487 319.628C100.49 319.748 100.82 320.289 100.685 320.83C100.625 321.071 95.0796 345.491 107.252 365.103C114.271 376.419 125.797 384.008 141.501 387.66C170.942 394.513 197.752 390.065 215.5 387.119C226.125 385.361 232.542 384.294 234.962 386.428C237.576 388.742 238.313 400.104 239.485 421.669C240.567 441.446 241.905 466.047 245.887 485.749C245.992 486.29 245.647 486.816 245.106 486.921C245.015 486.921 244.955 486.936 244.88 486.936Z" fill="#585859"/>
<path d="M269.749 487.446H269.734L238.836 486.785C238.28 486.769 237.844 486.319 237.859 485.763C237.874 485.207 238.325 484.771 238.881 484.786L269.779 485.447C270.335 485.462 270.771 485.913 270.756 486.469C270.726 487.025 270.29 487.446 269.749 487.446Z" fill="#585859"/>
<path d="M268.469 537.385H248.857L245.085 514.377L243.011 501.783H267.372L267.763 514.377L268.469 537.385Z" fill="#EA9B7A"/>
<path d="M268.462 537.384H248.851L246.04 520.252L245.078 514.376H267.756L267.936 520.463L268.462 537.384Z" fill="#FF5D8F"/>
<path d="M267.936 520.463L246.04 520.252L245.078 514.376H267.756L267.936 520.463Z" fill="#FFB0BE"/>
<path d="M316.854 568.358H242.676C242.119 567.351 241.819 565.938 241.699 564.24C241.233 557.958 243.232 547.95 244.208 541.638C244.329 540.901 244.434 540.21 244.509 539.594C244.644 538.542 244.734 537.655 244.734 537.009C244.734 531.854 249.288 532.741 249.288 532.741C256.787 540.105 265.293 529.074 270.252 532.681C270.252 532.681 270.448 532.831 270.913 533.177C271.334 533.507 271.965 534.018 272.837 534.755C274.099 535.807 275.873 537.34 278.277 539.504C284.168 544.809 294.177 548.295 302.698 551.857C303.78 552.308 304.787 552.759 305.734 553.224C306.44 553.57 307.116 553.916 307.747 554.246C314.72 558.003 316.93 561.61 317.441 564.225C317.936 566.735 316.854 568.358 316.854 568.358Z" fill="#5842DB"/>
<path d="M307.768 554.261C305.86 555.779 301.607 558.829 298.196 558.829C298.045 558.829 297.895 558.829 297.745 558.814C295.34 558.619 286.504 554.276 279.305 550.323C275.187 548.054 271.415 545.83 268.71 544.042C264.277 541.111 263.496 539.999 263.33 539.218C262.684 536.287 267.523 534.258 270.919 533.191C271.34 533.522 271.971 534.033 272.843 534.769C268.635 535.912 265.164 537.715 265.329 538.737C265.75 539.608 270.138 542.945 280.628 548.7C288.638 553.089 296.227 556.62 297.91 556.771C300.194 556.951 303.546 554.877 305.74 553.239C306.476 553.57 307.137 553.915 307.768 554.261Z" fill="#380098"/>
<path d="M316.863 568.358H242.684C242.128 567.351 241.828 565.938 241.707 564.24H317.464C317.945 566.735 316.863 568.358 316.863 568.358Z" fill="#380098"/>
<path d="M250.249 568.358H248.04C250.234 565.848 252.293 561.986 252.022 556.486C251.662 549.152 247.273 544.223 244.208 541.638C244.328 540.901 244.433 540.21 244.508 539.594C247.799 542.104 253.345 547.619 253.781 556.395C254.051 561.655 252.323 565.578 250.249 568.358Z" fill="#380098"/>
<path d="M277.036 543.893C276.495 543.893 275.984 543.517 275.849 542.961C275.683 542.3 276.089 541.639 276.735 541.473L281.364 540.316C282.025 540.151 282.686 540.557 282.852 541.203C283.017 541.864 282.611 542.525 281.965 542.69L277.336 543.848C277.231 543.878 277.126 543.893 277.036 543.893Z" fill="white"/>
<path d="M272.435 540.031C271.878 540.031 271.383 539.655 271.247 539.099C271.082 538.438 271.488 537.777 272.134 537.611L276.763 536.454C277.424 536.289 278.085 536.695 278.25 537.341C278.416 538.002 278.01 538.663 277.364 538.829L272.735 539.986C272.63 540.016 272.54 540.031 272.435 540.031Z" fill="white"/>
<path d="M281.682 546.583C281.141 546.583 280.63 546.207 280.495 545.651C280.329 544.99 280.735 544.329 281.381 544.178L286.01 543.021C286.671 542.856 287.333 543.262 287.498 543.908C287.663 544.569 287.257 545.23 286.611 545.396L281.982 546.553C281.877 546.568 281.772 546.583 281.682 546.583Z" fill="white"/>
<path d="M286.306 549.167C285.765 549.167 285.254 548.791 285.119 548.235C284.954 547.574 285.36 546.913 286.006 546.762L290.635 545.605C291.296 545.44 291.957 545.846 292.122 546.492C292.288 547.153 291.882 547.814 291.236 547.98L286.607 549.137C286.502 549.152 286.412 549.167 286.306 549.167Z" fill="white"/>
<path d="M291.343 551.556C290.802 551.556 290.291 551.18 290.156 550.624C289.991 549.963 290.397 549.302 291.043 549.152L295.671 547.994C296.333 547.829 296.994 548.235 297.159 548.881C297.325 549.542 296.919 550.204 296.273 550.369L291.644 551.526C291.539 551.556 291.449 551.556 291.343 551.556Z" fill="white"/>
<path d="M296.831 553.6C296.275 553.6 295.779 553.224 295.644 552.668C295.479 552.006 295.884 551.345 296.531 551.18L301.159 550.023C301.82 549.857 302.482 550.263 302.647 550.909C302.812 551.571 302.407 552.232 301.76 552.397L297.132 553.554C297.026 553.584 296.921 553.6 296.831 553.6Z" fill="white"/>
<path d="M371.569 317.312V323.474C371.569 327.02 369.435 329.891 366.79 329.891H33.9617C31.3168 329.891 29.1828 327.02 29.1828 323.474V317.312C29.1828 313.765 31.3168 310.895 33.9617 310.895H366.775C369.42 310.895 371.569 313.765 371.569 317.312Z" fill="#7DFFF7"/>
<path d="M371.569 319.267H29.1828V322.092H371.569V319.267Z" fill="#19CFDA"/>
<path d="M361.563 345.715H48.7219C47.3243 345.715 46.1821 344.573 46.1821 343.176V329.801H364.102V343.176C364.102 344.573 362.96 345.715 361.563 345.715Z" fill="#19CFDA"/>
<path d="M347.51 424.223H67.7314V435.134H347.51V424.223Z" fill="#19CFDA"/>
<path d="M47.5674 570.296L101.729 345.716H82.7032L28.5417 570.296H47.5674Z" fill="#7DFFF7"/>
<path d="M367.321 570.296L313.145 345.716H332.171L386.332 570.296H367.321Z" fill="#02ACB7"/>
<path d="M59.5568 259.282L53.6889 260.181L60.4715 304.465L66.3393 303.566L59.5568 259.282Z" fill="#F9ECB3"/>
<path d="M59.5705 259.259L53.7095 260.16L55.002 255.682L55.6632 253.353L57.0007 255.366L59.5705 259.259Z" fill="#EA9B7A"/>
<path d="M65.8441 300.342L59.9763 301.241L60.47 304.465L66.3378 303.566L65.8441 300.342Z" fill="#39393B"/>
<path d="M66.3636 306.162L61.2691 306.943C61.0587 306.973 60.8483 306.823 60.8182 306.613L60.4876 304.433L66.3636 303.532L66.6942 305.711C66.7243 305.936 66.574 306.132 66.3636 306.162Z" fill="#FF5D8F"/>
<path d="M57.0025 255.366L55.0037 255.682L55.665 253.352L57.0025 255.366Z" fill="#39393B"/>
<path d="M65.5101 298.028L59.6423 298.927L59.9949 301.23L65.8628 300.331L65.5101 298.028Z" fill="#F9BD94"/>
<path d="M55.4991 262.114L60.5185 294.905C60.5636 295.161 60.789 295.326 61.0295 295.281C61.2699 295.236 61.4503 295.011 61.4052 294.77L56.3858 261.979C56.3407 261.738 56.1153 261.558 55.8748 261.603C55.6344 261.633 55.454 261.874 55.4991 262.114Z" fill="#F9BD94"/>
<path d="M57.7975 261.768L62.8169 294.56C62.862 294.8 63.0874 294.98 63.3278 294.935C63.5833 294.89 63.7486 294.665 63.7035 294.424L58.6841 261.633C58.639 261.392 58.4136 261.212 58.1732 261.257C57.9327 261.287 57.7524 261.513 57.7975 261.768Z" fill="#F9BD94"/>
<path d="M70.1966 259.46L64.2605 259.48L64.4078 304.279L70.3439 304.259L70.1966 259.46Z" fill="#B6FFFF"/>
<path d="M70.1959 259.469L64.2598 259.484L66.1984 255.246L67.2053 253.037L68.2272 255.231L70.1959 259.469Z" fill="#EA9B7A"/>
<path d="M70.328 301.014L64.3919 301.033L64.4026 304.294L70.3388 304.275L70.328 301.014Z" fill="#39393B"/>
<path d="M69.9543 306.853L64.7996 306.868C64.5742 306.868 64.4089 306.688 64.4089 306.477V304.283L70.345 304.268V306.462C70.345 306.673 70.1797 306.853 69.9543 306.853Z" fill="#FF5D8F"/>
<path d="M68.2269 255.231L66.1981 255.246L67.2049 253.037L68.2269 255.231Z" fill="#39393B"/>
<path d="M70.3129 298.669L64.3768 298.689L64.3845 301.018L70.3206 300.999L70.3129 298.669Z" fill="#217C58"/>
<path d="M65.7346 261.694L65.8398 294.861C65.8398 295.116 66.0502 295.311 66.2906 295.311C66.5461 295.311 66.7415 295.101 66.7415 294.861L66.6363 261.694C66.6363 261.438 66.4259 261.243 66.1854 261.243C65.945 261.228 65.7346 261.438 65.7346 261.694Z" fill="#217C58"/>
<path d="M68.0602 261.678L68.1654 294.845C68.1654 295.101 68.3758 295.296 68.6163 295.296C68.8718 295.296 69.0671 295.086 69.0671 294.845L68.9619 261.678C68.9619 261.423 68.7515 261.227 68.5111 261.227C68.2706 261.227 68.0602 261.423 68.0602 261.678Z" fill="#217C58"/>
<path d="M74.5769 259.239L68.2781 303.594L74.1555 304.429L80.4542 260.073L74.5769 259.239Z" fill="#5842DB"/>
<path d="M80.4468 260.1L74.5708 259.258L77.0955 255.336L78.418 253.307L79.1093 255.621L80.4468 260.1Z" fill="#EA9B7A"/>
<path d="M74.6285 301.241L68.7511 300.406L68.2926 303.635L74.1699 304.469L74.6285 301.241Z" fill="#39393B"/>
<path d="M73.3972 306.958L68.3026 306.237C68.0922 306.207 67.942 306.011 67.972 305.786L68.2876 303.607L74.1636 304.448L73.848 306.627C73.8029 306.838 73.6076 306.988 73.3972 306.958Z" fill="#FF5D8F"/>
<path d="M79.1064 255.621L77.0926 255.336L78.4151 253.307L79.1064 255.621Z" fill="#39393B"/>
<path d="M69.0714 298.074L68.7437 300.38L74.621 301.215L74.9488 298.909L69.0714 298.074Z" fill="#380098"/>
<path d="M75.7103 261.648L71.0516 294.484C71.0215 294.74 71.1868 294.965 71.4423 294.995C71.6978 295.025 71.9232 294.86 71.9532 294.605L76.612 261.768C76.642 261.513 76.4767 261.287 76.2212 261.257C75.9808 261.227 75.7554 261.407 75.7103 261.648Z" fill="#380098"/>
<path d="M78.0281 261.979L73.3694 294.815C73.3393 295.071 73.5046 295.296 73.7601 295.326C74.0156 295.356 74.241 295.191 74.271 294.935L78.9298 262.099C78.9598 261.844 78.7945 261.618 78.539 261.588C78.2836 261.558 78.0581 261.723 78.0281 261.979Z" fill="#380098"/>
<path d="M82.3846 277.187L82.069 279.592L81.7834 281.771L81.3626 285.077L81.0771 287.241L80.6563 290.577L80.3708 292.711L79.935 296.077L79.6645 298.181L79.2287 301.578L78.9581 303.652L78.5223 307.078L78.2518 309.122L78.0264 310.895H54.6727L54.4472 309.122L54.1767 307.078L53.7409 303.652L53.4704 301.578L53.0346 298.181L52.7641 296.077L52.3283 292.711L52.0578 290.577L51.622 287.241L51.3514 285.077L50.9156 281.771L50.6301 279.592L50.3295 277.187H82.3846Z" fill="#FF5D8F"/>
<path d="M82.0663 279.592L81.7807 281.771H50.9129L50.6274 279.592H82.0663Z" fill="#A92F4B"/>
<path d="M81.3603 285.078L81.0748 287.242H51.6196L51.3491 285.078H81.3603Z" fill="#A92F4B"/>
<path d="M80.6574 290.578L80.3719 292.712H52.3293L52.0588 290.578H80.6574Z" fill="#A92F4B"/>
<path d="M79.9356 296.077L79.6651 298.181H53.0352L52.7647 296.077H79.9356Z" fill="#A92F4B"/>
<path d="M79.2281 301.578L78.9576 303.652H53.7404L53.4699 301.578H79.2281Z" fill="#A92F4B"/>
<path d="M78.5215 307.078L78.251 309.122H54.4464L54.1759 307.078H78.5215Z" fill="#A92F4B"/>
<path d="M369.631 191.798L349.719 276.015L349.193 278.224L347.856 283.89C347.269 286.355 345.09 288.083 342.566 288.083H208.409C204.893 288.083 202.308 284.807 203.119 281.395L224.895 189.288C225.481 186.838 227.66 185.11 230.185 185.11H364.326C367.843 185.11 370.428 188.386 369.631 191.798Z" fill="#39393B"/>
<path d="M349.705 276L349.194 278.224H209.898V276H349.705Z" fill="#585859"/>
<path d="M256.591 254.89C255.479 260.856 249.739 265.695 243.772 265.695C237.806 265.695 233.869 260.856 234.981 254.89C236.093 248.924 241.834 244.085 247.8 244.085C253.781 244.085 257.704 248.924 256.591 254.89Z" fill="#FFD147"/>
<path d="M244.389 252.831C244.163 254.018 243.562 254.995 243.051 254.995C242.525 254.995 242.285 254.033 242.51 252.831C242.735 251.644 243.337 250.667 243.848 250.667C244.374 250.667 244.614 251.629 244.389 252.831Z" fill="#39393B"/>
<path d="M250.02 252.831C249.795 254.019 249.194 254.995 248.683 254.995C248.172 254.995 247.916 254.034 248.142 252.831C248.367 251.644 248.968 250.667 249.479 250.667C250.005 250.667 250.246 251.629 250.02 252.831Z" fill="#39393B"/>
<path d="M244.896 260.164C240.253 260.164 240.057 255.521 240.057 255.476C240.042 255.22 240.253 254.965 240.523 254.92C240.794 254.859 241.004 255.025 241.019 255.28C241.019 255.446 241.199 259.233 245.092 259.233C248.969 259.233 250.562 255.446 250.637 255.28C250.742 255.025 251.028 254.875 251.268 254.92C251.509 254.98 251.629 255.22 251.524 255.476C251.479 255.506 249.54 260.164 244.896 260.164Z" fill="#39393B"/>
<path d="M328.546 201.84C328.666 207.43 338.134 214.433 338.134 214.433C338.134 214.433 349.134 207.43 350.472 201.84C351.914 195.783 345.001 193.92 339.877 198.488C335.744 193.92 328.41 195.783 328.546 201.84Z" fill="#19CEDA"/>
<path d="M304.439 240.188C303.793 245.989 298.578 250.678 292.792 250.678C287.007 250.678 282.814 245.974 283.46 240.188C284.106 234.387 289.321 229.698 295.107 229.698C300.908 229.698 305.085 234.402 304.439 240.188Z" fill="#585859"/>
<path d="M235.505 185.11L212.317 288.083H208.409C204.893 288.083 202.308 284.807 203.12 281.395L224.895 189.288C225.481 186.838 227.661 185.095 230.185 185.095H235.505V185.11Z" fill="#585859"/>
<path d="M274.356 288.083L270.283 310.971H283.733L287.806 288.083H274.356Z" fill="white"/>
<path d="M250.173 307.034L252.923 303.171C253.9 301.789 255.493 300.977 257.191 300.977H294.04C295.994 300.977 297.782 302.059 298.684 303.788L300.532 307.334C301.404 308.987 300.202 310.986 298.323 310.986H252.202C250.173 310.971 249.001 308.672 250.173 307.034Z" fill="white"/>
<path d="M173.395 310.956H284.092L285.294 306.778C286.046 304.148 284.077 301.533 281.342 301.533H179.196C177.362 301.533 175.754 302.75 175.243 304.509L173.395 310.956Z" fill="white"/>
<path d="M318.538 157.609L269.576 157.579C267.683 157.579 266.135 156.031 266.135 154.137L266.15 124.051C266.15 122.158 267.698 120.61 269.591 120.61L318.553 120.64C320.446 120.64 321.994 122.188 321.994 124.081L321.979 154.167C321.979 156.076 320.446 157.609 318.538 157.609Z" fill="#FE5A5D"/>
<path d="M315.622 152.063L311.159 168.925L303.359 153.07L315.622 152.063Z" fill="#FF686B"/>
<path d="M302.422 139.59C302.422 141.588 304.035 143.202 306.031 143.202C308.027 143.202 309.64 141.577 309.64 139.59C309.64 137.591 308.027 135.977 306.031 135.977C304.046 135.966 302.422 137.591 302.422 139.59Z" fill="white"/>
<path d="M290.992 139.59C290.992 141.588 292.604 143.202 294.601 143.202C296.597 143.202 298.209 141.577 298.209 139.59C298.209 137.591 296.597 135.977 294.601 135.977C292.604 135.966 290.992 137.591 290.992 139.59Z" fill="white"/>
<path d="M279.551 139.59C279.551 141.588 281.175 143.202 283.16 143.202C285.156 143.202 286.769 141.577 286.769 139.59C286.769 137.591 285.145 135.977 283.16 135.977C281.164 135.966 279.551 137.591 279.551 139.59Z" fill="white"/>
<path d="M406.457 85.7205C428.966 85.7205 447.213 67.702 447.213 45.4751C447.213 23.2482 428.966 5.22974 406.457 5.22974C383.948 5.22974 365.701 23.2482 365.701 45.4751C365.701 67.702 383.948 85.7205 406.457 85.7205Z" fill="#CED3E6"/>
<path d="M406.457 80.4907C428.966 80.4907 447.213 62.4723 447.213 40.2454C447.213 18.0185 428.966 0 406.457 0C383.948 0 365.701 18.0185 365.701 40.2454C365.701 62.4723 383.948 80.4907 406.457 80.4907Z" fill="#5842DB"/>
<path d="M406.455 72.9616C424.748 72.9616 439.577 58.314 439.577 40.2453C439.577 22.1766 424.748 7.52905 406.455 7.52905C388.162 7.52905 373.333 22.1766 373.333 40.2453C373.333 58.314 388.162 72.9616 406.455 72.9616Z" fill="white"/>
<path d="M439.581 40.2453C439.581 41.117 439.551 41.9736 439.476 42.8302C438.139 25.9986 423.832 12.6987 406.444 12.6987C389.057 12.6987 374.765 25.9986 373.412 42.8302C373.352 41.9736 373.307 41.117 373.307 40.2453C373.307 22.1965 388.17 7.52905 406.429 7.52905C424.718 7.52905 439.581 22.1965 439.581 40.2453Z" fill="#CED3E6"/>
<path d="M404.07 43.6416C403.815 43.6416 403.559 43.5213 403.409 43.3109L387.163 21.7005C386.893 21.3398 386.968 20.8288 387.329 20.5583C387.689 20.2878 388.215 20.363 388.486 20.7236L404.341 41.8081L422.359 33.9935C422.78 33.8131 423.261 33.9935 423.456 34.4143C423.637 34.8351 423.456 35.316 423.036 35.4963L404.416 43.5664C404.295 43.6265 404.175 43.6416 404.07 43.6416Z" fill="#39393B"/>
<path d="M548.104 221.278L548.368 222.53L548.565 223.535L548.911 225.43C549.125 226.666 549.322 227.868 549.503 229.071C549.849 231.477 550.145 233.833 550.409 236.189C550.919 240.901 551.297 245.563 551.511 250.242C551.725 254.905 551.791 259.568 551.742 264.23C551.676 268.893 551.478 273.539 551.166 278.185C550.836 282.832 550.359 287.478 549.783 292.107C549.454 294.414 549.158 296.737 548.779 299.044C548.598 300.197 548.417 301.35 548.219 302.504L547.578 305.947C547.38 307.1 547.117 308.237 546.886 309.39C546.639 310.527 546.425 311.681 546.146 312.817C545.619 315.091 545.109 317.381 544.5 319.655C544.204 320.792 543.924 321.928 543.611 323.049L542.656 326.443L542.41 327.283L542.294 327.712L542.047 328.568C541.801 329.376 541.554 330.068 541.274 330.776C541.011 331.435 540.731 332.111 540.451 332.704C540.171 333.33 539.875 333.873 539.579 334.434L539.151 335.208C539.003 335.472 538.854 335.719 538.706 335.949L538.262 336.674L537.834 337.35C537.538 337.811 537.258 338.207 536.962 338.618C535.81 340.233 534.674 341.584 533.571 342.82C532.468 344.055 531.399 345.143 530.329 346.164C528.206 348.207 526.148 349.937 524.124 351.568C520.075 354.798 516.108 357.516 512.142 360.053C504.241 365.111 496.391 369.478 488.49 373.58C480.606 377.682 472.673 381.472 464.707 385.097C460.708 386.892 456.708 388.655 452.692 390.369C450.684 391.226 448.676 392.082 446.652 392.923L443.591 394.158L440.447 395.41L426.654 364.205L429.337 362.838L432.086 361.404L437.6 358.521C441.27 356.577 444.94 354.616 448.561 352.606C455.836 348.636 463.028 344.533 470.023 340.348C473.513 338.256 476.953 336.098 480.31 333.939C483.668 331.781 486.943 329.573 490.037 327.333C493.132 325.092 496.078 322.818 498.58 320.61C499.83 319.507 500.966 318.419 501.871 317.464C502.76 316.508 503.435 315.618 503.567 315.322C503.567 315.305 503.6 315.256 503.583 315.256C503.567 315.272 503.567 315.272 503.55 315.289L503.501 315.338C503.484 315.371 503.468 315.388 503.451 315.421C503.386 315.503 503.369 315.569 503.287 315.717C503.237 315.832 503.139 315.997 503.073 316.178C502.974 316.393 502.908 316.59 502.81 316.87L502.744 317.068C502.727 317.134 502.744 317.068 502.744 317.052L502.76 316.969L502.842 316.623L503.007 315.915L503.649 313.114C503.863 312.175 504.044 311.236 504.241 310.297C504.653 308.418 504.966 306.524 505.311 304.629C505.492 303.69 505.624 302.734 505.772 301.779C505.92 300.823 506.085 299.884 506.2 298.928C506.76 295.122 507.188 291.284 507.533 287.428C507.862 283.573 508.076 279.718 508.241 275.846C508.373 271.974 508.406 268.102 508.34 264.247C508.29 260.375 508.126 256.52 507.862 252.664C507.615 248.826 507.27 245.003 506.809 241.23C506.579 239.352 506.315 237.49 506.035 235.678C505.904 234.772 505.756 233.882 505.608 233.009L505.377 231.757L505.196 230.867L548.104 221.278Z" fill="#EA9B7A"/>
<path d="M502.235 231.905L494.401 291.382C506.103 297.94 517.196 302.635 527.401 304.497L502.235 231.905Z" fill="#A92F4B"/>
<path d="M518.871 323.856C518.707 323.856 518.526 323.823 518.377 323.724C512.288 320.412 503.91 317.628 503.828 317.595C503.285 317.414 502.988 316.821 503.169 316.277C503.351 315.733 503.943 315.437 504.486 315.618C504.832 315.733 513.127 318.485 519.381 321.895C519.892 322.175 520.073 322.801 519.793 323.312C519.595 323.658 519.25 323.856 518.871 323.856Z" fill="#D46A43"/>
<path d="M504.734 317.842C504.207 317.842 503.763 317.447 503.697 316.919C503.631 316.343 504.042 315.832 504.619 315.766C508.947 315.288 514.626 315.255 514.856 315.255C515.432 315.255 515.893 315.717 515.893 316.293C515.893 316.87 515.432 317.331 514.856 317.348C514.79 317.348 509.046 317.381 504.832 317.842C504.816 317.842 504.767 317.842 504.734 317.842Z" fill="#D46A43"/>
<path d="M392.043 562.029L381.229 579.691L360.639 570.58L369.988 551.583L392.043 562.029Z" fill="#EA9B7A"/>
<path d="M295.447 580.614L373.314 615.114C374.351 614.323 375.338 612.956 376.26 611.242C379.667 604.866 382.218 593.416 384.127 586.315C384.341 585.491 384.555 584.716 384.769 584.024C385.115 582.855 385.444 581.883 385.74 581.207C388.127 575.787 382.942 574.6 382.942 574.6C371.635 578.851 367.849 563.298 360.953 564.781C360.953 564.781 357.99 565.39 349.35 568.224C340.709 571.058 328.562 570.069 317.962 569.855C304.269 569.575 298.854 572.953 296.747 575.984C295.052 578.406 295.447 580.614 295.447 580.614Z" fill="#FFD147"/>
<path d="M295.448 580.615L373.314 615.115C374.351 614.324 375.339 612.957 376.261 611.243L296.731 576.001C295.053 578.407 295.448 580.615 295.448 580.615Z" fill="#FF9A2C"/>
<path d="M365.366 611.588L367.687 612.61C366.551 608.952 366.173 603.943 369.02 598.276C372.806 590.746 379.718 587.599 384.113 586.314C384.327 585.491 384.541 584.716 384.755 584.024C380.13 585.145 371.736 588.341 367.21 597.37C364.494 602.79 364.477 607.716 365.366 611.588Z" fill="#FF9A2C"/>
<path d="M348.612 573.415C349.188 573.662 349.879 573.514 350.291 572.987C350.768 572.377 350.653 571.487 350.044 571.01L345.715 567.648C345.106 567.171 344.217 567.286 343.74 567.896C343.263 568.505 343.378 569.395 343.987 569.873L348.316 573.234C348.414 573.316 348.513 573.382 348.612 573.415Z" fill="white"/>
<path d="M355.236 571.503C355.812 571.75 356.503 571.602 356.914 571.075C357.392 570.465 357.276 569.575 356.667 569.098L352.339 565.737C351.73 565.259 350.841 565.374 350.364 565.984C349.886 566.593 350.002 567.483 350.611 567.961L354.939 571.322C355.038 571.404 355.137 571.47 355.236 571.503Z" fill="white"/>
<path d="M342.499 574.09C343.075 574.337 343.766 574.189 344.178 573.662C344.655 573.052 344.54 572.163 343.931 571.685L339.602 568.324C338.993 567.846 338.105 567.961 337.627 568.571C337.15 569.181 337.265 570.07 337.874 570.548L342.203 573.909C342.302 573.991 342.4 574.057 342.499 574.09Z" fill="white"/>
<path d="M336.428 574.667C337.004 574.914 337.695 574.766 338.107 574.239C338.584 573.629 338.469 572.74 337.86 572.262L333.531 568.901C332.922 568.423 332.034 568.538 331.556 569.148C331.079 569.757 331.194 570.647 331.803 571.125L336.132 574.486C336.231 574.552 336.329 574.618 336.428 574.667Z" fill="white"/>
<path d="M330.017 574.832C330.593 575.079 331.285 574.93 331.696 574.403C332.173 573.794 332.058 572.904 331.449 572.426L327.12 569.065C326.512 568.587 325.623 568.703 325.145 569.312C324.668 569.922 324.783 570.811 325.392 571.289L329.721 574.65C329.82 574.733 329.918 574.782 330.017 574.832Z" fill="white"/>
<path d="M323.309 574.419C323.885 574.666 324.577 574.518 324.988 573.991C325.465 573.381 325.35 572.492 324.741 572.014L320.413 568.653C319.804 568.175 318.915 568.29 318.438 568.9C317.96 569.509 318.075 570.399 318.684 570.877L323.013 574.238C323.112 574.32 323.211 574.386 323.309 574.419Z" fill="white"/>
<path d="M440.385 391.554C447.61 384.437 504.624 368.521 542.479 379.098C546.824 387.452 552.338 408.623 538.776 428.213C489.021 436.352 461.255 453.107 461.255 453.107C461.255 453.107 443.611 493.918 433.126 508.894C422.642 523.871 398.596 571.436 398.596 571.436L362.37 555.949C362.37 555.949 420.716 410.93 440.385 391.554Z" fill="#39393B"/>
<path d="M402.46 562.475C402.328 562.475 402.197 562.442 402.065 562.392L366.613 547.646C366.086 547.432 365.823 546.806 366.053 546.279C366.267 545.752 366.876 545.488 367.419 545.719L402.871 560.465C403.398 560.679 403.661 561.305 403.431 561.832C403.25 562.227 402.871 562.475 402.46 562.475Z" fill="#585859"/>
<path d="M396.502 559.492C396.37 559.492 396.238 559.476 396.123 559.426C395.58 559.212 395.333 558.602 395.53 558.075C395.596 557.894 403.019 539.359 420.318 513.08C437.501 486.982 455.474 442.844 455.655 442.399C455.869 441.872 456.478 441.608 457.021 441.822C457.547 442.036 457.811 442.646 457.597 443.19C457.416 443.635 439.377 487.954 422.079 514.233C404.896 540.331 397.555 558.668 397.489 558.849C397.308 559.245 396.913 559.492 396.502 559.492Z" fill="#585859"/>
<path d="M509.28 636C632.889 636 733.094 629.905 733.094 622.386C733.094 614.868 632.889 608.773 509.28 608.773C385.672 608.773 285.467 614.868 285.467 622.386C285.467 629.905 385.672 636 509.28 636Z" fill="#9DA0AB"/>
<path d="M483.447 565.143L480.714 585.672H458.199L459.071 564.534L483.447 565.143Z" fill="#EA9B7A"/>
<path d="M402.654 621.276H487.812C488.438 620.122 488.783 618.491 488.931 616.547C489.458 609.331 487.17 597.831 486.035 590.581C485.903 589.741 485.788 588.95 485.689 588.225C485.524 587.006 485.442 586.001 485.442 585.26C485.442 579.345 480.208 580.35 480.208 580.35C471.584 588.802 461.84 576.116 456.145 580.284C456.145 580.284 453.693 582.047 446.928 588.127C440.164 594.223 428.675 598.226 418.882 602.329C406.242 607.617 402.67 612.89 401.963 616.531C401.403 619.414 402.654 621.276 402.654 621.276Z" fill="#FFD147"/>
<path d="M402.651 621.275H487.809C488.434 620.122 488.78 618.491 488.928 616.547H401.943C401.4 619.413 402.651 621.275 402.651 621.275Z" fill="#FF9A2C"/>
<path d="M479.116 621.276H481.65C479.132 618.393 476.762 613.961 477.075 607.634C477.486 599.215 482.539 593.531 486.045 590.582C485.913 589.741 485.798 588.951 485.699 588.226C481.914 591.125 475.544 597.452 475.05 607.535C474.738 613.565 476.729 618.08 479.116 621.276Z" fill="#FF9A2C"/>
<path d="M448.366 593.152C448.991 593.152 449.567 592.724 449.732 592.081C449.913 591.323 449.469 590.565 448.711 590.384L443.395 589.066C442.638 588.885 441.881 589.33 441.7 590.088C441.519 590.845 441.98 591.603 442.72 591.785L448.037 593.103C448.135 593.136 448.251 593.152 448.366 593.152Z" fill="white"/>
<path d="M453.652 588.72C454.277 588.72 454.853 588.292 455.018 587.649C455.199 586.891 454.755 586.133 453.998 585.952L448.681 584.634C447.924 584.453 447.167 584.914 446.986 585.655C446.805 586.413 447.266 587.171 448.007 587.352L453.323 588.67C453.422 588.703 453.537 588.72 453.652 588.72Z" fill="white"/>
<path d="M443.04 596.249C443.665 596.249 444.242 595.82 444.406 595.178C444.587 594.42 444.143 593.662 443.386 593.481L438.069 592.163C437.312 591.981 436.555 592.426 436.374 593.184C436.193 593.942 436.638 594.7 437.395 594.881L442.711 596.199C442.81 596.232 442.925 596.249 443.04 596.249Z" fill="white"/>
<path d="M437.72 599.231C438.346 599.231 438.922 598.802 439.086 598.16C439.267 597.402 438.823 596.644 438.066 596.463L432.75 595.145C431.993 594.964 431.236 595.408 431.055 596.166C430.873 596.924 431.334 597.682 432.075 597.863L437.391 599.181C437.49 599.214 437.605 599.231 437.72 599.231Z" fill="white"/>
<path d="M431.915 601.982C432.54 601.982 433.116 601.554 433.281 600.911C433.462 600.153 433.001 599.396 432.26 599.214L426.944 597.896C426.187 597.715 425.43 598.16 425.249 598.918C425.068 599.676 425.529 600.434 426.269 600.615L431.585 601.933C431.684 601.966 431.799 601.982 431.915 601.982Z" fill="white"/>
<path d="M425.633 604.323C426.258 604.323 426.834 603.895 426.999 603.252C427.18 602.494 426.736 601.736 425.978 601.555L420.662 600.237C419.905 600.056 419.148 600.501 418.967 601.258C418.786 602.016 419.247 602.774 419.987 602.955L425.304 604.273C425.402 604.306 425.518 604.323 425.633 604.323Z" fill="white"/>
<path d="M654.061 395.262C654.028 395.608 653.979 395.938 653.946 396.251C653.765 396.383 653.6 396.514 653.436 396.646C640.219 406.795 624.797 413.55 609.046 417.389C608.487 417.521 607.943 417.653 607.384 417.785C604.685 418.411 601.969 418.954 599.253 419.399C595.583 420.009 591.912 420.487 588.275 420.8C585.049 421.08 581.84 421.261 578.68 421.31C565.052 421.558 552.131 419.778 541.203 416.302C540.791 416.17 540.363 416.038 539.952 415.89C537.055 414.918 534.323 413.83 531.755 412.628C531.36 412.446 530.965 412.265 530.587 412.067C528.99 411.293 527.46 410.453 526.011 409.58C526.242 404.324 526.307 398.03 526.258 391.308C526.258 390.748 526.258 390.188 526.242 389.627C526.143 380.269 525.863 370.17 525.501 360.943C525.468 360.498 525.452 360.07 525.452 359.642C525.254 354.814 525.024 350.234 524.826 346.164C524.793 345.736 524.777 345.291 524.76 344.879C524.579 341.436 524.398 338.355 524.234 335.834C524.184 335.192 524.151 334.565 524.102 333.923C524.069 333.429 524.036 332.934 524.003 332.457C523.872 330.677 523.723 328.947 523.575 327.234C523.345 324.499 523.081 321.846 522.802 319.276C522.473 316.343 522.127 313.476 521.765 310.725C521.353 307.759 520.942 304.893 520.497 302.141C520.02 299.192 519.526 296.358 519 293.64C517.173 284.051 515.115 275.813 513.058 268.695C512.91 268.201 512.778 267.74 512.63 267.246C511.791 264.412 510.968 261.792 510.161 259.321C509.98 258.777 509.799 258.25 509.635 257.706C505.059 244.114 501.274 235.909 501.208 230.406C501.076 218.955 509.437 215.281 518.16 210.668C518.572 210.454 518.983 210.239 519.395 210.009C520.86 209.218 522.341 208.378 523.756 207.471C524.365 207.093 524.958 206.697 525.534 206.285C525.945 206.005 526.324 205.709 526.702 205.428C530.159 202.759 533.187 199.415 535.162 194.67L568.129 187.717C568.129 187.717 571.289 189.348 576.573 190.765C577.067 190.897 577.577 191.029 578.12 191.16C578.745 191.309 579.387 191.457 580.062 191.589C580.474 191.671 580.918 191.754 581.346 191.836C581.675 191.902 582.021 191.968 582.366 192.017C585.526 192.511 589.18 192.825 593.311 192.742C593.723 192.726 594.151 192.726 594.562 192.709C594.859 192.693 595.155 192.676 595.451 192.676C598.249 192.528 600.915 192.89 603.483 193.714C603.977 193.862 604.454 194.044 604.931 194.241C615.646 198.525 624.073 211.343 629.521 231.032C631.035 236.502 632.533 241.84 633.981 247.046C634.146 247.623 634.294 248.183 634.459 248.743C634.771 249.88 635.084 251.017 635.397 252.154C635.512 252.566 635.627 252.978 635.742 253.389C636.862 257.426 637.948 261.413 639.001 265.351C639.001 265.351 639.001 265.351 639.001 265.367C639.116 265.779 639.232 266.208 639.33 266.619C639.33 266.619 639.33 266.619 639.33 266.636C639.396 266.867 639.446 267.081 639.511 267.295L640.104 269.602C643.758 283.688 646.803 297.264 648.761 310.956C649.173 313.806 649.535 316.656 649.831 319.523C649.913 320.215 649.996 320.989 650.078 321.863C650.095 322.027 650.111 322.176 650.127 322.34C650.16 322.637 650.193 322.934 650.226 323.247C650.243 323.395 650.259 323.56 650.276 323.708C650.802 328.898 651.477 336.081 652.152 344.006C652.185 344.418 652.234 344.846 652.267 345.275C653.781 363.662 655.147 385.607 654.061 395.262Z" fill="#FE5A5D"/>
<path d="M553.732 214.061C566.899 211.276 574.009 194.801 574.305 194.076C574.503 193.598 574.289 193.038 573.811 192.84C573.334 192.642 572.774 192.856 572.577 193.334C572.511 193.499 565.286 210.288 552.579 212.347C540.087 214.374 535.117 205.18 534.903 204.785C534.656 204.324 534.096 204.142 533.635 204.389C533.174 204.637 532.993 205.197 533.24 205.658C533.29 205.773 539.017 216.466 552.892 214.209C553.172 214.176 553.452 214.11 553.732 214.061Z" fill="#A92F4B"/>
<path d="M567.08 389.43C579.457 386.826 592.246 380.45 605.034 370.449C622.579 356.725 634.1 340.81 634.216 340.645C634.512 340.216 634.43 339.64 634.002 339.327C633.574 339.03 632.981 339.113 632.685 339.541C632.57 339.706 621.18 355.424 603.849 368.983C587.95 381.422 563.624 394.537 538.079 386.365C537.586 386.2 537.059 386.48 536.894 386.975C536.73 387.469 537.01 387.996 537.503 388.161C546.918 391.176 556.859 391.588 567.08 389.43Z" fill="#A92F4B"/>
<path d="M559.676 379.972C559.692 379.972 559.692 379.972 559.676 379.972C578.965 375.573 589.318 346.444 589.762 345.208C589.927 344.714 589.68 344.186 589.186 344.005C588.693 343.84 588.166 344.088 587.985 344.582C587.886 344.878 577.534 373.958 559.281 378.126C558.77 378.242 558.458 378.753 558.573 379.263C558.688 379.758 559.182 380.071 559.676 379.972Z" fill="#A92F4B"/>
<path d="M524.065 333.907C526.452 332.259 528.707 330.216 530.484 327.893C534.78 322.291 535.356 316.558 532.114 311.747C531.455 310.791 530.863 309.918 530.303 309.094C523.67 299.407 522.979 298.401 523.555 282.469C523.736 277.461 522.321 273.507 519.358 270.772C517.366 268.91 514.931 267.839 512.593 267.213C512.741 267.691 512.873 268.168 513.021 268.663C514.963 269.256 516.906 270.211 518.502 271.694C521.185 274.182 522.452 277.807 522.288 282.437C521.695 298.78 522.551 300.033 529.25 309.819C529.809 310.643 530.402 311.516 531.06 312.472C535.01 318.288 531.768 324.153 529.48 327.135C527.949 329.129 526.024 330.941 523.966 332.44C523.999 332.918 524.049 333.412 524.065 333.907Z" fill="#A92F4B"/>
<path d="M650.27 323.642C647.703 325.142 645.217 326.081 642.847 326.591C636.445 327.942 630.898 325.998 627.327 322.407C623.064 318.106 621.402 310.709 626.487 304.909C631.392 299.291 629.285 296.309 626.619 292.52C623.986 288.796 620.71 284.15 624.117 275.994C626.076 271.299 629.088 268.086 633.071 266.471C635.062 265.664 637.087 265.335 638.996 265.285C639.111 265.697 639.226 266.125 639.325 266.537C637.465 266.554 635.474 266.85 633.532 267.641C629.878 269.124 627.096 272.106 625.269 276.472C622.126 283.985 624.94 287.939 627.639 291.778C630.388 295.683 632.989 299.374 627.425 305.717C623.327 310.396 623.64 316.887 628.215 321.484C632.824 326.13 641.037 327.745 650.122 322.225C650.155 322.522 650.188 322.818 650.221 323.132C650.237 323.329 650.254 323.494 650.27 323.642Z" fill="#A92F4B"/>
<path d="M564.284 328.387C567.461 333.857 574.341 336.477 580.628 334.648C581.582 334.368 582.586 334.005 583.59 333.577C591.672 330.117 600.987 321.962 604.559 312.472C607.308 305.156 606.468 297.66 602.107 290.822C595.655 280.706 591.919 271.299 591.293 263.654C590.915 259.123 587.804 255.614 583.377 254.708C578.916 253.801 574.67 255.812 572.547 259.832C572.431 260.046 572.316 260.26 572.201 260.474C566.769 271.085 570.012 278.762 572.876 285.534C575.871 292.618 578.455 298.731 570.275 306.672C562.836 313.889 560.597 322.011 564.284 328.387ZM571.164 307.562C579.986 299.011 577.089 292.206 574.044 285.023C571.148 278.186 568.169 271.134 573.337 261.034C573.452 260.82 573.551 260.606 573.666 260.408C574.653 258.546 576.151 257.179 577.929 256.421C579.509 255.746 581.303 255.548 583.13 255.927C587.014 256.734 589.73 259.799 590.059 263.753C590.437 268.201 591.738 273.062 593.992 278.317C595.77 282.486 598.14 286.868 601.07 291.482C605.267 298.072 606.04 304.975 603.407 312.027C599.539 322.341 588.61 331.007 580.299 333.429C574.538 335.109 568.284 332.72 565.387 327.745C561.996 321.912 564.153 314.366 571.164 307.562Z" fill="#A92F4B"/>
<path d="M509.59 257.673C509.771 258.2 509.936 258.727 510.117 259.271C514.512 261.034 518.561 260.968 521.786 260.276C523.432 259.93 524.864 259.419 526.033 258.925C534.081 255.449 539.546 247.985 539.414 243.471C539.364 241.774 538.509 240.538 537.011 239.995C528.354 236.831 524.831 231.114 523.515 218.115C523.153 214.589 521.754 211.854 519.334 209.959C518.923 210.173 518.511 210.388 518.1 210.618C518.198 210.684 518.297 210.767 518.412 210.849C520.634 212.513 521.918 215.001 522.247 218.247C523.613 231.839 527.366 237.836 536.566 241.181C537.587 241.56 538.097 242.318 538.13 243.504C538.245 247.606 532.88 254.576 525.506 257.772C522.116 259.271 516.207 260.738 509.59 257.673Z" fill="#A92F4B"/>
<path d="M554.282 259.766C555.829 261.446 558.331 262.072 560.816 261.561C561.639 261.38 562.462 261.084 563.235 260.655C567.218 258.448 568.7 253.834 567.202 248.331C565.638 242.598 568.617 239.846 571.498 237.194C574.032 234.871 576.633 232.465 574.576 228.346C572.996 225.183 570.066 223.7 566.149 224.063C561.524 224.507 557.475 227.341 555.302 231.658C551.615 238.957 548.077 253.043 554.282 259.766ZM556.421 232.218C558.166 228.742 561.376 226.254 564.98 225.496C565.408 225.414 565.836 225.348 566.264 225.298C569.687 224.969 572.107 226.188 573.456 228.89C575.102 232.169 573.226 233.882 570.642 236.255C567.778 238.891 564.223 242.169 565.984 248.644C567.317 253.554 566.066 257.624 562.626 259.535C560.042 260.968 556.849 260.705 555.203 258.909C549.443 252.665 552.883 239.22 556.421 232.218Z" fill="#A92F4B"/>
<path d="M535.765 304.365C536.473 307.693 537.806 310.395 540.11 311.746C543.567 313.772 546.957 314.563 549.459 314.036C550.545 313.805 551.451 313.327 552.142 312.602C554.183 310.411 553.508 306.473 550.299 301.794C546.579 296.374 549.838 292.93 553.31 289.273C556.257 286.159 559.318 282.946 557.606 278.547C556.372 275.384 553.541 273.917 549.41 274.28C542.481 274.906 536.769 280.475 535.831 287.543C535.091 293.046 534.712 299.405 535.765 304.365ZM537.066 287.724C537.461 284.742 538.777 282.056 540.687 279.964C542.612 277.872 545.13 276.372 547.945 275.779C548.455 275.664 548.965 275.598 549.508 275.548C553.113 275.235 555.384 276.356 556.421 279.008C557.853 282.666 555.203 285.467 552.405 288.416C548.916 292.09 544.966 296.259 549.262 302.519C552.109 306.655 552.833 310.032 551.22 311.746C549.426 313.673 545.13 313.229 540.752 310.658C536.736 308.302 535.42 300.147 537.066 287.724Z" fill="#A92F4B"/>
<path d="M525.477 360.927C530.53 359.099 532.225 361.636 534.677 365.31C536.883 368.589 539.615 372.675 545.754 374.124C547.844 374.619 549.852 374.602 551.745 374.207C556.699 373.169 560.748 369.462 562.69 365.31C565.307 359.725 564.155 354.156 559.662 350.762C557.703 349.295 556.683 347.895 556.485 346.495C556.222 344.518 557.703 342.606 559.283 340.58C561.472 337.762 563.958 334.583 562.048 330.497C560.551 327.284 557.736 325.373 554.115 325.093C548.091 324.648 541.343 328.734 536.916 335.472C533.13 341.239 528.341 343.76 524.703 344.847C524.72 345.259 524.753 345.704 524.769 346.132C528.67 345.012 533.887 342.359 537.953 336.164C541.31 331.057 546.034 327.564 550.642 326.592C551.778 326.345 552.914 326.262 554.016 326.345C557.16 326.575 559.596 328.239 560.896 331.024C562.46 334.401 560.419 337.021 558.263 339.789C556.6 341.931 554.872 344.139 555.201 346.643C555.432 348.389 556.633 350.053 558.855 351.75C563.612 355.342 563.349 360.828 561.505 364.766C559.036 370.038 552.914 374.52 546.001 372.889C540.339 371.554 537.854 367.864 535.681 364.601C533.229 360.927 531.089 357.731 525.378 359.609C525.444 360.054 525.46 360.482 525.477 360.927Z" fill="#A92F4B"/>
<path d="M589.483 345.654C589.911 347.845 591.227 349.344 593.17 349.871C594.206 350.151 595.359 350.151 596.577 349.904C599.292 349.328 602.271 347.482 604.707 344.714C607.209 341.881 609.711 342.243 613.167 342.737C616.525 343.215 620.705 343.825 626.038 341.403C631.963 338.701 632.951 333.099 631.371 329.03C629.922 325.355 626.021 322.159 620.853 323.873C617.15 325.092 614.747 326.987 612.607 328.634C609.349 331.171 606.551 333.363 600.115 332.967C596.922 332.769 594.355 333.626 592.528 335.504C588.973 339.146 589.45 345.324 589.466 345.571C589.483 345.621 589.483 345.637 589.483 345.654ZM590.717 345.456C590.684 344.978 590.388 339.508 593.433 336.394C594.996 334.796 597.218 334.071 600.033 334.236C606.929 334.648 610.056 332.226 613.365 329.639C615.521 327.959 617.743 326.229 621.248 325.059C625.643 323.609 628.968 326.344 630.186 329.491C631.568 333.017 630.696 337.893 625.511 340.249C620.508 342.523 616.689 341.979 613.332 341.502C611.39 341.222 609.612 340.974 607.9 341.337C606.468 341.633 605.102 342.375 603.753 343.891C600.576 347.482 596.346 349.459 593.482 348.685C592.017 348.257 591.063 347.153 590.717 345.456Z" fill="#A92F4B"/>
<path d="M644.589 375.969C640.276 383.119 642.087 391.077 646.366 394.652C648.424 396.366 650.859 397.041 653.444 396.646C653.608 396.514 653.773 396.382 653.954 396.25C654.003 395.937 654.036 395.608 654.085 395.262C651.551 395.871 649.181 395.361 647.173 393.68C643.321 390.451 641.692 383.185 645.675 376.628C649.707 369.971 646.531 367.912 643.173 365.737C640.095 363.727 636.886 361.668 637.38 355.687C637.627 352.738 638.812 350.365 640.935 348.635C642.778 347.136 645.132 346.263 647.436 345.769C649.148 345.406 650.843 345.258 652.291 345.208C652.258 344.78 652.226 344.368 652.193 343.94C648.621 344.072 643.634 344.813 640.145 347.663C637.758 349.607 636.409 352.276 636.145 355.588C635.602 362.31 639.437 364.798 642.515 366.792C645.79 368.933 647.979 370.367 644.589 375.969Z" fill="#A92F4B"/>
<path d="M539.955 415.873C540.367 416.021 540.778 416.153 541.206 416.285C541.256 414.341 541.716 410.172 544.597 407.372C547 405.048 550.588 404.126 555.262 404.637C561.467 405.329 564.282 407.899 566.75 410.172C570.914 413.995 573.811 415.807 584.674 408.706C588.805 406.004 592.64 404.422 595.981 403.714C601.38 402.577 605.527 403.697 607.7 405.938C610.366 408.69 610.235 413.056 607.387 417.768C607.947 417.636 608.49 417.504 609.05 417.372C611.634 412.528 611.502 408.031 608.622 405.048C604.754 401.061 595.405 400.172 583.999 407.635C573.416 414.571 571.227 412.561 567.606 409.233C565.121 406.943 562.01 404.093 555.394 403.368C550.324 402.808 546.391 403.846 543.708 406.465C540.68 409.447 540.054 413.616 539.955 415.873Z" fill="#A92F4B"/>
<path d="M610.608 395.608C612.188 398.986 617.389 401.77 622.244 400.749C622.458 400.699 622.672 400.65 622.87 400.584C630.276 398.491 634.539 392.478 634.868 383.663C635.115 376.842 634.49 370.153 628.186 367.253C628.153 367.237 628.12 367.221 628.071 367.221C627.775 367.155 620.796 365.458 616.451 368.407C614.624 369.642 613.538 371.521 613.225 373.959C612.649 378.276 613.966 380.928 614.904 382.856C616.089 385.228 616.616 386.316 612.995 388.787C610.312 390.649 609.44 393.137 610.608 395.608ZM613.702 389.858C618.015 386.909 617.389 385.08 616.039 382.329C615.118 380.451 613.949 378.094 614.459 374.157C614.739 372.081 615.644 370.499 617.159 369.461C620.862 366.94 627.067 368.291 627.709 368.44C632.219 370.532 633.93 374.948 633.601 383.614C633.387 389.43 631.28 396.893 622.524 399.381C618.163 400.6 613.143 398.08 611.744 395.081C610.839 393.153 611.513 391.357 613.702 389.858Z" fill="#A92F4B"/>
<path d="M530.587 412.051C530.966 412.249 531.361 412.43 531.756 412.612C534.389 409.531 535.476 406.169 534.966 402.66C534.143 396.96 529.386 392.182 526.242 389.611C526.259 390.172 526.259 390.732 526.259 391.292C529.188 393.879 533.04 398.063 533.731 402.841C534.192 406.038 533.171 409.086 530.703 411.936C530.653 411.969 530.62 412.018 530.587 412.051Z" fill="#A92F4B"/>
<path d="M506.346 137.894C506.346 137.894 487.666 133.94 487.221 126.806C486.826 120.216 494.595 120.908 494.595 120.908C494.595 120.908 485.526 106.014 490.727 103.098C495.928 100.165 502.495 108.518 502.495 108.518C502.495 108.518 497.739 90.8561 504.092 92.1248C510.445 93.3934 511.268 103.098 511.268 103.098C511.268 103.098 532.384 95.5682 544.383 99.1764C552.563 101.631 554.489 109.507 554.489 109.507C554.489 109.507 559.344 106.607 562.8 108.386C566.24 110.166 563.097 116.229 563.097 116.229C563.097 116.229 568.429 120.331 566.8 126.856C565.17 133.38 560.513 146.264 560.513 146.264L506.346 137.894Z" fill="#39393B"/>
<path d="M532.704 189.793L534.515 198.394C535.683 198.987 536.852 199.481 538.004 199.877C554.792 205.692 568.535 191.21 568.535 191.21L562.264 161.422L536.227 186.416L532.704 189.793Z" fill="#EA9B7A"/>
<path d="M532.704 189.794L534.515 198.394C535.683 198.987 536.852 199.482 538.004 199.877C549.64 192.166 556.076 176.893 556.076 176.893L536.243 186.416L532.704 189.794Z" fill="#39393B"/>
<path d="M516.175 120.217C516.175 120.217 495.848 126.543 507.913 146.693C507.896 146.677 517.837 125.785 516.175 120.217Z" fill="#39393B"/>
<path d="M513.971 153.974C513.971 153.974 507.881 149.229 506.334 155.589C504.787 161.932 509.362 173.152 516.39 169.692L513.971 153.974Z" fill="#D46A43"/>
<path d="M513.022 175.295C513.022 175.295 516.742 193.072 535.192 189.134C553.527 185.23 562.991 168.177 563.501 167.37C563.518 167.353 563.518 167.353 563.518 167.353L562.925 163.581L559.88 143.974L558.251 133.496C558.251 133.496 556.671 114.351 538.253 114.68C524.79 114.928 513.121 119.64 508.413 127.68C506.685 130.645 505.895 134.072 506.323 137.895L509.664 156.628L510.487 161.224L513.022 175.295Z" fill="#EA9B7A"/>
<path d="M520.845 165.541C520.845 165.541 531.23 164.47 536.316 161.554C536.316 161.554 538.587 171.703 529.815 172.576C522.771 173.285 520.845 165.541 520.845 165.541Z" fill="white"/>
<path d="M534.254 153.827C534.534 155.129 537.414 155.607 540.689 154.915C543.965 154.223 546.417 152.608 546.137 151.323C545.857 150.021 542.977 149.544 539.702 150.236C536.426 150.928 533.991 152.526 534.254 153.827Z" fill="#D46A43"/>
<path d="M510.503 161.206C510.963 161.157 511.457 161.074 511.951 160.976C515.226 160.284 517.679 158.669 517.399 157.384C517.119 156.099 514.239 155.605 510.963 156.297C510.519 156.395 510.091 156.494 509.68 156.626L510.503 161.206Z" fill="#D46A43"/>
<path d="M532.957 146.661C533.336 148.44 534.439 149.709 535.426 149.495C536.414 149.28 536.924 147.682 536.545 145.903C536.167 144.123 535.064 142.855 534.077 143.069C533.089 143.283 532.579 144.881 532.957 146.661Z" fill="#39393B"/>
<path d="M515.388 150.367C515.767 152.146 516.87 153.415 517.857 153.201C518.845 152.987 519.355 151.388 518.976 149.609C518.598 147.83 517.495 146.561 516.508 146.775C515.52 146.989 515.01 148.588 515.388 150.367Z" fill="#39393B"/>
<path d="M526.296 157.402C526.708 157.32 526.955 156.925 526.872 156.513C526.79 156.117 526.395 155.854 525.984 155.936C523.301 156.496 521.754 155.359 521.194 154.816C522.84 148.192 524.453 141.52 524.469 141.454C524.568 141.058 524.321 140.647 523.926 140.548C523.531 140.449 523.12 140.696 523.021 141.091C523.004 141.157 521.326 148.077 519.647 154.832C519.597 155.046 519.647 155.277 519.779 155.458C519.877 155.607 521.968 158.325 526.296 157.402Z" fill="#39393B"/>
<path d="M540.099 136.643C539.292 134.847 536.988 131.667 530.947 132.655C530.207 132.771 529.647 133.397 529.614 134.138C529.565 135.077 530.306 135.868 531.244 135.852C532.89 135.802 535.375 136.181 537.251 138.504C537.827 139.229 538.93 139.262 539.588 138.62L539.736 138.471C540.247 137.994 540.378 137.269 540.099 136.643Z" fill="#39393B"/>
<path d="M509.407 143.117C509.423 141.156 510.23 137.301 516.171 135.769C516.895 135.587 517.653 135.933 517.998 136.592C518.426 137.433 518.064 138.454 517.192 138.817C515.661 139.443 513.538 140.794 512.764 143.66C512.517 144.55 511.546 145.028 510.674 144.715L510.477 144.649C509.818 144.418 509.407 143.792 509.407 143.117Z" fill="#39393B"/>
<path d="M556.189 161.374C556.321 161.555 559.794 166.481 563.481 167.371C563.497 167.354 563.497 167.354 563.497 167.354L562.905 163.581C562.921 163.565 559.909 163.68 556.189 161.374Z" fill="#39393B"/>
<path d="M556.847 148.357C556.847 148.357 561.932 137.318 568.713 143.727C574.293 148.999 569.586 166.81 559.941 163.086L556.847 148.357Z" fill="#EA9B7A"/>
<path d="M560.334 159.987C560.696 159.905 560.96 159.559 560.927 159.18C560.202 151.799 565.716 147.993 565.947 147.845C566.292 147.614 566.375 147.153 566.144 146.807C565.914 146.461 565.453 146.379 565.107 146.593C564.844 146.774 558.606 151.025 559.429 159.312C559.462 159.724 559.84 160.02 560.252 159.987C560.268 160.004 560.301 160.004 560.334 159.987Z" fill="#39393B"/>
<path d="M566.192 154.123C566.406 154.073 566.587 153.942 566.702 153.727C566.883 153.365 566.752 152.904 566.373 152.722C566.027 152.541 562.983 151.025 560.909 152.063C560.547 152.245 560.382 152.689 560.563 153.068C560.744 153.431 561.189 153.596 561.567 153.414C562.752 152.821 565.007 153.711 565.698 154.073C565.846 154.139 566.027 154.156 566.192 154.123Z" fill="#39393B"/>
<path d="M508.441 127.681C508.704 128.274 509.083 128.752 509.576 129.097C513.955 132.113 522.151 128.982 529.492 124.896C536.832 120.81 543.548 125.358 543.548 125.358C542.955 133.348 550.477 132.393 550.098 138.439C549.72 144.486 551.909 151.883 551.909 151.883L556.385 150.302C556.813 147.419 558.607 145.211 559.875 143.975L558.245 133.497C558.245 133.497 556.665 114.352 538.248 114.681C524.817 114.928 513.132 119.624 508.441 127.681Z" fill="#39393B"/>
<path d="M645.939 379.676C645.939 379.676 663.517 449.088 572.385 449.088C523.716 449.088 500.575 444.393 500.575 444.393C500.575 444.393 499.406 487.411 497.135 505.567C494.864 523.724 486.848 568.933 486.848 568.933L448.515 571.899C448.515 571.899 442.393 414.391 465.879 399.892C489.366 385.393 523.156 384.965 581.157 379.38C581.174 379.38 633.25 370.565 645.939 379.676Z" fill="#39393B"/>
<path d="M481.611 556.345C481.529 556.345 481.446 556.329 481.364 556.312C480.804 556.18 480.459 555.62 480.591 555.06C485.89 532.9 487.997 501.168 489.676 475.663C491.338 450.521 492.342 437.291 494.943 434.985C497.823 432.448 506.349 433.354 520.487 434.853C538.015 436.715 564.481 439.532 593.037 436.253C607.225 434.622 618.088 429.07 625.346 419.728C638.365 402.972 635.386 379.461 635.353 379.231C635.271 378.654 635.682 378.127 636.242 378.061C636.818 377.979 637.345 378.391 637.411 378.951C637.542 379.939 640.554 403.549 626.992 420.997C619.372 430.8 608.031 436.632 593.268 438.329C564.481 441.641 537.867 438.807 520.256 436.929C508.093 435.627 498.498 434.606 496.309 436.55C495.815 436.995 494.827 439.153 493.823 448.693C493.066 455.744 492.457 465.037 491.75 475.812C490.054 501.399 487.948 533.23 482.598 555.554C482.5 556.032 482.072 556.345 481.611 556.345Z" fill="#585859"/>
<path d="M448.941 559.476C448.398 559.476 447.937 559.047 447.904 558.487C447.871 557.91 448.316 557.416 448.875 557.383L488.08 555.011C488.656 554.978 489.15 555.423 489.183 555.983C489.216 556.559 488.771 557.054 488.212 557.087L449.007 559.459C448.974 559.476 448.958 559.476 448.941 559.476Z" fill="#585859"/>
<path d="M554.396 399.545H439.563C439.3 399.545 439.086 399.331 439.086 399.068V384.915C439.086 384.651 439.3 384.437 439.563 384.437H554.396C554.66 384.437 554.874 384.651 554.874 384.915V399.068C554.874 399.331 554.66 399.545 554.396 399.545Z" fill="#CED3E6"/>
<path d="M427.005 399.546C422.644 399.546 418.842 396.613 417.706 392.395L396.046 311.219C394.729 306.26 398.466 301.383 403.584 301.383H455.43C458.919 301.383 461.997 303.706 462.951 307.084L488.89 399.529H427.005V399.546Z" fill="white"/>
<path d="M462.973 307.1L488.698 398.788H494.623L468.898 307.1C467.944 303.723 464.882 301.4 461.376 301.4H455.451C458.941 301.383 462.018 303.723 462.973 307.1Z" fill="#CED3E6"/>
<path d="M448.317 351.783C449.502 356.874 446.325 361.009 441.223 361.009C436.137 361.009 431.052 356.874 429.866 351.783C428.681 346.692 431.858 342.556 436.96 342.556C442.046 342.556 447.132 346.692 448.317 351.783Z" fill="#CED3E6"/>
<path d="M519.022 366.463C519.022 366.463 495.519 368.078 488.013 375.277L492.589 391.555C492.589 391.555 506.645 385.805 510.529 386.366C514.43 386.926 516.751 393.318 529.769 389.43L519.022 366.463Z" fill="#EA9B7A"/>
<path d="M519.139 365.391L521.789 364.304L524.537 363.15C526.381 362.376 528.208 361.569 530.051 360.745C533.721 359.114 537.359 357.433 540.98 355.687C548.205 352.211 555.299 348.52 562.129 344.615C568.96 340.694 575.576 336.542 581.6 332.094C583.098 330.973 584.579 329.853 585.995 328.716C587.41 327.563 588.776 326.41 590.093 325.24C592.677 322.9 595.047 320.495 596.907 318.155C597.829 317.002 598.652 315.832 599.261 314.811C599.804 313.871 600.33 312.833 600.791 311.664C601.713 309.341 602.437 306.589 602.931 303.574C603.902 297.511 603.935 290.509 603.309 283.342C602.684 276.158 601.417 268.744 599.754 261.38C598.915 257.689 597.96 253.999 596.923 250.357C596.397 248.529 595.854 246.716 595.294 244.937C595.014 244.047 594.718 243.157 594.438 242.284L594.01 241.016L593.796 240.406L593.697 240.126L593.648 239.994L593.632 239.945C588.677 229.598 593.039 217.175 603.375 212.216C613.711 207.257 626.121 211.623 631.076 221.97C631.553 222.975 631.948 223.996 632.261 225.018L632.886 227.176L633.051 227.753L633.182 228.214L633.429 229.104L633.874 230.817C634.153 231.954 634.433 233.058 634.696 234.178C635.223 236.402 635.717 238.61 636.161 240.818C637.083 245.25 637.873 249.682 638.548 254.163C639.881 263.126 640.786 272.237 640.901 281.661C640.967 286.373 640.803 291.168 640.375 296.045C639.93 300.938 639.173 305.93 637.939 311.038C636.688 316.145 634.927 321.368 632.326 326.574C631.01 329.177 629.479 331.748 627.685 334.235C625.94 336.641 624.163 338.717 622.336 340.678C618.682 344.566 614.913 347.795 611.111 350.744C607.309 353.66 603.458 356.28 599.59 358.718C591.854 363.562 584.036 367.681 576.152 371.454C568.269 375.211 560.319 378.605 552.32 381.752C548.32 383.317 544.304 384.833 540.256 386.282C538.231 387.007 536.207 387.716 534.166 388.408L531.088 389.446L527.878 390.484C520.916 392.724 513.444 388.902 511.189 381.933C509.05 375.293 512.407 368.208 518.76 365.589L519.139 365.391Z" fill="#EA9B7A"/>
<path d="M615.309 320.725C615.227 320.725 615.144 320.709 615.079 320.693C607.063 318.287 598.109 318.65 598.027 318.666C597.566 318.682 597.188 318.337 597.171 317.875C597.155 317.414 597.5 317.035 597.961 317.018C598.34 317.002 607.277 316.623 615.572 319.111C616 319.243 616.247 319.704 616.132 320.132C615.984 320.495 615.655 320.725 615.309 320.725Z" fill="#D46A43"/>
<path d="M600.035 318.633C599.805 318.633 599.574 318.534 599.41 318.352C599.113 318.006 599.146 317.496 599.492 317.183C602.487 314.596 606.24 313.459 606.405 313.41C606.833 313.278 607.293 313.525 607.425 313.97C607.557 314.398 607.31 314.86 606.865 314.991C606.833 315.008 603.277 316.079 600.562 318.418C600.43 318.567 600.232 318.633 600.035 318.633Z" fill="#D46A43"/>
<path d="M644.604 268.249L627.569 272.928L626.318 273.274L614.55 276.504L613.118 276.899L597.976 281.051L596.807 275.68L596.544 274.395L593.812 261.774L593.532 260.506L588.38 236.698C586.981 231.195 586.06 224.309 586.833 218.69C587.969 210.37 595.26 199.578 608.707 198.853C611.11 198.722 613.365 199.084 615.472 199.858C615.899 199.99 616.327 200.172 616.739 200.353C620.804 202.198 624.326 205.592 627.355 209.958C627.602 210.304 627.832 210.65 628.046 211.013C633.807 219.778 637.74 232.036 640.374 243.503C640.489 243.948 640.588 244.392 640.687 244.837C641.904 250.291 642.826 255.547 643.517 260.094C643.633 260.802 643.731 261.494 643.814 262.17C644.143 264.443 644.406 266.486 644.604 268.249Z" fill="#FE5A5D"/>
<path d="M643.514 260.093C641.489 258.248 638.757 256.963 634.544 257.721C629.54 258.61 625.607 256.996 624.027 253.388C622.825 250.686 623.385 247.522 625.31 246.039C629.162 243.074 635.07 243.321 640.683 244.837C640.584 244.392 640.485 243.947 640.37 243.502C634.61 242.036 628.586 241.937 624.537 245.034C622.726 246.435 621.887 248.873 622.183 251.394C622.282 252.234 622.512 253.075 622.858 253.898C624.701 258.067 629.162 259.961 634.774 258.956C639.3 258.133 641.802 259.895 643.81 262.169C643.728 261.51 643.629 260.818 643.514 260.093Z" fill="#A92F4B"/>
<path d="M625.728 222.827C622.239 217.769 624.856 214.424 628.049 211.03C627.835 210.668 627.605 210.322 627.358 209.976C623.984 213.518 620.577 217.588 624.692 223.552C627.539 227.687 628.247 231.048 626.65 232.778C624.856 234.706 620.544 234.261 616.182 231.691C612.166 229.318 610.866 221.179 612.496 208.757C612.891 205.775 614.207 203.089 616.117 200.997C616.314 200.782 616.528 200.568 616.742 200.37C616.33 200.189 615.903 200.008 615.475 199.876C613.22 202.199 611.706 205.214 611.245 208.575C610.537 214.062 610.158 220.438 611.195 225.381C611.903 228.709 613.236 231.411 615.54 232.778C618.997 234.805 622.404 235.596 624.889 235.068C625.975 234.838 626.897 234.36 627.572 233.635C629.613 231.444 628.938 227.506 625.728 222.827Z" fill="#A92F4B"/>
<path d="M593.849 260.671C591.051 244.014 587.513 228.428 587.48 228.263C587.398 227.934 587.068 227.719 586.739 227.802C586.41 227.884 586.196 228.214 586.278 228.543C586.311 228.708 589.834 244.212 592.615 260.786C592.796 261.429 593.849 261.462 593.849 260.671Z" fill="#A92F4B"/>
<path d="M589.335 240.57C589.22 240.57 589.105 240.537 589.006 240.471L582.587 236.353C582.307 236.171 582.209 235.792 582.406 235.496C582.587 235.199 582.966 235.117 583.262 235.315L589.681 239.433C589.961 239.615 590.06 239.994 589.862 240.29C589.747 240.471 589.533 240.57 589.335 240.57Z" fill="#A92F4B"/>
<path d="M642.088 546.13H519.009C516.129 546.13 513.791 543.791 513.791 540.907C513.791 538.024 516.129 535.685 519.009 535.685H642.088C644.969 535.685 647.306 538.024 647.306 540.907C647.306 543.791 644.969 546.13 642.088 546.13Z" fill="#19CEDA"/>
<path d="M507.683 625.824C507.453 625.824 507.222 625.808 506.992 625.775C504.144 625.396 502.136 622.76 502.515 619.909L524.932 452.351C525.278 449.764 527.483 447.82 530.1 447.82H630.516C633.132 447.82 635.338 449.764 635.684 452.351L657.755 619.926C658.133 622.776 656.125 625.412 653.262 625.775C650.414 626.154 647.781 624.144 647.419 621.277L625.94 458.249H534.659L512.851 621.293C512.489 623.929 510.251 625.824 507.683 625.824Z" fill="#02ACB7"/>
<path d="M559.188 453.042H624.398C645.053 453.042 667.191 441.723 670.351 421.293C674.597 393.96 675.634 367.5 674.465 343.215C673.132 315.75 662.467 290.245 640.889 273.226C640.889 273.226 650.205 379.165 641.795 408.426C630.586 447.523 559.188 453.042 559.188 453.042Z" fill="#19CEDA"/>
<defs>
<filter id="filter0_i_84_124" x="90.312" y="177.319" width="127.107" height="138.124" filterUnits="userSpaceOnUse" color-interpolation-filters="sRGB">
<feFlood flood-opacity="0" result="BackgroundImageFix"/>
<feBlend mode="normal" in="SourceGraphic" in2="BackgroundImageFix" result="shape"/>
<feColorMatrix in="SourceAlpha" type="matrix" values="0 0 0 0 0 0 0 0 0 0 0 0 0 0 0 0 0 0 127 0" result="hardAlpha"/>
<feOffset dy="4"/>
<feGaussianBlur stdDeviation="2"/>
<feComposite in2="hardAlpha" operator="arithmetic" k2="-1" k3="1"/>
<feColorMatrix type="matrix" values="0 0 0 0 0.917647 0 0 0 0 0.607843 0 0 0 0 0.478431 0 0 0 1 0"/>
<feBlend mode="normal" in2="shape" result="effect1_innerShadow_84_124"/>
</filter>
</defs>
</svg>
