<svg width="808" height="678" viewBox="0 0 808 678" fill="none" xmlns="http://www.w3.org/2000/svg">
<path opacity="0.8" d="M687.892 283.56C687.879 213.62 629.699 136.972 557.298 132.344C556.026 132.266 554.74 132.188 553.441 132.136C449.639 127.287 441.73 254.024 347.81 268.324C253.891 282.624 182.165 210.461 69.7917 257.534C-31.1406 299.823 -58.4776 537.411 238.073 546.94C475.339 554.558 687.918 492.249 687.892 283.56Z" fill="#FFD147" fill-opacity="0.25"/>
<path d="M783 255C783 382.495 681.8 485 558 485C434.2 485 333 382.495 333 255C333 127.505 434.2 25 558 25C681.8 25 783 127.505 783 255Z" stroke="#E5E0FF" stroke-width="50"/>
<path d="M658.949 166.661H670.718C671.783 166.661 672.639 165.786 672.639 164.695V100.494C672.639 99.4037 671.783 98.5281 670.718 98.5281H658.949C657.884 98.5281 657.028 99.4037 657.028 100.494V164.695C657.028 165.786 657.884 166.661 658.949 166.661Z" fill="#7DFFF7"/>
<path d="M661.274 134.924H668.377C669.41 134.924 670.266 134.065 670.266 132.991V132.182C670.266 131.124 669.426 130.249 668.377 130.249H661.274C660.241 130.249 659.385 131.108 659.385 132.182V132.991C659.401 134.065 660.241 134.924 661.274 134.924Z" fill="#02ACB7"/>
<path d="M657.028 104.03H672.639V106.657H657.028V104.03Z" fill="#02ACB7"/>
<path d="M657.028 109.531H672.639V112.158H657.028V109.531Z" fill="#02ACB7"/>
<path d="M657.028 150.14H672.639V152.767H657.028V150.14Z" fill="#02ACB7"/>
<path d="M657.028 155.642H672.639V158.269H657.028V155.642Z" fill="#02ACB7"/>
<path d="M688.717 166.661H703.358C703.617 166.661 703.843 166.447 703.843 166.166V99.0237C703.843 98.7594 703.633 98.5281 703.358 98.5281H688.717C688.458 98.5281 688.232 98.7429 688.232 99.0237V166.166C688.232 166.447 688.458 166.661 688.717 166.661Z" fill="#5842DB"/>
<path d="M692.494 134.924H699.597C700.631 134.924 701.486 134.065 701.486 132.991V132.182C701.486 131.124 700.647 130.249 699.597 130.249H692.494C691.461 130.249 690.606 131.108 690.606 132.182V132.991C690.606 134.065 691.461 134.924 692.494 134.924Z" fill="#380098"/>
<path d="M688.232 104.03H703.843V106.657H688.232V104.03Z" fill="#380098"/>
<path d="M688.232 109.531H703.843V112.158H688.232V109.531Z" fill="#380098"/>
<path d="M688.232 150.14H703.843V152.767H688.232V150.14Z" fill="#380098"/>
<path d="M688.232 155.642H703.843V158.269H688.232V155.642Z" fill="#380098"/>
<path d="M674.56 166.661H686.328C687.393 166.661 688.249 165.786 688.249 164.695V100.494C688.249 99.4037 687.393 98.5281 686.328 98.5281H674.56C673.494 98.5281 672.639 99.4037 672.639 100.494V164.695C672.639 165.786 673.494 166.661 674.56 166.661Z" fill="#FF5D8F"/>
<path d="M676.884 134.924H683.987C685.02 134.924 685.876 134.065 685.876 132.991V132.182C685.876 131.124 685.036 130.249 683.987 130.249H676.884C675.851 130.249 674.995 131.108 674.995 132.182V132.991C674.995 134.065 675.851 134.924 676.884 134.924Z" fill="#A92F4B"/>
<path d="M672.622 104.03H688.232V106.657H672.622V104.03Z" fill="#A92F4B"/>
<path d="M672.622 109.531H688.232V112.158H672.622V109.531Z" fill="#A92F4B"/>
<path d="M672.622 150.14H688.232V152.767H672.622V150.14Z" fill="#A92F4B"/>
<path d="M672.622 155.642H688.232V158.269H672.622V155.642Z" fill="#A92F4B"/>
<path d="M631.667 164.266L646.131 166.645C646.39 166.695 646.648 166.513 646.68 166.232L657.125 99.9489C657.173 99.6846 656.996 99.4202 656.721 99.3872L642.257 97.0081C641.999 96.9586 641.74 97.1403 641.708 97.4212L631.264 163.704C631.231 163.969 631.409 164.216 631.667 164.266Z" fill="#FFD147"/>
<path d="M638.883 133.305L648.779 134.941C649.005 134.974 649.215 134.825 649.263 134.594L649.861 130.827C649.893 130.596 649.748 130.381 649.522 130.331L639.626 128.696C639.4 128.663 639.19 128.811 639.142 129.043L638.544 132.81C638.512 133.041 638.657 133.272 638.883 133.305Z" fill="#FF9A2C"/>
<path d="M640.915 102.348L656.327 104.891L655.919 107.485L640.506 104.942L640.915 102.348Z" fill="#FF9A2C"/>
<path d="M640.059 107.784L655.471 110.327L655.062 112.921L639.65 110.377L640.059 107.784Z" fill="#FF9A2C"/>
<path d="M633.747 147.868L649.159 150.412L648.75 153.005L633.338 150.462L633.747 147.868Z" fill="#FF9A2C"/>
<path d="M632.886 153.3L648.298 155.843L647.889 158.437L632.477 155.893L632.886 153.3Z" fill="#FF9A2C"/>
<g opacity="0.8">
<g opacity="0.8">
<g opacity="0.8">
<path opacity="0.8" d="M591.535 184.917H732.901L736 176.508H588L591.535 184.917Z" fill="#CED3E6"/>
</g>
</g>
</g>
<path d="M588 166.513H736V176.508H588V166.513Z" fill="#39393B"/>
<path d="M720.923 176.508L716.968 185H707.637L704.973 176.508H720.923Z" fill="#39393B"/>
<path d="M603.078 176.508L607.033 185H616.364L619.012 176.508H603.078Z" fill="#39393B"/>
<g opacity="0.8">
<g opacity="0.8">
<path opacity="0.8" d="M662.205 523.388C664.114 530.226 660.14 537.324 653.309 539.235C646.478 541.146 639.387 537.168 637.478 530.33C635.569 523.492 639.543 516.394 646.374 514.483C653.205 512.559 660.296 516.55 662.205 523.388Z" fill="#BE99FF"/>
</g>
<g opacity="0.8">
<g opacity="0.8">
<path opacity="0.8" d="M683.758 512.752C684.724 516.213 682.713 519.806 679.255 520.773C675.797 521.741 672.208 519.727 671.242 516.266C670.276 512.805 672.287 509.212 675.745 508.245C679.203 507.271 682.792 509.291 683.758 512.752Z" fill="#BE99FF"/>
</g>
<g opacity="0.8">
<g opacity="0.8">
<path opacity="0.8" d="M726.758 484.752C727.724 488.213 725.713 491.806 722.255 492.773C718.797 493.741 715.208 491.727 714.242 488.266C713.276 484.805 715.287 481.212 718.745 480.245C722.203 479.271 725.792 481.291 726.758 484.752Z" fill="#BE99FF"/>
</g>
</g>
</g>
</g>
<path d="M422.665 658.092C280.328 658.092 164.941 651.074 164.941 642.416C164.941 633.758 280.328 626.74 422.665 626.74C565.001 626.74 680.388 633.758 680.388 642.416C680.388 651.074 565.001 658.092 422.665 658.092Z" fill="#9DA0AB"/>
<path d="M438.733 205.867L412.701 301.063L421.989 290.369C418.555 292.202 414.569 293.607 410.174 294.586C405.779 295.583 400.975 296.152 395.957 296.401C390.939 296.668 385.708 296.615 380.352 296.401C374.996 296.17 369.533 295.778 363.982 295.298H363.946C355.761 294.604 348.555 300.672 347.861 308.857C347.202 316.668 352.736 323.572 360.334 324.818C366.064 325.725 371.882 326.597 377.843 327.291C383.822 327.985 389.943 328.501 396.277 328.643C402.612 328.786 409.178 328.536 415.975 327.558C422.754 326.579 429.783 324.8 436.651 321.846C441.046 319.942 444.178 316.348 445.601 312.131L445.939 311.134L477.167 217.522C480.672 207.006 474.996 195.618 464.462 192.113C453.946 188.607 442.558 194.283 439.053 204.817C438.946 205.138 438.822 205.529 438.733 205.867Z" fill="#EA9B7A"/>
<path d="M428.714 550.957C429.106 550.957 429.497 550.886 429.889 550.743L566.259 501.58C568.039 500.939 568.964 498.964 568.323 497.185C567.683 495.405 565.708 494.462 563.928 495.12L427.558 544.284C425.778 544.925 424.835 546.9 425.494 548.679C425.974 550.085 427.309 550.957 428.714 550.957Z" fill="#FF9A2C"/>
<path d="M570.762 550.957C572.167 550.957 573.484 550.085 574 548.679C574.641 546.9 573.715 544.925 571.936 544.266L433.946 494.284C432.167 493.643 430.192 494.569 429.533 496.348C428.893 498.127 429.818 500.103 431.597 500.761L569.587 550.743C569.979 550.886 570.37 550.957 570.762 550.957Z" fill="#FF9A2C"/>
<path d="M416.579 638.822C419.48 638.822 422.006 636.669 422.416 633.715L447.042 449.782H550.121L574.373 633.715C574.8 636.936 577.754 639.213 580.975 638.786C584.196 638.359 586.473 635.406 586.046 632.185L561.117 443.163C560.726 440.227 558.235 438.038 555.281 438.038H441.882C438.928 438.038 436.437 440.227 436.046 443.145L410.725 632.167C410.298 635.388 412.558 638.359 415.779 638.786C416.063 638.804 416.312 638.822 416.579 638.822Z" fill="#FFD147"/>
<path d="M474.729 443.91H548.377C571.704 443.91 596.687 431.134 600.281 408.092C605.067 377.255 606.26 347.415 604.925 320.013C603.413 289.034 588.608 260.209 564.267 240.992C564.267 240.992 549.551 305.102 568.057 393.59C560.975 427.184 474.729 443.91 474.729 443.91Z" fill="#FFD147"/>
<path d="M478.357 69.7964C478.357 69.7964 489.357 61.2946 510.254 69.7964C525.472 75.9877 532.407 89.7947 532.407 124C531.019 169.419 566.857 193.795 566.857 193.795L526.001 201.421C525.984 201.403 474.194 106.395 478.357 69.7964Z" fill="#39393B"/>
<path d="M304.355 560.013H337.255C337.255 560.013 344.871 523.501 347.415 503.038C349.978 482.558 351.294 434.034 351.294 434.034C351.294 434.034 377.504 442.558 432.38 439.337C553.964 432.237 507.861 342.913 507.861 342.913C503.75 348.589 478.59 344.657 461.384 347.362C408.59 352.433 362.825 373.145 335.351 384.995C328.732 387.842 322.86 390.867 317.7 394.052C311.081 398.127 306.935 410.529 304.426 426.81C296.935 475.761 304.355 560.013 304.355 560.013Z" fill="#39393B"/>
<path d="M333.163 542.416C333.715 542.416 334.195 542.024 334.32 541.472C339.071 517.985 340.654 488.75 341.935 465.262C343.003 445.778 343.999 427.38 346.508 425.173C348.537 423.376 356.953 424.782 367.594 426.543C388.786 430.066 420.815 435.369 456.117 427.166C475.352 422.682 489.498 413.34 498.146 399.39C513.075 375.333 506.26 345.493 506.188 345.191C506.046 344.55 505.406 344.159 504.765 344.319C504.124 344.461 503.733 345.102 503.893 345.742C503.964 346.027 510.53 374.942 496.117 398.163C487.808 411.561 474.16 420.547 455.566 424.871C420.708 432.985 388.964 427.718 367.95 424.23C355.37 422.148 347.772 420.885 344.907 423.412C341.811 426.152 340.939 439.604 339.551 465.138C338.27 488.554 336.686 517.682 331.971 541.01C331.846 541.65 332.256 542.273 332.896 542.398C333.021 542.416 333.092 542.416 333.163 542.416Z" fill="#585859"/>
<path d="M303.732 543.038H303.749L340.333 542.255C340.992 542.237 341.508 541.704 341.49 541.045C341.472 540.387 340.938 539.871 340.28 539.889L303.696 540.672C303.038 540.689 302.522 541.223 302.54 541.882C302.557 542.522 303.091 543.038 303.732 543.038Z" fill="#585859"/>
<path d="M305.262 602.149H328.483L332.949 574.925L335.404 560.014H306.561L306.098 574.925L305.262 602.149Z" fill="#EA9B7A"/>
<path d="M305.262 602.149H328.483L331.81 581.882L332.949 574.925H306.099L305.867 582.131L305.262 602.149Z" fill="#FF5D8F"/>
<path d="M305.867 582.131L331.81 581.882L332.949 574.925H306.099L305.867 582.131Z" fill="#FFB0BE"/>
<path d="M247.966 638.822H335.778C336.436 637.629 336.792 635.957 336.935 633.946C337.486 626.508 335.12 614.658 333.963 607.185C333.821 606.313 333.696 605.494 333.607 604.765C333.447 603.519 333.34 602.469 333.34 601.704C333.34 595.601 327.949 596.651 327.949 596.651C319.07 605.37 308.998 592.291 303.127 596.579C303.127 596.579 302.895 596.757 302.344 597.167C301.845 597.558 301.098 598.163 300.066 599.035C298.571 600.281 296.472 602.096 293.625 604.658C286.65 610.939 274.799 615.067 264.71 619.284C263.429 619.818 262.237 620.37 261.116 620.903C260.279 621.313 259.479 621.722 258.731 622.113C250.475 626.562 247.86 630.832 247.255 633.928C246.667 636.918 247.966 638.822 247.966 638.822Z" fill="#5842DB"/>
<path d="M258.713 622.131C260.973 623.928 266.009 627.54 270.048 627.54C270.226 627.54 270.404 627.54 270.582 627.523C273.429 627.291 283.891 622.149 292.414 617.469C297.29 614.782 301.756 612.149 304.959 610.031C310.208 606.562 311.133 605.245 311.329 604.32C312.094 600.85 306.365 598.448 302.343 597.184C301.845 597.576 301.098 598.181 300.066 599.053C305.048 600.405 309.158 602.54 308.962 603.768C308.464 604.8 303.269 608.75 290.849 615.565C281.365 620.761 272.379 624.942 270.386 625.12C267.681 625.334 263.713 622.878 261.115 620.939C260.261 621.33 259.461 621.74 258.713 622.131Z" fill="#380098"/>
<path d="M247.966 638.821H335.778C336.436 637.629 336.792 635.957 336.935 633.946H247.237C246.667 636.917 247.966 638.821 247.966 638.821Z" fill="#380098"/>
<path d="M326.827 638.821H329.443C326.845 635.85 324.407 631.277 324.728 624.764C325.155 616.081 330.351 610.245 333.98 607.184C333.838 606.312 333.714 605.494 333.625 604.764C329.728 607.736 323.162 614.266 322.646 624.658C322.308 630.885 324.354 635.53 326.827 638.821Z" fill="#380098"/>
<path d="M295.101 609.854C295.742 609.854 296.347 609.409 296.507 608.75C296.703 607.967 296.222 607.185 295.457 606.989L289.977 605.619C289.194 605.423 288.411 605.903 288.215 606.669C288.019 607.451 288.5 608.234 289.265 608.43L294.745 609.8C294.87 609.836 294.995 609.854 295.101 609.854Z" fill="white"/>
<path d="M300.547 605.299C301.187 605.299 301.792 604.854 301.952 604.195C302.148 603.412 301.668 602.629 300.902 602.434L295.422 601.064C294.639 600.868 293.856 601.348 293.66 602.113C293.465 602.896 293.945 603.679 294.71 603.857L300.191 605.227C300.315 605.281 300.44 605.299 300.547 605.299Z" fill="white"/>
<path d="M289.621 613.039C290.261 613.039 290.866 612.594 291.027 611.935C291.222 611.153 290.742 610.37 289.977 610.192L284.496 608.822C283.713 608.626 282.93 609.106 282.735 609.871C282.539 610.654 283.019 611.437 283.785 611.633L289.265 613.003C289.39 613.039 289.496 613.039 289.621 613.039Z" fill="white"/>
<path d="M284.14 616.117C284.799 616.117 285.386 615.672 285.546 615.014C285.742 614.231 285.261 613.448 284.496 613.252L279.016 611.882C278.233 611.686 277.45 612.167 277.254 612.932C277.059 613.715 277.539 614.498 278.304 614.676L283.785 616.046C283.891 616.099 284.016 616.117 284.14 616.117Z" fill="white"/>
<path d="M278.144 618.946C278.785 618.946 279.39 618.501 279.55 617.843C279.746 617.06 279.265 616.277 278.5 616.099L273.02 614.729C272.237 614.533 271.454 615.014 271.258 615.779C271.062 616.562 271.543 617.345 272.308 617.54L277.788 618.91C277.913 618.928 278.038 618.946 278.144 618.946Z" fill="white"/>
<path d="M271.668 621.366C272.308 621.366 272.913 620.921 273.073 620.263C273.269 619.48 272.789 618.697 272.024 618.501L266.543 617.131C265.76 616.935 264.977 617.416 264.782 618.181C264.586 618.964 265.066 619.747 265.831 619.925L271.312 621.295C271.436 621.348 271.543 621.366 271.668 621.366Z" fill="white"/>
<path d="M568.75 314.586C568.75 314.586 569.782 321.686 560.281 323.679L461.206 326.988C461.206 326.988 454.515 323.625 455.725 315.333C455.725 315.316 497.558 291.81 568.75 314.586Z" fill="#380098"/>
<path d="M459.853 347.344C511.277 375.636 567.434 352.86 567.434 352.86C564.693 345.369 562.647 336.917 561.17 329.23C559.462 320.28 558.501 312.38 558.056 308.234C536.188 307.041 482.558 304.746 461.544 309.728L461.384 318.145L459.853 347.344Z" fill="#EA9B7A"/>
<path d="M497.842 333.786C498.216 336.437 499.426 338.465 500.511 338.305C501.615 338.145 502.184 335.868 501.81 333.216C501.437 330.565 500.227 328.537 499.141 328.697C498.038 328.857 497.469 331.134 497.842 333.786Z" fill="#D96C63"/>
<path d="M461.402 318.145C483.306 316.81 526.384 316.348 561.188 329.213C559.48 320.262 558.519 312.362 558.075 308.216C536.206 307.024 482.576 304.729 461.562 309.711L461.402 318.145Z" fill="#D96C63"/>
<path d="M436.97 277.451C437.184 278.091 437.433 278.678 437.718 279.23C437.825 279.444 437.931 279.657 438.038 279.853C440.796 284.96 445.049 289.39 448.625 292.54C449.373 293.198 450.084 293.785 450.743 294.319C452.059 295.387 453.18 296.223 453.946 296.775C454.657 297.273 455.067 297.54 455.067 297.54C455.067 297.593 455.067 297.629 455.084 297.7C455.12 298.073 455.156 298.483 455.191 298.91C455.316 300.529 455.422 302.451 455.494 304.657C455.565 306.419 455.618 308.358 455.654 310.458C455.672 312.006 455.707 313.625 455.725 315.298C484.782 302.308 544.64 310.511 568.75 314.568C568.305 312.486 567.914 310.44 567.54 308.447C565.832 299.248 564.871 290.974 564.498 283.554C563.928 272.522 564.889 255.938 567.238 238.803C567.38 237.682 567.54 236.579 567.7 235.475C567.807 234.746 567.914 234.034 568.038 233.305C568.857 227.931 569.818 222.539 570.903 217.308C575.654 194.497 572.327 170.564 549.195 167.735C547.522 167.522 545.868 167.344 544.248 167.166C533.359 166.009 524.391 165.6 521.9 165.511C521.437 165.493 521.206 165.493 521.206 165.493L476.508 178.482L472.255 179.71C469.818 180.493 467.558 181.258 465.458 182.006C464.568 182.326 463.697 182.646 462.878 182.949C460.707 183.767 458.75 184.55 456.953 185.351C453.376 186.934 450.547 188.482 448.305 190.066C438.501 197.023 440.013 204.888 440.262 220.422C440.262 220.493 440.262 220.564 440.262 220.636C440.262 220.831 440.262 221.027 440.262 221.241C440.262 221.33 440.262 221.418 440.262 221.507C440.262 222.148 440.262 222.771 440.262 223.411C440.245 225.422 440.173 227.415 440.049 229.408C439.889 232.344 439.622 235.262 439.301 238.109C439.177 239.248 439.052 240.386 438.91 241.525C438.785 242.593 438.643 243.643 438.501 244.693C436.757 258.287 434.533 270.209 436.97 277.451Z" fill="#5842DB"/>
<path d="M522.273 290.493C522.149 290.867 521.828 291.134 521.472 291.205C521.295 291.241 521.099 291.241 520.921 291.169C520.725 291.098 501.704 284.942 481.704 293.234C471.544 297.451 462.504 299.052 455.191 298.91C455.156 298.483 455.12 298.091 455.084 297.7C455.084 297.646 455.067 297.593 455.067 297.557C455.067 297.557 454.657 297.29 453.946 296.792C461.134 297.148 470.334 295.618 480.885 291.258C501.65 282.646 520.796 288.874 521.597 289.141C522.149 289.337 522.451 289.942 522.273 290.493Z" fill="#380098"/>
<path d="M476.525 178.482C479.034 182.361 484.194 186.756 494.657 186.009C509.088 184.959 518.59 171.187 521.899 165.529C521.454 165.511 521.205 165.511 521.205 165.511L476.525 178.482Z" fill="#380098"/>
<path d="M448.305 190.066C449.23 200.315 446.703 217.237 440.084 229.408C440.244 226.792 440.315 224.141 440.28 221.507C440.28 221.418 440.28 221.329 440.28 221.241C440.28 220.974 440.262 220.707 440.262 220.44C440.031 204.906 438.518 197.023 448.305 190.066Z" fill="#EA9B7A"/>
<path d="M530.529 208.109C535.654 227.895 554.408 243.767 567.22 238.821C567.38 237.717 567.522 236.596 567.682 235.493C567.789 234.764 567.896 234.052 568.02 233.322C568.839 227.949 569.8 222.557 570.885 217.326C575.636 194.514 572.291 170.582 549.177 167.753C547.504 167.539 545.849 167.361 544.23 167.183C532.682 172.112 524.622 185.333 530.529 208.109Z" fill="#EA9B7A"/>
<g filter="url(#filter0_i_28_39)">
<path d="M527.896 193.02L497.86 302.878L508.572 290.529C504.604 292.629 500.013 294.266 494.924 295.404C489.853 296.543 484.301 297.202 478.518 297.504C472.718 297.807 466.686 297.753 460.511 297.504C454.337 297.255 448.02 296.792 441.614 296.241H441.579C432.13 295.44 423.821 302.433 423.02 311.881C422.255 320.885 428.643 328.874 437.433 330.298C444.034 331.348 450.76 332.344 457.646 333.145C464.532 333.945 471.597 334.533 478.928 334.711C486.241 334.871 493.821 334.604 501.65 333.465C509.461 332.326 517.575 330.298 525.511 326.864C530.582 324.675 534.195 320.511 535.832 315.654L536.205 314.515L572.255 206.472C576.312 194.337 569.746 181.205 557.611 177.148C545.476 173.091 532.344 179.657 528.287 191.792C528.127 192.183 528.002 192.646 527.896 193.02Z" fill="#EA9B7A"/>
</g>
<path d="M514.444 299.372C514.746 299.372 515.049 299.212 515.209 298.928C515.458 298.501 515.298 297.967 514.871 297.718C514.586 297.558 508.02 293.856 501.152 293.323C500.654 293.287 500.227 293.643 500.191 294.141C500.156 294.639 500.511 295.066 501.01 295.102C507.469 295.6 513.928 299.23 513.981 299.266C514.141 299.337 514.302 299.372 514.444 299.372Z" fill="#D96C63"/>
<path d="M503.519 295.404C503.679 295.404 503.839 295.369 503.981 295.28C508.127 292.771 513.145 292.379 513.199 292.379C513.697 292.344 514.053 291.917 514.017 291.436C513.981 290.938 513.572 290.582 513.074 290.618C512.86 290.636 507.576 291.027 503.074 293.767C502.647 294.016 502.522 294.568 502.772 294.995C502.932 295.244 503.234 295.404 503.519 295.404Z" fill="#D96C63"/>
<path d="M479.041 237.944C465.749 240.631 459.93 226.894 459.877 226.752C459.646 226.2 459.912 225.577 460.464 225.364C461.016 225.132 461.638 225.399 461.852 225.951C462.066 226.467 467.083 238.193 478.614 235.862C490.731 233.406 513.329 209.581 513.543 209.332C513.952 208.905 514.628 208.887 515.055 209.296C515.482 209.705 515.5 210.381 515.091 210.808C514.165 211.787 491.799 235.346 479.041 237.944Z" fill="#380098"/>
<path d="M481.079 221.487C468.369 223.012 464.176 208.83 464.139 208.684C463.973 208.114 464.28 207.517 464.817 207.352C465.355 207.17 465.915 207.49 466.064 208.057C466.217 208.59 469.844 220.7 480.87 219.377C492.458 217.981 515.837 196.212 516.061 195.983C516.484 195.593 517.119 195.634 517.482 196.078C517.845 196.523 517.799 197.198 517.376 197.587C516.419 198.482 493.281 220.005 481.079 221.487Z" fill="#380098"/>
<path d="M497.629 150.973C497.629 150.973 518.964 146.952 524.978 125.422C530.707 104.924 526.295 94.2829 520.334 83.2153C515.85 74.8701 501.615 63.6067 481.668 67.6459C461.526 71.7206 446.455 82.0765 444.23 98.6424C440.084 129.639 465.084 167.45 497.629 150.973Z" fill="#39393B"/>
<path d="M515.543 116.201C515.869 115.985 516.069 115.611 516.019 115.181C515.96 114.382 514.234 95.5315 495.922 81.3127C484.477 72.431 473.47 72.3632 466.225 73.8656C458.399 75.4873 453.36 79.1689 453.138 79.3158C452.654 79.6793 452.548 80.3886 452.933 80.9061C453.307 81.4082 453.996 81.5484 454.494 81.175C454.538 81.1457 459.449 77.5926 466.829 76.0677C476.651 74.0527 485.983 76.4176 494.589 83.097C512.037 96.6523 513.758 115.11 513.776 115.297C513.828 115.923 514.361 116.409 514.978 116.376C515.202 116.36 515.38 116.308 515.543 116.201Z" fill="#FF9A2C"/>
<path d="M456.259 129.087C456.259 129.087 449.32 123.607 447.487 130.867C445.654 138.127 450.814 151.027 458.893 147.112L456.259 129.087Z" fill="#D96C63"/>
<path d="M463.038 142.432C466.49 143.571 469.533 146.632 470.316 150.422C471.455 156.08 467.789 161.596 462.149 162.753C456.49 163.892 450.974 160.226 449.818 154.585C448.964 150.351 450.796 146.187 454.159 143.892C455.28 143.109 456.579 142.557 458.003 142.272C458.038 142.272 458.074 142.255 458.11 142.255C458.305 142.966 458.234 143.536 457.825 143.981C456.686 144.283 455.654 144.799 454.747 145.475C452.131 147.468 450.725 150.831 451.419 154.265C452.38 159.034 457.06 162.13 461.828 161.169C466.597 160.208 469.693 155.529 468.732 150.76C468.021 147.29 465.458 144.835 462.238 144.052L463.038 142.432Z" fill="#FFD147"/>
<path d="M477.292 160.208L480.192 178.394C480.192 178.394 493.804 192.29 518.662 167.362C511.989 162.397 509.445 150.867 510.228 143.429C510.228 143.429 508.271 144.603 505.246 147.344C504.659 147.878 503.893 148.287 503.164 148.803C496.598 153.251 486.527 159.07 477.292 160.208Z" fill="#EA9B7A"/>
<path d="M477.292 160.208L478.662 168.821C486.118 165.493 499.303 158.393 505.246 147.326C504.606 147.788 503.894 148.269 503.164 148.785C496.598 153.251 486.527 159.07 477.292 160.208Z" fill="#39393B"/>
<path d="M449.533 124.71C449.924 126.632 450.28 128.465 450.654 130.208C451.045 132.094 451.419 133.874 451.793 135.546C454.551 148.127 456.81 154.87 460.476 157.397C479.035 170.155 509.23 144.319 510.209 143.482C510.227 143.465 510.227 143.465 510.227 143.465C510.245 141.988 510.245 140.511 510.227 139.07C509.996 126.828 507.914 115.831 504.604 105.671C502.949 94.5676 494.337 85.6708 483.252 83.9982C471.757 82.2722 463.109 88.9271 457.7 91.863C449.533 96.3114 446.33 108.678 449.533 124.71Z" fill="#EA9B7A"/>
<path d="M503.964 94.2474C503.964 94.2474 490.975 69.2651 465.067 76.2402C439.16 83.2153 437.79 95.2438 437.327 101.258C436.864 107.272 450.743 96.6139 450.743 96.6139C450.743 96.6139 451.224 108.642 455.85 104.941C461.526 100.386 467.861 90.5819 467.861 90.5819C467.861 90.5819 483.288 105.742 497.95 101.65C506.295 99.3364 503.964 94.2474 503.964 94.2474Z" fill="#39393B"/>
<path d="M472.149 149.212C475.512 149.212 477.825 146.881 477.932 146.757C478.287 146.383 478.287 145.796 477.914 145.44C477.54 145.084 476.971 145.084 476.615 145.458C476.49 145.582 473.821 148.233 470.298 147.024C469.818 146.863 469.284 147.113 469.124 147.593C468.964 148.073 469.213 148.607 469.693 148.767C470.547 149.088 471.366 149.212 472.149 149.212Z" fill="#D96C63"/>
<path d="M479.889 134.088C479.889 134.088 467.398 137.789 460.921 137.789C460.921 137.789 464.16 147.041 473.413 143.803C480.619 141.276 479.889 134.088 479.889 134.088Z" fill="white"/>
<path d="M456.704 108.073C456.704 108.073 459.943 107.735 459.427 110.885C458.893 114.034 451.864 112.112 448.377 118.411C448.377 118.411 445.014 111.81 456.704 108.073Z" fill="#39393B"/>
<path d="M472.059 105.147C472.059 105.147 467.444 106.042 469.976 108.546C472.507 111.05 480.998 106.855 489.383 111C489.383 111 490.148 104.119 472.059 105.147Z" fill="#39393B"/>
<path d="M476.758 127.699C477.06 129.176 480.352 129.763 484.142 128.998C487.914 128.233 490.726 126.418 490.423 124.924C490.121 123.447 486.829 122.86 483.039 123.625C479.266 124.39 476.455 126.223 476.758 127.699Z" fill="#D96C63"/>
<g opacity="0.8">
<g opacity="0.8">
<g opacity="0.8">
<g opacity="0.8">
<g opacity="0.8">
<g opacity="0.8">
<g opacity="0.8">
<path opacity="0.8" d="M450.655 130.208C451.046 132.094 451.42 133.874 451.793 135.546C455.228 134.71 457.701 133.02 457.416 131.614C457.114 130.226 454.16 129.621 450.655 130.208Z" fill="#D96C63"/>
</g>
</g>
</g>
</g>
</g>
</g>
</g>
<path d="M474.106 120.244C474.515 122.29 475.779 123.749 476.917 123.518C478.056 123.286 478.643 121.454 478.234 119.407C477.825 117.361 476.561 115.902 475.423 116.133C474.284 116.365 473.697 118.197 474.106 120.244Z" fill="#39393B"/>
<path d="M453.928 124.336C454.337 126.382 455.601 127.842 456.74 127.61C457.878 127.379 458.466 125.546 458.056 123.5C457.647 121.454 456.384 119.995 455.245 120.226C454.106 120.457 453.519 122.29 453.928 124.336Z" fill="#39393B"/>
<path d="M464.585 129.842C463.615 130.079 462.92 130.072 462.867 130.074C462.635 130.066 462.399 129.969 462.232 129.798C462.065 129.627 462.001 129.381 462.009 129.149L462.907 119.583C462.959 119.118 463.372 118.762 463.837 118.814C464.302 118.865 464.658 119.278 464.606 119.743L463.806 128.272C464.655 128.112 465.92 127.702 467.035 126.694C467.378 126.377 467.931 126.407 468.248 126.75C468.565 127.093 468.535 127.646 468.192 127.963C466.973 129.047 465.625 129.585 464.585 129.842Z" fill="#39393B"/>
<path d="M501.883 136.543C502.025 136.757 505.975 142.433 510.192 143.465C510.21 143.447 510.21 143.447 510.21 143.447C510.246 141.97 510.228 140.493 510.21 139.052C510.068 139.07 506.046 139.177 501.883 136.543Z" fill="#39393B"/>
<path d="M502.754 121.632C502.754 121.632 508.698 109.034 516.402 116.418C522.755 122.521 517.203 142.877 506.171 138.518L502.754 121.632Z" fill="#EA9B7A"/>
<path d="M517.363 132.504C520.815 133.642 523.857 136.703 524.64 140.493C525.779 146.151 522.114 151.667 516.473 152.824C510.815 153.963 505.299 150.297 504.142 144.657C503.288 140.422 505.121 136.258 508.484 133.963C509.605 133.18 510.904 132.628 512.327 132.343C512.363 132.343 512.398 132.326 512.434 132.326C512.63 133.037 512.541 133.607 512.149 134.052C511.01 134.354 509.978 134.87 509.071 135.546C506.455 137.539 505.049 140.902 505.743 144.336C506.704 149.105 511.384 152.201 516.153 151.24C520.921 150.279 524.017 145.6 523.057 140.831C522.363 137.361 519.783 134.906 516.562 134.123L517.363 132.504Z" fill="#FFD147"/>
<path d="M506.633 135.013C506.598 135.013 506.58 135.03 506.544 135.03C506.082 135.066 505.655 134.728 505.619 134.248C504.747 124.728 511.936 119.906 512.238 119.71C512.63 119.443 513.163 119.568 513.43 119.959C513.697 120.351 513.573 120.885 513.181 121.151C512.914 121.329 506.544 125.635 507.327 134.105C507.345 134.532 507.042 134.924 506.633 135.013Z" fill="#39393B"/>
<path d="M513.43 128.34C513.252 128.376 513.039 128.358 512.861 128.251C512.007 127.806 509.498 126.81 508.128 127.468C507.701 127.682 507.185 127.504 506.989 127.077C506.775 126.65 506.953 126.134 507.38 125.938C509.765 124.781 513.252 126.543 513.644 126.739C514.071 126.952 514.231 127.468 513.999 127.895C513.893 128.126 513.661 128.287 513.43 128.34Z" fill="#39393B"/>
<path d="M495.102 100.262C495.102 100.262 503.092 121.952 503.519 126.329C504.106 132.29 511.988 111.863 504.07 94.4254L495.102 100.262Z" fill="#39393B"/>
<path d="M361.614 560.121H394.515C394.515 560.121 402.131 523.608 404.675 503.145C407.237 482.665 408.554 434.142 408.554 434.142C408.554 434.142 434.764 442.665 489.64 439.444C611.224 432.344 565.12 343.02 565.12 343.02C561.01 348.696 530.191 356.508 513.003 359.23C460.209 364.301 420.084 373.269 392.611 385.12C385.992 387.967 380.12 390.992 374.96 394.177C368.34 398.252 364.195 410.654 361.686 426.935C354.195 475.885 361.614 560.121 361.614 560.121Z" fill="#39393B"/>
<path d="M390.44 542.541C390.992 542.541 391.472 542.149 391.597 541.597C396.348 518.11 397.931 488.875 399.212 465.387C400.28 445.903 401.277 427.505 403.785 425.298C405.814 423.501 414.23 424.907 424.871 426.668C446.063 430.191 478.092 435.494 513.394 427.291C532.629 422.807 546.775 413.465 555.423 399.515C570.352 375.458 563.537 345.618 563.466 345.316C563.323 344.675 562.683 344.284 562.042 344.444C561.402 344.586 561.01 345.227 561.17 345.867C561.241 346.152 567.807 375.067 553.394 398.287C545.085 411.686 531.437 420.672 512.843 424.996C477.985 433.11 446.241 427.843 425.227 424.355C412.647 422.273 405.049 421.01 402.184 423.537C399.088 426.277 398.216 439.729 396.828 465.263C395.547 488.679 393.963 517.807 389.248 541.135C389.123 541.775 389.533 542.398 390.173 542.523C390.28 542.523 390.351 542.541 390.44 542.541Z" fill="#585859"/>
<path d="M360.991 543.145H361.009L397.593 542.362C398.251 542.345 398.767 541.811 398.75 541.152C398.732 540.494 398.198 539.978 397.54 539.996L360.956 540.779C360.298 540.797 359.781 541.33 359.799 541.989C359.835 542.647 360.351 543.145 360.991 543.145Z" fill="#585859"/>
<path d="M362.523 602.274H385.743L390.21 575.032L392.665 560.12H363.822L363.359 575.032L362.523 602.274Z" fill="#EA9B7A"/>
<path d="M362.522 602.273H385.743L389.07 581.989L390.209 575.031H363.358L363.145 582.238L362.522 602.273Z" fill="#FF5D8F"/>
<path d="M363.145 582.238L389.07 581.989L390.209 575.031H363.358L363.145 582.238Z" fill="#FFB0BE"/>
<path d="M305.227 638.946H393.056C393.715 637.754 394.07 636.082 394.213 634.071C394.764 626.633 392.398 614.783 391.241 607.309C391.099 606.437 390.974 605.619 390.885 604.889C390.725 603.644 390.619 602.594 390.619 601.829C390.619 595.726 385.227 596.775 385.227 596.775C376.348 605.494 366.277 592.434 360.405 596.704C360.405 596.704 360.174 596.882 359.622 597.291C359.124 597.683 358.376 598.288 357.344 599.16C355.85 600.405 353.75 602.22 350.903 604.783C343.928 611.064 332.077 615.192 321.988 619.409C320.707 619.943 319.515 620.477 318.394 621.028C317.558 621.437 316.757 621.847 316.01 622.238C307.753 626.687 305.138 630.957 304.533 634.053C303.946 637.025 305.227 638.946 305.227 638.946Z" fill="#5842DB"/>
<path d="M315.992 622.256C318.251 624.053 323.287 627.665 327.326 627.665C327.504 627.665 327.682 627.665 327.86 627.647C330.707 627.416 341.17 622.274 349.693 617.594C354.568 614.907 359.034 612.274 362.237 610.156C367.486 606.686 368.412 605.37 368.607 604.444C369.373 600.975 363.643 598.573 359.622 597.309C359.123 597.701 358.376 598.306 357.344 599.178C362.326 600.53 366.437 602.665 366.241 603.875C365.743 604.907 360.547 608.857 348.127 615.672C338.643 620.868 329.657 625.049 327.664 625.227C324.96 625.441 320.992 622.985 318.394 621.046C317.522 621.437 316.739 621.847 315.992 622.256Z" fill="#380098"/>
<path d="M305.227 638.946H393.056C393.715 637.754 394.07 636.081 394.213 634.071H304.515C303.946 637.025 305.227 638.946 305.227 638.946Z" fill="#380098"/>
<path d="M384.088 638.946H386.704C384.106 635.975 381.668 631.402 381.989 624.889C382.416 616.206 387.611 610.37 391.241 607.309C391.099 606.437 390.974 605.619 390.885 604.889C386.989 607.861 380.423 614.391 379.907 624.783C379.586 631.01 381.633 635.654 384.088 638.946Z" fill="#380098"/>
<path d="M352.362 609.978C353.003 609.978 353.608 609.534 353.768 608.875C353.964 608.092 353.483 607.309 352.718 607.114L347.238 605.743C346.455 605.548 345.672 606.028 345.476 606.793C345.28 607.576 345.761 608.359 346.526 608.555L352.006 609.925C352.131 609.961 352.255 609.978 352.362 609.978Z" fill="white"/>
<path d="M357.825 605.405C358.483 605.405 359.07 604.96 359.231 604.302C359.426 603.519 358.946 602.736 358.181 602.54L352.7 601.17C351.917 600.975 351.134 601.455 350.939 602.22C350.743 603.003 351.223 603.786 351.989 603.982L357.469 605.352C357.594 605.387 357.7 605.405 357.825 605.405Z" fill="white"/>
<path d="M346.882 613.163C347.522 613.163 348.127 612.718 348.287 612.06C348.483 611.277 348.003 610.494 347.238 610.316L341.757 608.946C340.974 608.75 340.191 609.231 339.996 609.996C339.8 610.779 340.28 611.562 341.045 611.758L346.526 613.128C346.65 613.146 346.775 613.163 346.882 613.163Z" fill="white"/>
<path d="M341.401 616.224C342.042 616.224 342.647 615.779 342.807 615.121C343.003 614.338 342.522 613.555 341.757 613.377L336.277 612.007C335.494 611.811 334.711 612.292 334.515 613.057C334.319 613.84 334.8 614.623 335.565 614.818L341.045 616.188C341.17 616.206 341.277 616.224 341.401 616.224Z" fill="white"/>
<path d="M335.423 619.053C336.063 619.053 336.668 618.608 336.828 617.95C337.024 617.167 336.544 616.384 335.778 616.206L330.298 614.836C329.515 614.64 328.732 615.121 328.536 615.886C328.341 616.669 328.821 617.452 329.586 617.647L335.067 619.017C335.191 619.053 335.298 619.053 335.423 619.053Z" fill="white"/>
<path d="M328.928 621.473C329.586 621.473 330.173 621.028 330.333 620.37C330.529 619.587 330.048 618.804 329.283 618.608L323.803 617.238C323.02 617.042 322.237 617.523 322.041 618.288C321.846 619.071 322.326 619.854 323.091 620.049L328.572 621.419C328.696 621.455 328.821 621.473 328.928 621.473Z" fill="white"/>
<path d="M240.44 341.703V348.999C240.44 353.198 242.967 356.597 246.099 356.597H640.175C643.306 356.597 645.833 353.198 645.833 348.999V341.703C645.833 337.504 643.306 334.106 640.175 334.106H246.117C242.985 334.106 240.44 337.504 240.44 341.703Z" fill="#7DFFF7"/>
<path d="M240.44 344.016H645.833V347.362H240.44V344.016Z" fill="#19CFDA"/>
<path d="M252.291 375.333H622.701C624.356 375.333 625.708 373.981 625.708 372.326V356.49H249.283V372.326C249.283 373.981 250.636 375.333 252.291 375.333Z" fill="#19CFDA"/>
<path d="M268.927 468.287H600.191V481.205H268.927V468.287Z" fill="#19CFDA"/>
<path d="M624.071 641.242L559.943 375.333H582.469L646.598 641.242H624.071Z" fill="#7DFFF7"/>
<path d="M245.476 641.242L309.622 375.333H287.095L222.967 641.242H245.476Z" fill="#02ACB7"/>
<path d="M609.869 272.994L616.816 274.058L608.786 326.491L601.838 325.427L609.869 272.994Z" fill="#F9ECB3"/>
<path d="M609.854 272.967L616.794 274.034L615.264 268.732L614.481 265.974L612.897 268.358L609.854 272.967Z" fill="#EA9B7A"/>
<path d="M602.428 321.61L609.376 322.674L608.791 326.491L601.844 325.427L602.428 321.61Z" fill="#39393B"/>
<path d="M601.811 328.501L607.843 329.426C608.092 329.462 608.342 329.284 608.377 329.035L608.769 326.454L601.811 325.387L601.42 327.967C601.384 328.234 601.562 328.465 601.811 328.501Z" fill="#FF5D8F"/>
<path d="M612.897 268.358L615.264 268.732L614.481 265.974L612.897 268.358Z" fill="#39393B"/>
<path d="M602.822 318.871L609.77 319.935L609.352 322.661L602.404 321.597L602.822 318.871Z" fill="#F9BD94"/>
<path d="M614.676 276.347L608.733 315.173C608.68 315.476 608.413 315.671 608.128 315.618C607.844 315.565 607.63 315.298 607.683 315.013L613.627 276.187C613.68 275.903 613.947 275.689 614.232 275.742C614.516 275.778 614.73 276.063 614.676 276.347Z" fill="#F9BD94"/>
<path d="M611.954 275.938L606.011 314.764C605.957 315.048 605.691 315.262 605.406 315.209C605.103 315.155 604.908 314.888 604.961 314.604L610.904 275.778C610.957 275.493 611.224 275.28 611.509 275.333C611.794 275.369 612.007 275.636 611.954 275.938Z" fill="#F9BD94"/>
<path d="M597.271 273.206L604.3 273.229L604.125 326.272L597.097 326.249L597.271 273.206Z" fill="#B6FFFF"/>
<path d="M597.274 273.216L604.303 273.233L602.007 268.216L600.815 265.6L599.605 268.198L597.274 273.216Z" fill="#EA9B7A"/>
<path d="M597.12 322.406L604.148 322.429L604.136 326.29L597.107 326.267L597.12 322.406Z" fill="#39393B"/>
<path d="M597.559 329.319L603.662 329.337C603.929 329.337 604.125 329.123 604.125 328.874V326.276L597.096 326.259V328.856C597.096 329.106 597.292 329.319 597.559 329.319Z" fill="#FF5D8F"/>
<path d="M599.606 268.198L602.008 268.216L600.816 265.6L599.606 268.198Z" fill="#39393B"/>
<path d="M597.136 319.63L604.164 319.653L604.155 322.411L597.126 322.388L597.136 319.63Z" fill="#217C58"/>
<path d="M602.558 275.849L602.434 315.12C602.434 315.422 602.185 315.654 601.9 315.654C601.598 315.654 601.366 315.405 601.366 315.12L601.491 275.849C601.491 275.547 601.74 275.315 602.025 275.315C602.309 275.298 602.558 275.547 602.558 275.849Z" fill="#217C58"/>
<path d="M599.801 275.831L599.676 315.102C599.676 315.404 599.427 315.636 599.142 315.636C598.84 315.636 598.609 315.387 598.609 315.102L598.733 275.831C598.733 275.529 598.982 275.297 599.267 275.297C599.552 275.297 599.801 275.529 599.801 275.831Z" fill="#217C58"/>
<path d="M592.087 272.943L599.545 325.461L592.586 326.449L585.128 273.932L592.087 272.943Z" fill="#5842DB"/>
<path d="M585.138 273.963L592.096 272.967L589.106 268.322L587.541 265.92L586.722 268.66L585.138 273.963Z" fill="#EA9B7A"/>
<path d="M592.026 322.674L598.985 321.686L599.528 325.509L592.569 326.497L592.026 322.674Z" fill="#39393B"/>
<path d="M593.484 329.444L599.516 328.59C599.765 328.554 599.943 328.323 599.908 328.056L599.534 325.476L592.577 326.472L592.95 329.052C593.004 329.301 593.235 329.479 593.484 329.444Z" fill="#FF5D8F"/>
<path d="M586.722 268.66L589.107 268.322L587.541 265.92L586.722 268.66Z" fill="#39393B"/>
<path d="M598.608 318.925L598.996 321.656L592.037 322.645L591.649 319.914L598.608 318.925Z" fill="#380098"/>
<path d="M590.744 275.796L596.26 314.675C596.295 314.978 596.099 315.244 595.797 315.28C595.494 315.316 595.228 315.12 595.192 314.817L589.676 275.938C589.64 275.636 589.836 275.369 590.139 275.333C590.423 275.298 590.69 275.511 590.744 275.796Z" fill="#380098"/>
<path d="M588.003 276.187L593.519 315.067C593.555 315.369 593.359 315.636 593.057 315.671C592.754 315.707 592.487 315.511 592.452 315.209L586.936 276.33C586.9 276.027 587.096 275.76 587.398 275.725C587.701 275.689 587.968 275.885 588.003 276.187Z" fill="#380098"/>
<path d="M582.843 294.194L583.217 297.041L583.555 299.621L584.053 303.536L584.391 306.098L584.889 310.048L585.227 312.575L585.743 316.561L586.064 319.052L586.58 323.073L586.9 325.529L587.416 329.586L587.736 332.006L588.003 334.106H615.655L615.921 332.006L616.242 329.586L616.758 325.529L617.078 323.073L617.594 319.052L617.914 316.561L618.43 312.575L618.751 310.048L619.267 306.098L619.587 303.536L620.103 299.621L620.441 297.041L620.797 294.194H582.843Z" fill="#FF5D8F"/>
<path d="M583.217 297.041L583.555 299.621H620.103L620.441 297.041H583.217Z" fill="#A92F4B"/>
<path d="M584.053 303.536L584.391 306.099H619.267L619.587 303.536H584.053Z" fill="#A92F4B"/>
<path d="M584.89 310.049L585.228 312.576H618.431L618.751 310.049H584.89Z" fill="#A92F4B"/>
<path d="M585.744 316.561L586.064 319.052H617.595L617.915 316.561H585.744Z" fill="#A92F4B"/>
<path d="M586.58 323.073L586.9 325.529H616.758L617.078 323.073H586.58Z" fill="#A92F4B"/>
<path d="M587.416 329.586L587.737 332.006H615.922L616.242 329.586H587.416Z" fill="#A92F4B"/>
<path d="M242.735 193.091L266.312 292.807L266.935 295.422L268.518 302.131C269.212 305.049 271.792 307.095 274.782 307.095H433.626C437.789 307.095 440.85 303.216 439.889 299.177L414.106 190.12C413.412 187.219 410.832 185.173 407.843 185.173H249.016C244.853 185.173 241.792 189.052 242.735 193.091Z" fill="#39393B"/>
<path d="M266.33 292.789L266.935 295.422H431.864V292.789H266.33Z" fill="#585859"/>
<path d="M376.578 267.794C377.895 274.858 384.692 280.587 391.756 280.587C398.82 280.587 403.482 274.858 402.165 267.794C400.848 260.73 394.051 255 386.987 255C379.905 255 375.261 260.73 376.578 267.794Z" fill="#FFD147"/>
<path d="M391.026 265.356C391.293 266.762 392.005 267.918 392.61 267.918C393.233 267.918 393.517 266.779 393.251 265.356C392.984 263.95 392.272 262.794 391.667 262.794C391.044 262.794 390.759 263.932 391.026 265.356Z" fill="#39393B"/>
<path d="M384.354 265.356C384.621 266.762 385.333 267.918 385.938 267.918C386.543 267.918 386.845 266.779 386.578 265.356C386.311 263.95 385.6 262.794 384.995 262.794C384.372 262.794 384.087 263.932 384.354 265.356Z" fill="#39393B"/>
<path d="M390.421 274.039C395.919 274.039 396.15 268.541 396.15 268.488C396.168 268.185 395.919 267.883 395.599 267.829C395.279 267.758 395.029 267.954 395.012 268.256C395.012 268.452 394.798 272.936 390.19 272.936C385.599 272.936 383.713 268.452 383.624 268.256C383.499 267.954 383.161 267.776 382.876 267.829C382.592 267.9 382.449 268.185 382.574 268.488C382.627 268.523 384.923 274.039 390.421 274.039Z" fill="#39393B"/>
<path d="M291.385 204.981C291.243 211.6 280.033 219.892 280.033 219.892C280.033 219.892 267.008 211.6 265.425 204.981C263.716 197.81 271.901 195.604 277.969 201.013C282.862 195.604 291.546 197.81 291.385 204.981Z" fill="#19CEDA"/>
<path d="M319.924 250.387C320.689 257.255 326.864 262.806 333.714 262.806C340.565 262.806 345.529 257.237 344.764 250.387C343.999 243.518 337.825 237.967 330.974 237.967C324.106 237.967 319.159 243.536 319.924 250.387Z" fill="#585859"/>
<path d="M401.544 185.173L428.999 307.095H433.626C437.789 307.095 440.85 303.216 439.889 299.177L414.106 190.12C413.412 187.219 410.832 185.155 407.843 185.155H401.544V185.173Z" fill="#585859"/>
<path d="M355.547 307.095L360.369 334.195H344.444L339.622 307.095H355.547Z" fill="white"/>
<path d="M384.177 329.533L380.92 324.96C379.764 323.323 377.878 322.362 375.867 322.362H332.237C329.924 322.362 327.806 323.643 326.739 325.69L324.55 329.889C323.518 331.846 324.942 334.213 327.166 334.213H381.774C384.177 334.195 385.565 331.473 384.177 329.533Z" fill="white"/>
<path d="M475.085 334.177H344.017L342.593 329.23C341.704 326.116 344.035 323.02 347.273 323.02H468.217C470.387 323.02 472.291 324.462 472.896 326.543L475.085 334.177Z" fill="white"/>
<path d="M303.234 152.611L361.206 152.575C363.448 152.575 365.28 150.742 365.28 148.5L365.262 112.877C365.262 110.635 363.43 108.803 361.188 108.803L303.216 108.838C300.974 108.838 299.141 110.671 299.141 112.913L299.159 148.536C299.159 150.796 300.974 152.611 303.234 152.611Z" fill="#FE5A5D"/>
<path d="M306.685 146.045L311.97 166.009L321.205 147.237L306.685 146.045Z" fill="#FF686B"/>
<path d="M228.565 296.877C221.292 293.104 217.073 294.146 215.872 295.139C186.379 322.127 201.794 362.979 213.188 380.032C232.283 381.414 251.606 371.108 258.881 365.782C262.314 363.249 268.255 357.009 264.557 352.31C259.933 346.437 258.051 341.528 258.261 337.659C258.472 333.79 260.921 332.226 264.741 331.144C267.797 330.278 274.665 329.783 277.717 329.644C289.539 327.253 288.925 318.524 287.14 314.459C283.26 307.431 278.355 293.047 289.774 291.727C301.193 290.408 301.387 278.424 300.056 272.598C294.41 257.871 285.399 259.553 284.75 259.628C284.47 259.66 278.838 259.671 275.383 263.914C271.929 268.158 271.142 272.734 267.898 273.109C265.303 273.409 260.658 269.247 258.66 267.128C256.927 265.406 252.106 262.759 246.689 265.948C241.271 269.137 239.837 280.623 239.797 285.967C239.084 291.176 235.839 300.65 228.565 296.877Z" fill="#FFD147"/>
<path d="M172.597 237.499C163.615 235.823 159.548 238.36 158.637 239.838C137.173 278.963 167.828 318.192 185.838 332.916C206.404 328.06 223.074 310.435 228.839 302.23C231.553 298.336 235.593 289.582 230.042 285.711C223.104 280.873 219.389 276.169 218.242 271.897C217.095 267.626 219.117 265.112 222.75 262.665C225.657 260.707 232.704 257.884 235.864 256.717C247.447 250.184 243.714 240.91 240.4 237.089C233.835 230.75 223.59 216.763 235.13 211.528C246.669 206.294 242.634 193.217 239.175 187.332C228.03 173.221 219.151 178.047 218.496 178.344C218.213 178.473 212.294 180.359 210.163 186.117C208.032 191.876 208.824 197.107 205.545 198.594C202.923 199.784 196.567 196.81 193.717 195.175C191.286 193.882 185.281 192.612 180.713 197.879C176.145 203.145 178.699 216.096 180.547 221.913C181.64 227.806 181.579 239.174 172.597 237.499Z" fill="#FF9A2C"/>
<path d="M145.822 292.877C153.096 289.103 157.315 290.146 158.515 291.139C188.008 318.127 172.594 358.979 161.199 376.032C142.104 377.414 122.782 367.107 115.507 361.782C112.074 359.249 106.132 353.009 109.831 348.31C114.455 342.437 116.337 337.528 116.126 333.659C115.916 329.79 113.467 328.226 109.647 327.143C106.591 326.278 99.7224 325.783 96.6702 325.644C84.8488 323.253 85.4628 314.524 87.2475 310.459C91.1276 303.431 96.0331 289.047 84.6138 287.727C73.1945 286.408 73.0011 274.424 74.3318 268.598C79.9781 253.871 88.9886 255.553 89.6374 255.628C89.9172 255.66 95.5498 255.67 99.0044 259.914C102.459 264.158 103.245 268.734 106.489 269.109C109.085 269.409 113.73 265.246 115.728 263.128C117.461 261.406 122.281 258.759 127.699 261.948C133.116 265.137 134.551 276.623 134.591 281.967C135.304 287.176 138.549 296.65 145.822 292.877Z" fill="#FE5A5D"/>
<path d="M186.433 677.418C131.912 677.418 87.714 673.052 87.714 667.667C87.714 662.282 131.912 657.916 186.433 657.916C240.954 657.916 285.152 662.282 285.152 667.667C285.152 673.052 240.954 677.418 186.433 677.418Z" fill="#9DA0AB"/>
<path d="M125.988 597.151H250.615C252.982 597.151 254.903 595.229 254.903 592.862V590.887C254.903 588.521 252.982 586.599 250.615 586.599H125.988C123.622 586.599 121.7 588.521 121.7 590.887V592.862C121.7 595.229 123.622 597.151 125.988 597.151Z" fill="#39393B"/>
<path d="M249.05 469.713H127.288C125.259 469.713 123.622 471.35 123.622 473.378V488.343C123.622 490.371 125.259 492.008 127.288 492.008H249.05C251.078 492.008 252.715 490.371 252.715 488.343V473.378C252.715 471.35 251.078 469.713 249.05 469.713Z" fill="#585859"/>
<path d="M176.888 466.095C177.376 466.125 177.844 465.815 177.951 465.358C185.37 432.477 210.034 386.037 229.384 352.873C250.393 316.904 269.869 288.365 270.063 288.074C270.363 287.646 270.203 287.066 269.731 286.787C269.259 286.509 268.625 286.648 268.325 287.075C268.131 287.367 248.612 315.957 227.561 351.976C208.126 385.26 183.392 431.874 175.921 464.966C175.811 465.476 176.153 465.961 176.714 466.067C176.792 466.072 176.849 466.093 176.888 466.095Z" fill="#39393B"/>
<path d="M185.811 465.941C186.327 465.941 186.754 465.514 186.736 464.998C186.54 447.862 182.803 428.343 175.633 406.99C169.903 389.926 162.003 371.652 152.109 352.684C135.294 320.389 118.355 296.919 118.177 296.688C117.874 296.278 117.287 296.172 116.878 296.474C116.469 296.777 116.362 297.364 116.664 297.773C116.825 298.004 133.693 321.385 150.455 353.556C165.899 383.218 184.405 426.617 184.85 465.015C184.885 465.531 185.295 465.941 185.811 465.941Z" fill="#39393B"/>
<path d="M180.166 415.056C180.237 415.065 180.308 415.073 180.381 415.064C180.89 415.001 181.251 414.543 181.205 414.036C177.469 380.614 184.436 329.265 190.928 292.091C197.965 251.774 206.005 218.948 206.079 218.634C206.195 218.129 205.897 217.626 205.392 217.511C204.904 217.397 204.384 217.692 204.268 218.198C204.192 218.529 196.145 251.409 189.084 291.776C182.56 329.072 175.589 380.6 179.334 414.238C179.406 414.677 179.743 415.004 180.166 415.056Z" fill="#39393B"/>
<path d="M132.43 410.478L133.96 414.535L134.921 417.115L137.697 424.481L138.675 427.061L141.522 434.642L142.483 437.204L154.725 469.695H221.594L233.836 437.204L234.797 434.642L237.644 427.061L238.622 424.481L241.398 417.115L242.359 414.535L243.889 410.478C244.939 407.684 242.875 404.713 239.903 404.713H136.398C133.444 404.713 131.38 407.684 132.43 410.478Z" fill="#5842DB"/>
<path d="M133.96 414.535L134.921 417.115H241.398L242.377 414.535H133.96Z" fill="#FFFFFC"/>
<path d="M137.714 424.481L138.675 427.061H237.661L238.622 424.481H137.714Z" fill="#FFFFFC"/>
<path d="M141.54 434.642L142.501 437.204H233.836L234.797 434.642H141.54Z" fill="#FFFFFC"/>
<path d="M206.078 491.99L209.779 503.948L261.398 670.318H271.487L238.765 507.346L235.669 491.99H206.078Z" fill="#39393B"/>
<path d="M104.547 670.318H114.636L167.768 499.019L169.957 491.99H140.366L139.619 495.727L104.547 670.318Z" fill="#39393B"/>
<path d="M125.988 574.215H250.615C252.982 574.215 254.903 572.293 254.903 569.926V567.951C254.903 565.585 252.982 563.663 250.615 563.663H126.006C123.64 563.663 121.718 565.585 121.718 567.951V569.926C121.7 572.293 123.622 574.215 125.988 574.215Z" fill="#585859"/>
<path d="M322.31 131.277C322.31 133.643 320.401 135.554 318.038 135.554C315.674 135.554 313.765 133.63 313.765 131.277C313.765 128.911 315.674 127 318.038 127C320.388 126.987 322.31 128.911 322.31 131.277Z" fill="white"/>
<path d="M335.843 131.277C335.843 133.643 333.934 135.554 331.57 135.554C329.206 135.554 327.297 133.63 327.297 131.277C327.297 128.911 329.206 127 331.57 127C333.934 126.987 335.843 128.911 335.843 131.277Z" fill="white"/>
<path d="M349.388 131.277C349.388 133.643 347.466 135.554 345.115 135.554C342.752 135.554 340.842 133.63 340.842 131.277C340.842 128.911 342.764 127 345.115 127C347.479 126.987 349.388 128.911 349.388 131.277Z" fill="white"/>
<path d="M246.685 115.495C273.336 115.495 294.941 94.1606 294.941 67.8435C294.941 41.5264 273.336 20.1921 246.685 20.1921C220.034 20.1921 198.429 41.5264 198.429 67.8435C198.429 94.1606 220.034 115.495 246.685 115.495Z" fill="#CED3E6"/>
<path d="M246.685 109.303C273.336 109.303 294.941 87.9685 294.941 61.6514C294.941 35.3342 273.336 14 246.685 14C220.034 14 198.429 35.3342 198.429 61.6514C198.429 87.9685 220.034 109.303 246.685 109.303Z" fill="#5842DB"/>
<path d="M246.685 100.388C268.344 100.388 285.902 83.0452 285.902 61.6514C285.902 40.2577 268.344 22.9147 246.685 22.9147C225.026 22.9147 207.468 40.2577 207.468 61.6514C207.468 83.0452 225.026 100.388 246.685 100.388Z" fill="white"/>
<path d="M285.903 61.6513C285.903 62.6833 285.867 63.6976 285.778 64.7118C284.194 44.7829 267.255 29.0356 246.668 29.0356C226.08 29.0356 209.159 44.7829 207.557 64.7118C207.486 63.6976 207.433 62.6833 207.433 61.6513C207.433 40.2812 225.031 22.9146 246.65 22.9146C268.305 22.9146 285.903 40.2812 285.903 61.6513Z" fill="#CED3E6"/>
<path d="M243.859 65.6727C243.556 65.6727 243.254 65.5304 243.076 65.2812L223.841 39.694C223.521 39.2669 223.61 38.662 224.037 38.3417C224.464 38.0214 225.086 38.1103 225.407 38.5374L244.179 63.5019L265.514 54.2492C266.012 54.0357 266.581 54.2492 266.813 54.7474C267.026 55.2456 266.813 55.815 266.314 56.0285L244.268 65.5837C244.126 65.6549 243.983 65.6727 243.859 65.6727Z" fill="#39393B"/>
<g opacity="0.8">
<g opacity="0.8">
<path opacity="0.8" d="M128.205 181.388C130.114 188.226 126.14 195.324 119.309 197.235C112.478 199.146 105.387 195.168 103.478 188.33C101.569 181.492 105.543 174.394 112.374 172.483C119.205 170.559 126.296 174.55 128.205 181.388Z" fill="#C5BAFD"/>
</g>
<g opacity="0.8">
<g opacity="0.8">
<path opacity="0.8" d="M87.6633 197.207C88.9253 201.727 86.2982 206.42 81.7821 207.683C77.2661 208.947 72.5784 206.317 71.3163 201.796C70.0542 197.276 72.6814 192.583 77.1974 191.32C81.7134 190.048 86.4012 192.686 87.6633 197.207Z" fill="#C5BAFD"/>
</g>
</g>
</g>
<defs>
<filter id="filter0_i_28_39" x="422.958" y="175.948" width="150.497" height="162.805" filterUnits="userSpaceOnUse" color-interpolation-filters="sRGB">
<feFlood flood-opacity="0" result="BackgroundImageFix"/>
<feBlend mode="normal" in="SourceGraphic" in2="BackgroundImageFix" result="shape"/>
<feColorMatrix in="SourceAlpha" type="matrix" values="0 0 0 0 0 0 0 0 0 0 0 0 0 0 0 0 0 0 127 0" result="hardAlpha"/>
<feOffset dy="4"/>
<feGaussianBlur stdDeviation="2"/>
<feComposite in2="hardAlpha" operator="arithmetic" k2="-1" k3="1"/>
<feColorMatrix type="matrix" values="0 0 0 0 0.917647 0 0 0 0 0.607843 0 0 0 0 0.478431 0 0 0 1 0"/>
<feBlend mode="normal" in2="shape" result="effect1_innerShadow_28_39"/>
</filter>
</defs>
</svg>
