<svg width="614" height="635" viewBox="0 0 614 635" fill="none" xmlns="http://www.w3.org/2000/svg">
<path d="M322.98 143.183L322.688 144.57L322.47 145.684L322.087 147.784C321.849 149.153 321.631 150.485 321.43 151.818C321.047 154.484 320.719 157.094 320.427 159.705C319.862 164.926 319.442 170.093 319.205 175.277C318.968 180.444 318.895 185.61 318.95 190.777C319.023 195.943 319.242 201.092 319.588 206.24C319.953 211.388 320.482 216.536 321.12 221.666C321.485 224.222 321.813 226.796 322.232 229.352C322.433 230.63 322.634 231.908 322.853 233.186L323.564 237.002C323.783 238.28 324.074 239.539 324.33 240.817C324.603 242.077 324.84 243.355 325.15 244.615C325.734 247.134 326.299 249.671 326.974 252.191C327.302 253.451 327.613 254.71 327.959 255.952L329.017 259.712L329.29 260.643L329.418 261.118L329.692 262.067C329.965 262.962 330.239 263.729 330.549 264.514C330.841 265.244 331.151 265.993 331.461 266.65C331.771 267.344 332.099 267.946 332.427 268.567L332.901 269.425C333.065 269.717 333.23 269.991 333.394 270.246L333.886 271.049L334.36 271.798C334.689 272.309 334.999 272.747 335.327 273.204C336.604 274.993 337.862 276.49 339.084 277.859C340.306 279.228 341.491 280.433 342.677 281.565C345.029 283.829 347.309 285.746 349.552 287.553C354.039 291.131 358.434 294.144 362.829 296.955C371.583 302.56 380.282 307.398 389.036 311.943C397.772 316.489 406.563 320.688 415.39 324.705C419.821 326.694 424.253 328.648 428.703 330.547C430.928 331.496 433.153 332.445 435.396 333.376L438.788 334.745L442.272 336.133L457.555 301.556L454.582 300.04L451.536 298.452L445.427 295.257C441.36 293.103 437.293 290.931 433.281 288.703C425.22 284.304 417.25 279.758 409.499 275.121C405.632 272.802 401.821 270.411 398.1 268.019C394.38 265.627 390.751 263.181 387.322 260.698C383.893 258.215 380.629 255.696 377.857 253.25C376.471 252.027 375.212 250.822 374.209 249.763C373.224 248.704 372.477 247.718 372.331 247.389C372.331 247.371 372.294 247.316 372.313 247.316C372.331 247.335 372.331 247.335 372.349 247.353L372.404 247.408C372.422 247.444 372.44 247.462 372.458 247.499C372.531 247.59 372.55 247.663 372.641 247.828C372.696 247.955 372.805 248.138 372.878 248.339C372.987 248.576 373.06 248.795 373.17 249.106L373.243 249.325C373.261 249.398 373.243 249.325 373.243 249.306L373.224 249.215L373.133 248.832L372.951 248.047L372.24 244.943C372.003 243.903 371.802 242.862 371.583 241.821C371.127 239.74 370.781 237.641 370.398 235.541C370.197 234.501 370.051 233.442 369.887 232.383C369.723 231.324 369.54 230.283 369.413 229.225C368.793 225.007 368.319 220.754 367.936 216.482C367.571 212.21 367.334 207.938 367.151 203.648C367.005 199.357 366.969 195.067 367.042 190.795C367.097 186.505 367.279 182.233 367.571 177.961C367.844 173.707 368.227 169.472 368.738 165.291C368.993 163.21 369.285 161.147 369.595 159.139C369.741 158.135 369.905 157.149 370.069 156.181L370.325 154.794L370.525 153.808L322.98 143.183Z" fill="#EA9B7A"/>
<path d="M373.806 154.958L382.487 220.863C369.521 228.129 357.228 233.332 345.921 235.395L373.806 154.958Z" fill="#A92F4B"/>
<path d="M355.372 256.846C355.554 256.846 355.755 256.809 355.919 256.7C362.667 253.03 371.95 249.945 372.041 249.908C372.643 249.708 372.971 249.05 372.77 248.448C372.57 247.846 371.913 247.517 371.311 247.718C370.928 247.846 361.737 250.894 354.806 254.673C354.241 254.984 354.04 255.677 354.35 256.243C354.569 256.627 354.952 256.846 355.372 256.846Z" fill="#D46A43"/>
<path d="M371.034 250.182C371.617 250.182 372.11 249.744 372.183 249.16C372.256 248.521 371.8 247.955 371.162 247.882C366.365 247.353 360.073 247.316 359.818 247.316C359.179 247.316 358.669 247.827 358.669 248.466C358.669 249.105 359.179 249.616 359.818 249.635C359.891 249.635 366.256 249.671 370.924 250.182C370.943 250.182 370.997 250.182 371.034 250.182Z" fill="#D46A43"/>
<path d="M495.908 520.758L507.89 540.329L530.705 530.233L520.346 509.184L495.908 520.758Z" fill="#EA9B7A"/>
<path d="M602.947 541.351L516.666 579.579C515.517 578.703 514.422 577.188 513.401 575.289C509.626 568.224 506.799 555.536 504.684 547.668C504.446 546.755 504.209 545.897 503.972 545.13C503.589 543.834 503.225 542.757 502.896 542.008C500.252 536.002 505.997 534.687 505.997 534.687C518.526 539.398 522.72 522.164 530.362 523.807C530.362 523.807 533.645 524.482 543.219 527.622C552.794 530.762 566.253 529.667 577.998 529.43C593.172 529.119 599.172 532.862 601.506 536.221C603.385 538.905 602.947 541.351 602.947 541.351Z" fill="#FFD147"/>
<path d="M602.947 541.351L516.665 579.58C515.516 578.703 514.422 577.188 513.4 575.289L601.524 536.239C603.384 538.905 602.947 541.351 602.947 541.351Z" fill="#FF9A2C"/>
<path d="M525.472 575.673L522.9 576.805C524.159 572.752 524.578 567.202 521.423 560.922C517.229 552.579 509.569 549.092 504.699 547.668C504.462 546.755 504.225 545.897 503.988 545.13C509.113 546.371 518.414 549.913 523.429 559.918C526.439 565.924 526.457 571.382 525.472 575.673Z" fill="#FF9A2C"/>
<path d="M544.036 533.373C543.397 533.647 542.631 533.483 542.175 532.898C541.647 532.223 541.774 531.237 542.449 530.708L547.245 526.983C547.92 526.454 548.905 526.582 549.434 527.257C549.963 527.933 549.835 528.919 549.16 529.448L544.364 533.172C544.254 533.264 544.145 533.337 544.036 533.373Z" fill="white"/>
<path d="M536.687 531.255C536.049 531.529 535.283 531.365 534.827 530.781C534.298 530.105 534.426 529.119 535.1 528.59L539.897 524.866C540.572 524.336 541.556 524.464 542.085 525.14C542.614 525.815 542.487 526.801 541.812 527.33L537.015 531.055C536.906 531.146 536.796 531.219 536.687 531.255Z" fill="white"/>
<path d="M550.803 534.122C550.165 534.396 549.399 534.231 548.943 533.647C548.414 532.972 548.542 531.986 549.216 531.456L554.013 527.732C554.688 527.203 555.672 527.33 556.201 528.006C556.73 528.681 556.603 529.667 555.928 530.197L551.131 533.921C551.022 534.012 550.912 534.085 550.803 534.122Z" fill="white"/>
<path d="M557.533 534.76C556.894 535.034 556.128 534.87 555.672 534.286C555.143 533.61 555.271 532.624 555.946 532.095L560.742 528.371C561.417 527.841 562.402 527.969 562.931 528.645C563.46 529.32 563.332 530.306 562.657 530.835L557.861 534.56C557.751 534.633 557.642 534.706 557.533 534.76Z" fill="white"/>
<path d="M564.642 534.943C564.004 535.217 563.238 535.053 562.782 534.468C562.253 533.793 562.381 532.807 563.055 532.278L567.852 528.553C568.527 528.024 569.511 528.152 570.04 528.827C570.569 529.503 570.441 530.489 569.767 531.018L564.97 534.742C564.861 534.834 564.751 534.888 564.642 534.943Z" fill="white"/>
<path d="M572.065 534.487C571.427 534.76 570.661 534.596 570.205 534.012C569.676 533.336 569.803 532.351 570.478 531.821L575.275 528.097C575.949 527.568 576.934 527.695 577.463 528.371C577.992 529.046 577.864 530.032 577.19 530.562L572.393 534.286C572.284 534.377 572.174 534.45 572.065 534.487Z" fill="white"/>
<path d="M442.343 331.861C434.337 323.974 371.163 306.339 329.216 318.059C324.402 327.315 318.292 350.774 333.32 372.481C388.452 381.499 419.218 400.066 419.218 400.066C419.218 400.066 438.769 445.287 450.386 461.882C462.003 478.476 488.648 531.182 488.648 531.182L528.789 514.021C528.789 514.021 464.137 353.33 442.343 331.861Z" fill="#39393B"/>
<path d="M484.363 521.251C484.509 521.251 484.655 521.214 484.8 521.159L524.084 504.82C524.668 504.583 524.959 503.889 524.704 503.305C524.467 502.721 523.792 502.429 523.19 502.684L483.907 519.023C483.323 519.261 483.031 519.955 483.287 520.539C483.487 520.977 483.907 521.251 484.363 521.251Z" fill="#585859"/>
<path d="M490.965 517.946C491.111 517.946 491.257 517.928 491.385 517.873C491.987 517.636 492.26 516.961 492.041 516.376C491.968 516.176 483.743 495.637 464.576 466.519C445.536 437.601 425.62 388.692 425.42 388.2C425.183 387.615 424.508 387.323 423.906 387.561C423.323 387.798 423.031 388.473 423.268 389.076C423.468 389.569 443.457 438.678 462.624 467.797C481.664 496.714 489.798 517.034 489.871 517.234C490.072 517.673 490.509 517.946 490.965 517.946Z" fill="#585859"/>
<path d="M366 602.722C229.034 602.722 118 595.968 118 587.637C118 579.306 229.034 572.552 366 572.552C502.967 572.552 614 579.306 614 587.637C614 595.968 502.967 602.722 366 602.722Z" fill="#9DA0AB"/>
<path d="M127 635C75.6376 635 34.0001 628.956 34.0001 621.5C34.0001 614.044 75.6376 608 127 608C178.363 608 220 614.044 220 621.5C220 628.956 178.363 635 127 635Z" fill="#9DA0AB"/>
<path d="M394.618 524.208L397.646 546.956H422.595L421.628 523.533L394.618 524.208Z" fill="#EA9B7A"/>
<path d="M484.144 586.407H389.783C389.09 585.129 388.707 583.322 388.543 581.168C387.959 573.172 390.494 560.429 391.753 552.396C391.899 551.465 392.026 550.589 392.136 549.785C392.318 548.434 392.409 547.321 392.409 546.499C392.409 539.945 398.209 541.059 398.209 541.059C407.765 550.424 418.562 536.367 424.872 540.986C424.872 540.986 427.589 542.939 435.085 549.676C442.581 556.431 455.31 560.867 466.162 565.413C480.168 571.273 484.126 577.115 484.91 581.15C485.53 584.344 484.144 586.407 484.144 586.407Z" fill="#FFD147"/>
<path d="M484.14 586.407H389.78C389.087 585.129 388.704 583.322 388.54 581.168H484.925C485.527 584.344 484.14 586.407 484.14 586.407Z" fill="#FF9A2C"/>
<path d="M399.411 586.407H396.603C399.393 583.212 402.019 578.301 401.673 571.291C401.217 561.962 395.618 555.664 391.733 552.396C391.879 551.465 392.007 550.589 392.116 549.785C396.311 552.998 403.369 560.009 403.916 571.182C404.263 577.863 402.056 582.866 399.411 586.407Z" fill="#FF9A2C"/>
<path d="M433.501 555.244C432.808 555.244 432.17 554.77 431.987 554.058C431.787 553.218 432.279 552.378 433.118 552.177L439.009 550.717C439.847 550.516 440.686 551.009 440.887 551.849C441.088 552.688 440.577 553.528 439.756 553.729L433.866 555.19C433.756 555.226 433.629 555.244 433.501 555.244Z" fill="white"/>
<path d="M427.645 550.333C426.952 550.333 426.314 549.858 426.132 549.146C425.931 548.307 426.423 547.467 427.262 547.266L433.153 545.806C433.992 545.605 434.831 546.116 435.032 546.937C435.232 547.777 434.722 548.617 433.901 548.818L428.01 550.278C427.901 550.315 427.773 550.333 427.645 550.333Z" fill="white"/>
<path d="M439.387 558.676C438.694 558.676 438.056 558.202 437.874 557.49C437.673 556.65 438.166 555.81 439.004 555.609L444.895 554.149C445.734 553.948 446.573 554.441 446.774 555.28C446.974 556.12 446.482 556.96 445.643 557.161L439.752 558.621C439.643 558.658 439.515 558.676 439.387 558.676Z" fill="white"/>
<path d="M445.281 561.98C444.588 561.98 443.95 561.506 443.768 560.794C443.567 559.954 444.059 559.114 444.898 558.913L450.789 557.453C451.628 557.252 452.467 557.745 452.667 558.585C452.868 559.425 452.357 560.264 451.537 560.465L445.646 561.926C445.537 561.962 445.409 561.98 445.281 561.98Z" fill="white"/>
<path d="M451.717 565.029C451.024 565.029 450.385 564.554 450.203 563.842C450.002 563.003 450.513 562.163 451.334 561.962L457.224 560.502C458.063 560.301 458.902 560.794 459.103 561.633C459.303 562.473 458.793 563.313 457.972 563.514L452.081 564.974C451.972 565.011 451.844 565.029 451.717 565.029Z" fill="white"/>
<path d="M458.685 567.622C457.992 567.622 457.353 567.147 457.171 566.435C456.97 565.595 457.463 564.755 458.302 564.554L464.192 563.094C465.031 562.893 465.87 563.386 466.071 564.226C466.271 565.066 465.761 565.905 464.94 566.106L459.049 567.567C458.94 567.603 458.812 567.622 458.685 567.622Z" fill="white"/>
<path d="M205.561 335.968C205.598 336.352 205.652 336.717 205.689 337.064C205.89 337.21 206.072 337.356 206.254 337.502C220.899 348.748 237.988 356.233 255.441 360.486C256.061 360.632 256.663 360.778 257.283 360.925C260.274 361.618 263.283 362.221 266.292 362.714C270.359 363.389 274.426 363.919 278.457 364.265C282.031 364.576 285.587 364.777 289.089 364.831C304.19 365.105 318.506 363.134 330.616 359.281C331.072 359.135 331.546 358.989 332.002 358.825C335.212 357.748 338.239 356.543 341.084 355.21C341.522 355.009 341.959 354.809 342.379 354.59C344.148 353.732 345.844 352.8 347.449 351.833C347.194 346.009 347.121 339.035 347.175 331.587C347.175 330.966 347.175 330.345 347.194 329.725C347.303 319.355 347.613 308.164 348.014 297.941C348.051 297.448 348.069 296.973 348.069 296.498C348.288 291.149 348.543 286.074 348.762 281.565C348.799 281.09 348.817 280.597 348.835 280.141C349.036 276.325 349.236 272.911 349.419 270.118C349.473 269.406 349.51 268.712 349.564 268C349.601 267.453 349.637 266.905 349.674 266.376C349.82 264.404 349.984 262.487 350.148 260.588C350.403 257.558 350.695 254.619 351.005 251.771C351.37 248.521 351.753 245.344 352.154 242.296C352.61 239.009 353.066 235.833 353.558 232.784C354.087 229.516 354.635 226.376 355.218 223.364C357.242 212.739 359.522 203.611 361.802 195.724C361.966 195.176 362.112 194.665 362.276 194.117C363.206 190.977 364.118 188.075 365.012 185.336C365.212 184.734 365.413 184.15 365.595 183.547C370.665 168.486 374.86 159.394 374.933 153.297C375.079 140.609 365.814 136.537 356.148 131.426C355.692 131.188 355.236 130.951 354.78 130.695C353.157 129.819 351.516 128.888 349.947 127.884C349.273 127.464 348.616 127.026 347.978 126.569C347.522 126.259 347.102 125.931 346.683 125.62C342.853 122.663 339.497 118.957 337.309 113.699L300.779 105.995C300.779 105.995 297.278 107.802 291.423 109.372C290.876 109.518 290.311 109.664 289.709 109.81C289.016 109.975 288.305 110.139 287.557 110.285C287.101 110.376 286.609 110.468 286.134 110.559C285.77 110.632 285.387 110.705 285.004 110.76C281.502 111.307 277.453 111.654 272.876 111.563C272.42 111.545 271.946 111.545 271.49 111.526C271.162 111.508 270.833 111.49 270.505 111.49C267.405 111.326 264.45 111.727 261.605 112.64C261.058 112.804 260.529 113.005 260 113.224C248.128 117.971 238.79 132.174 232.753 153.99C231.076 160.051 229.416 165.966 227.811 171.735C227.629 172.374 227.465 172.995 227.282 173.616C226.936 174.875 226.589 176.135 226.243 177.395C226.115 177.851 225.987 178.308 225.86 178.764C224.619 183.237 223.416 187.655 222.249 192.018C222.249 192.018 222.249 192.018 222.249 192.036C222.121 192.493 221.993 192.967 221.884 193.424C221.884 193.424 221.884 193.424 221.884 193.442C221.811 193.698 221.756 193.935 221.683 194.172L221.027 196.728C216.978 212.337 213.604 227.38 211.434 242.551C210.978 245.71 210.577 248.868 210.248 252.044C210.157 252.811 210.066 253.669 209.975 254.637C209.957 254.819 209.938 254.984 209.92 255.166C209.884 255.495 209.847 255.823 209.811 256.17C209.792 256.335 209.774 256.517 209.756 256.682C209.172 262.432 208.425 270.392 207.677 279.173C207.64 279.63 207.586 280.104 207.549 280.579C205.871 300.953 204.358 325.27 205.561 335.968Z" fill="#FE5A5D"/>
<path d="M316.738 135.186C302.148 132.101 294.27 113.845 293.941 113.041C293.722 112.512 293.96 111.891 294.488 111.672C295.017 111.453 295.637 111.69 295.856 112.22C295.929 112.402 303.936 131.006 318.015 133.288C331.857 135.533 337.365 125.346 337.602 124.908C337.875 124.397 338.496 124.196 339.006 124.47C339.517 124.744 339.717 125.364 339.444 125.876C339.389 126.003 333.043 137.852 317.668 135.351C317.358 135.314 317.048 135.241 316.738 135.186Z" fill="#A92F4B"/>
<path d="M301.95 329.506C288.236 326.621 274.065 319.556 259.895 308.474C240.453 293.267 227.687 275.631 227.559 275.449C227.231 274.974 227.322 274.335 227.797 273.988C228.271 273.66 228.927 273.751 229.256 274.226C229.383 274.408 242.004 291.825 261.208 306.85C278.825 320.633 305.78 335.165 334.085 326.11C334.632 325.927 335.215 326.238 335.398 326.785C335.58 327.333 335.27 327.917 334.723 328.1C324.291 331.441 313.276 331.897 301.95 329.506Z" fill="#A92F4B"/>
<path d="M310.16 319.027C310.142 319.027 310.142 319.027 310.16 319.027C288.786 314.152 277.314 281.875 276.822 280.506C276.639 279.959 276.913 279.374 277.46 279.173C278.007 278.991 278.591 279.265 278.791 279.812C278.901 280.141 290.372 312.363 310.598 316.982C311.163 317.11 311.509 317.676 311.382 318.242C311.254 318.789 310.707 319.136 310.16 319.027Z" fill="#A92F4B"/>
<path d="M349.608 267.982C346.963 266.156 344.465 263.893 342.495 261.319C337.735 255.111 337.097 248.758 340.69 243.428C341.419 242.369 342.076 241.401 342.696 240.488C350.046 229.754 350.811 228.64 350.173 210.986C349.973 205.436 351.541 201.055 354.824 198.024C357.03 195.961 359.73 194.775 362.319 194.081C362.155 194.61 362.009 195.14 361.845 195.687C359.693 196.345 357.541 197.404 355.772 199.047C352.799 201.803 351.395 205.82 351.577 210.95C352.234 229.06 351.286 230.447 343.863 241.292C343.243 242.204 342.586 243.172 341.857 244.231C337.48 250.675 341.073 257.174 343.608 260.479C345.304 262.688 347.438 264.696 349.717 266.357C349.681 266.887 349.626 267.434 349.608 267.982Z" fill="#A92F4B"/>
<path d="M209.776 256.609C212.622 258.27 215.375 259.311 218.002 259.877C225.096 261.374 231.242 259.219 235.2 255.24C239.923 250.475 241.765 242.278 236.13 235.851C230.695 229.626 233.029 226.322 235.984 222.123C238.902 217.997 242.531 212.849 238.756 203.812C236.586 198.609 233.248 195.049 228.835 193.26C226.628 192.365 224.385 192 222.269 191.945C222.142 192.402 222.014 192.876 221.904 193.333C223.965 193.351 226.172 193.68 228.324 194.556C232.373 196.199 235.455 199.503 237.479 204.341C240.963 212.666 237.844 217.048 234.853 221.301C231.807 225.628 228.926 229.717 235.09 236.746C239.631 241.931 239.285 249.124 234.215 254.217C229.108 259.365 220.008 261.155 209.941 255.039C209.904 255.367 209.868 255.696 209.831 256.043C209.813 256.262 209.795 256.445 209.776 256.609Z" fill="#A92F4B"/>
<path d="M305.052 261.866C301.532 267.927 293.909 270.83 286.942 268.804C285.885 268.493 284.772 268.092 283.66 267.617C274.705 263.783 264.383 254.746 260.425 244.231C257.379 236.125 258.309 227.818 263.142 220.242C270.291 209.033 274.431 198.609 275.124 190.138C275.544 185.117 278.991 181.229 283.897 180.225C288.839 179.22 293.544 181.448 295.897 185.902C296.025 186.14 296.152 186.377 296.28 186.614C302.298 198.371 298.706 206.879 295.532 214.382C292.213 222.232 289.35 229.005 298.414 237.805C306.657 245.801 309.137 254.801 305.052 261.866ZM297.429 238.79C287.654 229.316 290.863 221.776 294.237 213.816C297.447 206.24 300.748 198.426 295.022 187.235C294.894 186.998 294.784 186.76 294.657 186.541C293.563 184.478 291.903 182.963 289.933 182.123C288.182 181.375 286.195 181.156 284.17 181.576C279.866 182.47 276.857 185.866 276.492 190.247C276.073 195.176 274.632 200.562 272.133 206.386C270.164 211.005 267.538 215.861 264.291 220.972C259.641 228.275 258.784 235.924 261.702 243.738C265.987 255.166 278.097 264.769 287.307 267.453C293.69 269.315 300.62 266.668 303.83 261.154C307.587 254.692 305.198 246.33 297.429 238.79Z" fill="#A92F4B"/>
<path d="M365.657 183.511C365.457 184.095 365.274 184.679 365.074 185.282C360.204 187.235 355.718 187.162 352.143 186.395C350.319 186.012 348.733 185.446 347.438 184.898C338.52 181.046 332.465 172.776 332.611 167.774C332.666 165.894 333.614 164.524 335.274 163.922C344.866 160.417 348.769 154.082 350.228 139.678C350.629 135.771 352.18 132.74 354.861 130.641C355.317 130.878 355.772 131.116 356.228 131.371C356.119 131.444 356.01 131.536 355.882 131.627C353.42 133.471 351.997 136.227 351.633 139.824C350.119 154.885 345.961 161.53 335.766 165.236C334.635 165.656 334.07 166.496 334.033 167.811C333.906 172.356 339.851 180.079 348.022 183.621C351.778 185.282 358.326 186.907 365.657 183.511Z" fill="#A92F4B"/>
<path d="M316.139 185.829C314.424 187.692 311.652 188.385 308.898 187.819C307.986 187.619 307.074 187.29 306.217 186.815C301.804 184.369 300.162 179.257 301.822 173.16C303.555 166.806 300.254 163.758 297.062 160.818C294.254 158.244 291.372 155.579 293.652 151.015C295.402 147.51 298.649 145.867 302.989 146.268C308.114 146.761 312.6 149.901 315.008 154.684C319.093 162.772 323.014 178.381 316.139 185.829ZM313.768 155.305C311.834 151.453 308.278 148.696 304.284 147.856C303.81 147.765 303.336 147.692 302.862 147.637C299.068 147.272 296.387 148.623 294.892 151.617C293.068 155.25 295.147 157.149 298.01 159.778C301.184 162.699 305.123 166.332 303.172 173.506C301.694 178.947 303.08 183.456 306.892 185.574C309.755 187.162 313.293 186.87 315.117 184.88C321.5 177.961 317.689 163.064 313.768 155.305Z" fill="#A92F4B"/>
<path d="M336.656 235.248C335.872 238.936 334.394 241.93 331.841 243.427C328.011 245.673 324.254 246.549 321.482 245.965C320.279 245.709 319.275 245.18 318.51 244.377C316.248 241.948 316.996 237.585 320.552 232.4C324.674 226.394 321.063 222.579 317.215 218.526C313.95 215.075 310.558 211.515 312.455 206.641C313.822 203.136 316.959 201.511 321.537 201.913C329.215 202.606 335.543 208.777 336.583 216.609C337.404 222.706 337.823 229.753 336.656 235.248ZM335.215 216.81C334.777 213.505 333.318 210.53 331.203 208.211C329.069 205.892 326.279 204.231 323.16 203.574C322.595 203.446 322.029 203.373 321.428 203.318C317.434 202.971 314.917 204.213 313.768 207.152C312.181 211.205 315.117 214.309 318.218 217.576C322.084 221.648 326.461 226.266 321.701 233.204C318.546 237.786 317.744 241.529 319.531 243.427C321.519 245.563 326.279 245.07 331.13 242.222C335.58 239.612 337.039 230.575 335.215 216.81Z" fill="#A92F4B"/>
<path d="M348.039 297.923C342.44 295.896 340.562 298.708 337.845 302.779C335.401 306.412 332.373 310.939 325.571 312.546C323.255 313.093 321.03 313.075 318.932 312.637C313.443 311.487 308.956 307.379 306.804 302.779C303.905 296.59 305.181 290.419 310.16 286.658C312.33 285.034 313.461 283.482 313.68 281.93C313.972 279.739 312.33 277.622 310.58 275.376C308.154 272.254 305.4 268.731 307.516 264.203C309.175 260.643 312.294 258.526 316.306 258.215C322.981 257.722 330.458 262.25 335.364 269.717C339.559 276.106 344.866 278.9 348.896 280.104C348.878 280.561 348.842 281.054 348.824 281.528C344.501 280.287 338.72 277.348 334.215 270.483C330.495 264.824 325.261 260.954 320.154 259.877C318.896 259.603 317.637 259.511 316.416 259.603C312.932 259.858 310.233 261.702 308.792 264.787C307.06 268.53 309.321 271.433 311.71 274.5C313.552 276.873 315.467 279.319 315.102 282.094C314.847 284.03 313.516 285.873 311.054 287.754C305.783 291.734 306.075 297.813 308.117 302.176C310.853 308.018 317.637 312.984 325.297 311.177C331.571 309.698 334.325 305.608 336.732 301.994C339.449 297.923 341.82 294.381 348.149 296.462C348.076 296.955 348.058 297.43 348.039 297.923Z" fill="#A92F4B"/>
<path d="M277.132 280.999C276.658 283.427 275.199 285.089 273.047 285.673C271.898 285.983 270.621 285.983 269.272 285.709C266.263 285.07 262.962 283.026 260.263 279.959C257.49 276.819 254.718 277.22 250.888 277.768C247.168 278.297 242.536 278.973 236.627 276.289C230.061 273.295 228.967 267.088 230.718 262.579C232.323 258.508 236.645 254.966 242.372 256.865C246.475 258.216 249.138 260.315 251.509 262.141C255.12 264.952 258.22 267.38 265.351 266.942C268.889 266.723 271.734 267.672 273.758 269.753C277.698 273.788 277.169 280.634 277.15 280.908C277.132 280.963 277.132 280.981 277.132 280.999ZM275.764 280.78C275.801 280.251 276.129 274.19 272.755 270.739C271.023 268.968 268.561 268.165 265.442 268.348C257.8 268.804 254.335 266.12 250.67 263.254C248.28 261.392 245.818 259.475 241.934 258.179C237.064 256.572 233.38 259.603 232.031 263.09C230.499 266.997 231.466 272.401 237.21 275.011C242.755 277.531 246.986 276.928 250.706 276.399C252.858 276.088 254.828 275.815 256.724 276.216C258.311 276.545 259.825 277.366 261.32 279.046C264.84 283.026 269.527 285.216 272.7 284.358C274.324 283.884 275.381 282.661 275.764 280.78Z" fill="#A92F4B"/>
<path d="M216.071 314.59C220.849 322.513 218.843 331.331 214.101 335.293C211.822 337.191 209.123 337.94 206.259 337.502C206.077 337.356 205.895 337.21 205.694 337.064C205.639 336.717 205.603 336.352 205.548 335.968C208.357 336.644 210.983 336.078 213.208 334.216C217.475 330.637 219.281 322.586 214.867 315.32C210.399 307.945 213.919 305.663 217.64 303.253C221.05 301.026 224.606 298.744 224.059 292.117C223.786 288.849 222.472 286.22 220.12 284.303C218.077 282.642 215.469 281.674 212.916 281.127C211.019 280.725 209.141 280.561 207.536 280.506C207.572 280.031 207.609 279.575 207.645 279.1C211.603 279.246 217.129 280.068 220.995 283.226C223.64 285.38 225.135 288.338 225.427 292.007C226.029 299.456 221.779 302.213 218.369 304.422C214.74 306.795 212.314 308.383 216.071 314.59Z" fill="#A92F4B"/>
<path d="M332.007 358.807C331.551 358.971 331.095 359.117 330.621 359.263C330.566 357.109 330.055 352.49 326.864 349.387C324.201 346.812 320.225 345.79 315.046 346.356C308.17 347.123 305.052 349.971 302.316 352.49C297.702 356.726 294.492 358.734 282.456 350.865C277.878 347.871 273.629 346.119 269.926 345.334C263.945 344.074 259.349 345.315 256.941 347.798C253.987 350.847 254.133 355.685 257.288 360.906C256.668 360.76 256.066 360.614 255.446 360.468C252.583 355.101 252.728 350.117 255.92 346.812C260.206 342.394 270.565 341.409 283.203 349.679C294.93 357.365 297.356 355.137 301.368 351.45C304.122 348.912 307.569 345.754 314.9 344.95C320.517 344.33 324.876 345.48 327.849 348.383C331.204 351.687 331.897 356.306 332.007 358.807Z" fill="#A92F4B"/>
<path d="M253.716 336.352C251.965 340.094 246.202 343.179 240.822 342.047C240.585 341.993 240.348 341.938 240.129 341.865C231.922 339.546 227.199 332.883 226.834 323.116C226.561 315.558 227.254 308.146 234.239 304.933C234.275 304.914 234.311 304.896 234.366 304.896C234.694 304.823 242.427 302.943 247.242 306.211C249.266 307.58 250.47 309.661 250.816 312.363C251.455 317.146 249.996 320.085 248.956 322.221C247.643 324.85 247.059 326.055 251.072 328.793C254.044 330.856 255.011 333.613 253.716 336.352ZM250.288 329.98C245.509 326.712 246.202 324.686 247.698 321.637C248.719 319.556 250.014 316.945 249.449 312.582C249.139 310.282 248.136 308.529 246.458 307.379C242.354 304.586 235.479 306.083 234.767 306.247C229.77 308.566 227.874 313.458 228.238 323.061C228.475 329.505 230.81 337.776 240.512 340.532C245.345 341.883 250.908 339.09 252.458 335.767C253.461 333.631 252.713 331.641 250.288 329.98Z" fill="#A92F4B"/>
<path d="M342.386 354.571C341.967 354.791 341.529 354.991 341.092 355.192C338.174 351.778 336.97 348.054 337.535 344.165C338.447 337.849 343.718 332.554 347.201 329.707C347.183 330.327 347.183 330.948 347.183 331.569C343.937 334.435 339.669 339.072 338.903 344.366C338.392 347.908 339.523 351.285 342.259 354.444C342.314 354.48 342.35 354.535 342.386 354.571Z" fill="#A92F4B"/>
<path d="M369.246 50.788C369.246 50.788 389.945 46.4065 390.438 38.5016C390.876 31.1991 382.267 31.9659 382.267 31.9659C382.267 31.9659 392.316 15.4623 386.553 12.2309C380.79 8.9813 373.513 18.2372 373.513 18.2372C373.513 18.2372 378.784 -1.33347 371.744 0.0722581C364.705 1.47799 363.793 12.2309 363.793 12.2309C363.793 12.2309 340.394 3.8878 327.099 7.88592C318.035 10.6061 315.901 19.3326 315.901 19.3326C315.901 19.3326 310.521 16.1195 306.691 18.0912C302.88 20.0628 306.363 26.7811 306.363 26.7811C306.363 26.7811 300.454 31.3269 302.26 38.5564C304.065 45.7858 309.226 60.0622 309.226 60.0622L369.246 50.788Z" fill="#39393B"/>
<path d="M340.03 108.295L338.024 117.825C336.729 118.482 335.434 119.03 334.158 119.468C315.556 125.912 300.327 109.865 300.327 109.865L307.276 76.8579L336.127 104.553L340.03 108.295Z" fill="#EA9B7A"/>
<path d="M340.03 108.295L338.024 117.825C336.729 118.482 335.435 119.03 334.158 119.468C321.264 110.924 314.133 94.0006 314.133 94.0006L336.109 104.553L340.03 108.295Z" fill="#39393B"/>
<path d="M358.343 31.1986C358.343 31.1986 380.866 38.209 367.498 60.5364C367.517 60.5181 356.501 37.3692 358.343 31.1986Z" fill="#39393B"/>
<path d="M360.805 68.6056C360.805 68.6056 367.553 63.3478 369.267 70.3947C370.981 77.4233 365.911 89.8558 358.124 86.022L360.805 68.6056Z" fill="#D46A43"/>
<path d="M361.845 92.2298C361.845 92.2298 357.723 111.928 337.279 107.565C316.962 103.238 306.476 84.3431 305.91 83.4485C305.892 83.4303 305.892 83.4303 305.892 83.4303L306.549 79.2496L309.923 57.5247L311.728 45.9137C311.728 45.9137 313.479 24.7 333.887 25.0651C348.805 25.339 361.735 30.5603 366.951 39.4693C368.866 42.7554 369.742 46.5527 369.268 50.7881L365.565 71.5455L364.653 76.639L361.845 92.2298Z" fill="#EA9B7A"/>
<path d="M353.18 81.4219C353.18 81.4219 341.672 80.2352 336.036 77.0039C336.036 77.0039 333.52 88.2497 343.24 89.2173C351.046 90.0023 353.18 81.4219 353.18 81.4219Z" fill="white"/>
<path d="M338.338 68.4418C338.027 69.884 334.836 70.4134 331.207 69.6467C327.577 68.8799 324.86 67.0908 325.17 65.6668C325.48 64.2246 328.672 63.6951 332.301 64.4619C335.93 65.2287 338.629 66.9995 338.338 68.4418Z" fill="#D46A43"/>
<path d="M364.633 76.6206C364.122 76.5658 363.575 76.4745 363.028 76.365C359.399 75.5982 356.682 73.8091 356.992 72.3851C357.302 70.9611 360.493 70.4135 364.122 71.1802C364.615 71.2898 365.089 71.3993 365.545 71.5453L364.633 76.6206Z" fill="#D46A43"/>
<path d="M339.775 60.5001C339.356 62.4718 338.134 63.8775 337.04 63.6402C335.945 63.4028 335.38 61.632 335.8 59.6603C336.219 57.6886 337.441 56.2829 338.535 56.5203C339.629 56.7576 340.195 58.5284 339.775 60.5001Z" fill="#39393B"/>
<path d="M359.231 64.608C358.812 66.5796 357.59 67.9854 356.495 67.748C355.401 67.5107 354.836 65.7398 355.255 63.7682C355.675 61.7965 356.897 60.3908 357.991 60.6281C359.085 60.8655 359.65 62.6363 359.231 64.608Z" fill="#39393B"/>
<path d="M347.14 72.4033C346.684 72.3121 346.411 71.8739 346.502 71.4175C346.593 70.9793 347.031 70.6873 347.487 70.7785C350.46 71.3993 352.174 70.1396 352.794 69.5371C350.97 62.1981 349.183 54.8043 349.165 54.7313C349.055 54.2932 349.329 53.8368 349.767 53.7272C350.204 53.6177 350.66 53.8915 350.77 54.3297C350.788 54.4027 352.648 62.0703 354.508 69.5554C354.563 69.7927 354.508 70.0483 354.362 70.2491C354.253 70.4134 351.937 73.4257 347.14 72.4033Z" fill="#39393B"/>
<path d="M331.846 49.4002C332.739 47.4103 335.293 43.8869 341.986 44.9822C342.807 45.11 343.427 45.8038 343.463 46.6253C343.518 47.6659 342.697 48.5422 341.658 48.5239C339.834 48.4692 337.08 48.8891 335.001 51.4632C334.363 52.2665 333.141 52.303 332.411 51.591L332.247 51.4267C331.682 50.8972 331.536 50.094 331.846 49.4002Z" fill="#39393B"/>
<path d="M365.857 56.5746C365.839 54.4021 364.945 50.1301 358.362 48.4323C357.559 48.2315 356.72 48.6149 356.337 49.3451C355.863 50.2762 356.264 51.4081 357.231 51.8097C358.927 52.5035 361.28 54.0004 362.137 57.177C362.41 58.1629 363.486 58.6923 364.453 58.3455L364.672 58.2724C365.401 58.0168 365.857 57.3231 365.857 56.5746Z" fill="#39393B"/>
<path d="M314.008 76.8033C313.862 77.0041 310.014 82.4628 305.929 83.4486C305.91 83.4304 305.91 83.4303 305.91 83.4303L306.567 79.2497C306.549 79.2314 309.886 79.3592 314.008 76.8033Z" fill="#39393B"/>
<path d="M313.278 62.3809C313.278 62.3809 307.643 50.1493 300.129 57.2509C293.946 63.0929 299.162 82.8279 309.85 78.702L313.278 62.3809Z" fill="#EA9B7A"/>
<path d="M309.428 75.2696C309.026 75.1783 308.735 74.7949 308.771 74.375C309.574 66.1962 303.464 61.979 303.209 61.8147C302.826 61.5591 302.734 61.048 302.99 60.6646C303.245 60.2812 303.756 60.1899 304.139 60.4273C304.431 60.6281 311.343 65.3382 310.431 74.521C310.394 74.9775 309.975 75.3061 309.519 75.2696C309.501 75.2878 309.464 75.2878 309.428 75.2696Z" fill="#39393B"/>
<path d="M302.921 68.7701C302.684 68.7153 302.483 68.5693 302.355 68.3319C302.155 67.9303 302.301 67.4191 302.72 67.2183C303.103 67.0175 306.477 65.3379 308.775 66.4881C309.176 66.6889 309.359 67.1818 309.158 67.6017C308.957 68.0033 308.465 68.1859 308.046 67.9851C306.732 67.3279 304.234 68.3137 303.468 68.7153C303.304 68.7884 303.103 68.8066 302.921 68.7701Z" fill="#39393B"/>
<path d="M366.931 38.7794C366.639 39.4535 366.219 39.9966 365.672 40.3898C360.821 43.8166 351.739 40.2587 343.605 35.6147C335.471 30.9708 328.03 36.1391 328.03 36.1391C328.687 45.2211 320.352 44.135 320.772 51.0073C321.191 57.8797 318.765 66.2875 318.765 66.2875L313.805 64.4899C313.331 61.2129 311.343 58.7036 309.939 57.2992L311.744 45.3896C311.744 45.3896 313.495 23.6303 333.903 24.0048C348.784 24.2857 361.733 29.6225 366.931 38.7794Z" fill="#39393B"/>
<path d="M214.575 318.698C214.575 318.698 195.098 395.611 296.079 395.611C350.007 395.611 375.649 390.408 375.649 390.408C375.649 390.408 376.944 438.075 379.461 458.194C381.977 478.312 390.859 528.407 390.859 528.407L433.334 531.693C433.334 531.693 440.118 357.164 414.094 341.098C388.069 325.033 350.627 324.558 286.358 318.369C286.34 318.369 228.637 308.602 214.575 318.698Z" fill="#39393B"/>
<path d="M396.657 514.459C396.748 514.459 396.839 514.441 396.93 514.423C397.55 514.277 397.933 513.656 397.788 513.035C391.915 488.481 389.581 453.319 387.72 425.059C385.878 397.2 384.766 382.54 381.884 379.984C378.693 377.173 369.246 378.177 353.58 379.838C334.157 381.901 304.831 385.023 273.189 381.39C257.468 379.582 245.432 373.43 237.389 363.079C222.963 344.512 226.264 318.461 226.3 318.205C226.392 317.566 225.936 316.982 225.316 316.909C224.677 316.818 224.094 317.274 224.021 317.895C223.875 318.99 220.537 345.151 235.565 364.485C244.009 375.347 256.575 381.81 272.934 383.69C304.831 387.36 334.321 384.219 353.835 382.138C367.313 380.696 377.945 379.564 380.371 381.718C380.918 382.211 382.012 384.603 383.125 395.173C383.964 402.987 384.638 413.283 385.423 425.223C387.301 453.575 389.635 488.846 395.563 513.583C395.672 514.112 396.146 514.459 396.657 514.459Z" fill="#585859"/>
<path d="M432.859 517.928C433.461 517.928 433.972 517.453 434.008 516.833C434.045 516.194 433.552 515.646 432.932 515.61L389.49 512.981C388.852 512.944 388.305 513.437 388.268 514.058C388.232 514.697 388.724 515.244 389.344 515.281L432.786 517.91C432.823 517.928 432.841 517.928 432.859 517.928Z" fill="#585859"/>
<path d="M316.012 340.715H443.255C443.546 340.715 443.783 340.478 443.783 340.186V324.504C443.783 324.211 443.546 323.974 443.255 323.974H316.012C315.72 323.974 315.483 324.211 315.483 324.504V340.186C315.483 340.478 315.72 340.715 316.012 340.715Z" fill="#CED3E6"/>
<path d="M457.17 340.715C462.003 340.715 466.216 337.465 467.474 332.792L491.475 242.844C492.934 237.348 488.794 231.945 483.122 231.945H425.674C421.808 231.945 418.397 234.519 417.34 238.261L388.597 340.697H457.17V340.715Z" fill="white"/>
<path d="M417.318 238.279L388.813 339.875H382.247L410.753 238.279C411.81 234.537 415.203 231.963 419.087 231.963H425.653C421.786 231.945 418.376 234.537 417.318 238.279Z" fill="#CED3E6"/>
<path d="M433.552 287.79C432.239 293.431 435.758 298.014 441.412 298.014C447.047 298.014 452.683 293.431 453.996 287.79C455.309 282.149 451.789 277.567 446.136 277.567C440.5 277.567 434.865 282.149 433.552 287.79Z" fill="#CED3E6"/>
<path d="M355.203 304.057C355.203 304.057 381.246 305.846 389.563 313.824L384.493 331.861C384.493 331.861 368.918 325.489 364.614 326.11C360.291 326.731 357.72 333.814 343.294 329.506L355.203 304.057Z" fill="#EA9B7A"/>
<path d="M355.076 302.87L352.14 301.665L349.095 300.387C347.052 299.529 345.028 298.634 342.985 297.722C338.918 295.914 334.888 294.052 330.875 292.117C322.869 288.265 315.009 284.175 307.44 279.849C299.872 275.504 292.54 270.903 285.865 265.974C284.206 264.733 282.564 263.491 280.996 262.231C279.427 260.954 277.914 259.676 276.455 258.379C273.591 255.787 270.965 253.122 268.904 250.529C267.883 249.251 266.971 247.955 266.296 246.823C265.695 245.783 265.111 244.632 264.6 243.336C263.579 240.762 262.777 237.713 262.229 234.372C261.153 227.654 261.117 219.895 261.81 211.954C262.503 203.994 263.907 195.779 265.749 187.618C266.679 183.529 267.737 179.44 268.886 175.405C269.47 173.378 270.071 171.37 270.692 169.399C271.002 168.413 271.33 167.427 271.64 166.459L272.114 165.054L272.351 164.378L272.461 164.068L272.515 163.922L272.534 163.867C278.023 152.402 273.19 138.637 261.737 133.142C250.284 127.647 236.533 132.485 231.043 143.949C230.514 145.063 230.077 146.195 229.73 147.327L229.037 149.718L228.855 150.357L228.709 150.869L228.435 151.854L227.943 153.753C227.633 155.013 227.323 156.236 227.031 157.477C226.447 159.942 225.9 162.388 225.408 164.835C224.387 169.745 223.511 174.656 222.763 179.622C221.286 189.553 220.283 199.649 220.155 210.092C220.083 215.313 220.265 220.626 220.739 226.029C221.231 231.452 222.07 236.983 223.438 242.643C224.824 248.302 226.776 254.089 229.657 259.858C231.116 262.743 232.812 265.591 234.8 268.347C236.733 271.013 238.703 273.313 240.727 275.486C244.776 279.794 248.953 283.372 253.165 286.64C257.378 289.871 261.646 292.774 265.932 295.476C274.503 300.843 283.166 305.407 291.902 309.588C300.638 313.751 309.446 317.511 318.31 320.998C322.741 322.733 327.191 324.412 331.678 326.019C333.921 326.822 336.164 327.607 338.426 328.374L341.836 329.524L345.392 330.674C353.107 333.157 361.387 328.921 363.885 321.199C366.256 313.842 362.536 305.992 355.496 303.089L355.076 302.87Z" fill="#EA9B7A"/>
<path d="M248.515 253.377C248.606 253.377 248.697 253.359 248.77 253.341C257.652 250.675 267.573 251.077 267.664 251.095C268.175 251.114 268.594 250.73 268.612 250.219C268.631 249.708 268.248 249.288 267.737 249.27C267.318 249.251 257.415 248.832 248.223 251.588C247.749 251.734 247.475 252.245 247.603 252.72C247.767 253.122 248.132 253.377 248.515 253.377Z" fill="#D46A43"/>
<path d="M265.438 251.059C265.693 251.059 265.949 250.949 266.131 250.748C266.459 250.365 266.423 249.799 266.04 249.452C262.721 246.586 258.562 245.326 258.38 245.271C257.906 245.125 257.395 245.399 257.249 245.892C257.103 246.367 257.377 246.878 257.869 247.024C257.906 247.042 261.845 248.229 264.854 250.821C265 250.986 265.219 251.059 265.438 251.059Z" fill="#D46A43"/>
<path d="M216.051 195.231L234.927 200.416L236.313 200.799L249.353 204.378L250.94 204.816L267.718 209.416L269.013 203.465L269.305 202.041L272.332 188.056L272.642 186.651L278.351 160.271C279.901 154.173 280.922 146.542 280.065 140.316C278.807 131.097 270.727 119.139 255.827 118.336C253.165 118.19 250.666 118.592 248.332 119.45C247.858 119.596 247.383 119.796 246.928 119.997C242.423 122.042 238.52 125.803 235.164 130.641C234.891 131.024 234.635 131.407 234.398 131.809C228.015 141.521 223.656 155.104 220.738 167.81C220.611 168.303 220.501 168.796 220.392 169.289C219.042 175.332 218.021 181.156 217.255 186.194C217.127 186.979 217.018 187.746 216.927 188.495C216.562 191.014 216.27 193.278 216.051 195.231Z" fill="#FE5A5D"/>
<path d="M217.254 186.194C219.498 184.149 222.525 182.726 227.194 183.565C232.738 184.551 237.097 182.762 238.848 178.764C240.179 175.77 239.559 172.265 237.425 170.622C233.158 167.336 226.61 167.609 220.391 169.289C220.501 168.796 220.61 168.303 220.738 167.81C227.121 166.185 233.796 166.076 238.282 169.508C240.288 171.06 241.219 173.762 240.89 176.555C240.781 177.486 240.525 178.417 240.143 179.33C238.1 183.949 233.158 186.048 226.939 184.935C221.923 184.022 219.151 185.975 216.926 188.494C217.017 187.764 217.127 186.997 217.254 186.194Z" fill="#A92F4B"/>
<path d="M236.97 144.899C240.836 139.294 237.937 135.588 234.399 131.827C234.636 131.426 234.891 131.042 235.165 130.659C238.903 134.584 242.678 139.093 238.119 145.702C234.964 150.284 234.18 154.009 235.949 155.926C237.937 158.062 242.715 157.569 247.548 154.721C251.998 152.092 253.439 143.073 251.633 129.308C251.195 126.004 249.736 123.028 247.621 120.709C247.402 120.472 247.165 120.235 246.928 120.016C247.384 119.815 247.858 119.614 248.332 119.468C250.831 122.042 252.508 125.383 253.019 129.107C253.803 135.186 254.223 142.252 253.074 147.728C252.29 151.416 250.812 154.41 248.259 155.926C244.429 158.171 240.654 159.047 237.9 158.463C236.697 158.208 235.675 157.678 234.928 156.875C232.666 154.447 233.414 150.084 236.97 144.899Z" fill="#A92F4B"/>
<path d="M272.296 186.833C275.396 168.376 279.317 151.106 279.354 150.923C279.445 150.558 279.81 150.321 280.175 150.412C280.539 150.503 280.776 150.869 280.685 151.234C280.649 151.416 276.746 168.595 273.664 186.961C273.463 187.673 272.296 187.71 272.296 186.833Z" fill="#A92F4B"/>
<path d="M277.293 164.561C277.421 164.561 277.548 164.524 277.658 164.451L284.77 159.887C285.08 159.686 285.19 159.266 284.971 158.938C284.77 158.609 284.351 158.518 284.023 158.737L276.91 163.301C276.6 163.502 276.491 163.922 276.709 164.25C276.837 164.451 277.074 164.561 277.293 164.561Z" fill="#A92F4B"/>
<path d="M218.843 503.141H355.223C358.414 503.141 361.004 500.548 361.004 497.353C361.004 494.159 358.414 491.566 355.223 491.566H218.843C215.651 491.566 213.062 494.159 213.062 497.353C213.062 500.548 215.651 503.141 218.843 503.141Z" fill="#19CEDA"/>
<path d="M367.766 591.446C368.022 591.446 368.277 591.428 368.532 591.391C371.688 590.971 373.912 588.05 373.493 584.892L348.654 399.226C348.271 396.36 345.827 394.206 342.927 394.206H231.66C228.76 394.206 226.316 396.36 225.933 399.226L201.477 584.91C201.058 588.069 203.283 590.99 206.456 591.391C209.611 591.811 212.529 589.584 212.93 586.407L236.73 405.762H337.875L362.04 586.426C362.441 589.347 364.921 591.446 367.766 591.446Z" fill="#02ACB7"/>
<path d="M310.7 399.993H238.443C215.555 399.993 191.026 387.451 187.524 364.813C182.819 334.526 181.67 305.206 182.965 278.297C184.442 247.864 196.26 219.603 220.169 200.744C220.169 200.744 209.847 318.132 219.166 350.555C231.586 393.877 310.7 399.993 310.7 399.993Z" fill="#19CEDA"/>
<path d="M531.852 158.263V192.986C531.852 197.568 528.132 201.292 523.554 201.292H460.562L441.54 208.12C439.589 208.814 437.711 206.897 438.476 204.962L445.662 186.359V158.244C445.662 153.662 449.383 149.938 453.978 149.938H523.554C528.132 149.938 531.852 153.662 531.852 158.263Z" fill="#5842DB"/>
<path d="M477.139 176.61C477.139 179.933 474.458 182.616 471.139 182.616C467.819 182.616 465.138 179.914 465.138 176.61C465.138 173.287 467.819 170.604 471.139 170.604C474.439 170.586 477.139 173.287 477.139 176.61Z" fill="white"/>
<path d="M496.143 176.61C496.143 179.933 493.462 182.616 490.142 182.616C486.823 182.616 484.142 179.914 484.142 176.61C484.142 173.287 486.823 170.604 490.142 170.604C493.462 170.585 496.143 173.287 496.143 176.61Z" fill="white"/>
<path d="M515.163 176.61C515.163 179.933 512.464 182.616 509.163 182.616C505.844 182.616 503.163 179.914 503.163 176.61C503.163 173.287 505.862 170.604 509.163 170.604C512.482 170.585 515.163 173.287 515.163 176.61Z" fill="white"/>
<path d="M165.565 447.877C158.291 444.104 154.073 445.146 152.872 446.139C123.379 473.127 138.794 513.979 150.188 531.032C169.283 532.414 188.606 522.108 195.881 516.782C199.314 514.249 205.255 508.009 201.556 503.31C196.933 497.437 195.051 492.528 195.261 488.659C195.472 484.79 197.921 483.226 201.741 482.144C204.797 481.278 211.665 480.783 214.717 480.644C226.539 478.253 225.925 469.524 224.14 465.459C220.26 458.431 215.354 444.047 226.774 442.727C238.193 441.408 238.386 429.424 237.056 423.598C231.409 408.871 222.399 410.553 221.75 410.628C221.47 410.66 215.838 410.671 212.383 414.914C208.929 419.158 208.142 423.734 204.898 424.109C202.303 424.409 197.658 420.247 195.66 418.128C193.927 416.406 189.106 413.759 183.689 416.948C178.271 420.137 176.837 431.623 176.797 436.967C176.084 442.176 172.839 451.65 165.565 447.877Z" fill="#FE5A5D"/>
<path d="M109.597 388.499C100.615 386.823 96.5477 389.36 95.637 390.838C74.1729 429.964 104.828 469.192 122.838 483.916C143.403 479.06 160.074 461.435 165.839 453.23C168.553 449.337 172.593 440.583 167.042 436.712C160.104 431.873 156.389 427.169 155.242 422.898C154.095 418.626 156.117 416.112 159.75 413.665C162.657 411.708 169.704 408.884 172.863 407.717C184.447 401.184 180.714 391.91 177.4 388.089C170.835 381.75 160.59 367.763 172.13 362.528C183.669 357.294 179.634 344.217 176.175 338.332C165.03 324.221 156.151 329.047 155.496 329.344C155.213 329.473 149.294 331.359 147.163 337.117C145.032 342.876 145.824 348.107 142.545 349.594C139.923 350.784 133.567 347.81 130.717 346.175C128.286 344.882 122.281 343.612 117.713 348.879C113.145 354.146 115.699 367.096 117.547 372.913C118.64 378.806 118.579 390.174 109.597 388.499Z" fill="#FFD147"/>
<path d="M82.8222 443.877C90.096 440.104 94.3149 441.146 95.5152 442.139C125.008 469.127 109.593 509.979 98.1994 527.032C79.1041 528.414 59.7814 518.108 52.5069 512.782C49.0738 510.249 43.1322 504.009 46.831 499.31C51.4545 493.437 53.3366 488.528 53.1261 484.659C52.9156 480.79 50.4665 479.226 46.6466 478.144C43.5907 477.278 36.7223 476.783 33.6701 476.644C21.8487 474.253 22.4627 465.524 24.2474 461.459C28.1275 454.431 33.033 440.047 21.6137 438.727C10.1944 437.408 10.001 425.424 11.3317 419.598C16.978 404.871 25.9884 406.553 26.6373 406.628C26.9171 406.66 32.5497 406.671 36.0043 410.914C39.4589 415.158 40.2452 419.734 43.4893 420.109C46.0846 420.409 50.7295 416.247 52.7276 414.128C54.4607 412.406 59.2812 409.759 64.6987 412.948C70.1161 416.137 71.5505 427.623 71.5905 432.967C72.3037 438.176 75.5485 447.65 82.8222 443.877Z" fill="#FF9A2C"/>
<path d="M113.888 617.095C114.375 617.125 114.844 616.815 114.951 616.358C122.37 583.477 147.034 537.037 166.384 503.873C187.392 467.904 206.869 439.365 207.063 439.074C207.363 438.646 207.203 438.066 206.731 437.788C206.259 437.509 205.625 437.648 205.324 438.076C205.131 438.367 185.612 466.957 164.561 502.976C145.126 536.26 120.392 582.874 112.921 615.966C112.811 616.477 113.153 616.961 113.714 617.067C113.792 617.072 113.849 617.093 113.888 617.095Z" fill="#39393B"/>
<path d="M122.81 616.941C123.326 616.941 123.754 616.514 123.736 615.998C123.54 598.862 119.803 579.343 112.633 557.99C106.903 540.926 99.0025 522.652 89.1093 503.684C72.2943 471.389 55.3547 447.919 55.1768 447.688C54.8743 447.278 54.2871 447.171 53.8779 447.474C53.4686 447.776 53.3619 448.364 53.6644 448.773C53.8245 449.004 70.6929 472.385 87.4545 504.556C102.899 534.218 121.405 577.617 121.85 616.015C121.885 616.531 122.294 616.941 122.81 616.941Z" fill="#39393B"/>
<path d="M117.166 566.056C117.237 566.065 117.308 566.073 117.38 566.064C117.89 566.001 118.251 565.543 118.205 565.036C114.469 531.614 121.436 480.265 127.928 443.091C134.965 402.774 143.005 369.948 143.079 369.634C143.195 369.129 142.897 368.626 142.392 368.511C141.903 368.397 141.384 368.692 141.268 369.198C141.192 369.529 133.145 402.409 126.084 442.776C119.56 480.072 112.589 531.6 116.334 565.238C116.406 565.677 116.742 566.004 117.166 566.056Z" fill="#39393B"/>
<path d="M69.4296 561.478L70.9598 565.535L71.9207 568.115L74.6965 575.481L75.6752 578.061L78.5221 585.642L79.483 588.204L91.7251 620.695H158.593L170.836 588.204L171.796 585.642L174.643 578.061L175.622 575.481L178.398 568.115L179.359 565.535L180.889 561.478C181.939 558.684 179.875 555.713 176.903 555.713H73.3976C70.4439 555.713 68.3797 558.684 69.4296 561.478Z" fill="#5842DB"/>
<path d="M70.9601 565.535L71.921 568.115H178.398L179.377 565.535H70.9601Z" fill="#FFFFFC"/>
<path d="M74.7143 575.481L75.6751 578.061H174.661L175.622 575.481H74.7143Z" fill="#FFFFFC"/>
<path d="M78.5401 585.642L79.5011 588.204H170.836L171.797 585.642H78.5401Z" fill="#FFFFFC"/>
</svg>
