<svg width="178" height="206" viewBox="0 0 178 206" fill="none" xmlns="http://www.w3.org/2000/svg">
<path fill-rule="evenodd" clip-rule="evenodd" d="M12.7139 205.215C74.7849 187.48 186.513 118.062 141.923 48.1372C148.257 52.3597 160.164 64.8584 157.124 81.0728C160.502 81.0728 168.271 83.353 172.325 92.4736C176.379 101.594 163.88 141.877 157.124 160.878C161.346 159.612 170.298 157.838 172.325 160.878C174.352 163.919 176.548 168.057 177.392 169.746H145.723C149.523 156.656 154.844 128.449 145.723 120.342L139.389 131.743C143.19 141.455 148.003 165.439 126.722 188.747C105.44 212.055 69.7179 203.948 55.7836 196.348L12.7139 205.215ZM74.7842 188.746L81.118 184.946C87.874 186.212 104.426 186.466 116.587 177.345C111.942 184.101 97.0791 195.84 74.7842 188.746Z" fill="#5842DB"/>
<circle cx="77.3175" cy="22.8016" r="22.8016" fill="#5842DB"/>
<path fill-rule="evenodd" clip-rule="evenodd" d="M12.7127 116.542C12.7127 116.542 26.1402 88.6734 49.4485 68.4053C72.7568 48.1373 101.385 46.4483 112.786 48.1373C123.765 49.4039 144.455 59.2844 139.388 88.6731C134.477 117.155 109.34 140.799 96.2631 149.918C96.2693 149.772 96.2724 149.625 96.2724 149.478C96.2724 143.881 91.7353 139.344 86.1384 139.344C80.5415 139.344 76.0043 143.881 76.0043 149.478C76.0043 153.863 78.7891 157.597 82.6865 159.009C75.5293 164.897 59.3339 175.925 36.781 184.947C11.4459 195.081 -0.845012 195.388 0.0450553 195.081C12.2904 190.858 36.781 180.386 36.781 177.346C36.781 176.789 36.3458 175.471 35.7065 173.534C31.9834 162.255 21.3391 130.007 49.4485 105.141C75.797 81.8327 106.875 94.5847 119.12 103.874C120.809 101.341 124.187 95.767 124.187 93.7402C124.187 91.2066 105.186 78.5391 65.9163 87.4064C69.2943 84.4506 81.3708 78.5391 102.652 78.5391C103.497 74.3166 102.146 65.3648 89.9847 63.338C74.7836 60.8045 49.4486 68.4053 12.7127 116.542Z" fill="#5842DB"/>
</svg>
