<svg width="914" height="206" viewBox="0 0 914 206" fill="none" xmlns="http://www.w3.org/2000/svg">
<path fill-rule="evenodd" clip-rule="evenodd" d="M12.7139 205.215C74.7849 187.48 186.513 118.062 141.923 48.1372C148.257 52.3597 160.164 64.8584 157.124 81.0728C160.502 81.0728 168.271 83.353 172.325 92.4736C176.379 101.594 163.88 141.877 157.124 160.878C161.346 159.612 170.298 157.838 172.325 160.878C174.352 163.919 176.548 168.057 177.392 169.746H145.723C149.523 156.656 154.844 128.449 145.723 120.342L139.389 131.743C143.19 141.455 148.003 165.439 126.722 188.747C105.44 212.055 69.7179 203.948 55.7836 196.348L12.7139 205.215ZM74.7842 188.746L81.118 184.946C87.874 186.212 104.426 186.466 116.587 177.345C111.942 184.101 97.0791 195.84 74.7842 188.746Z" fill="#5842DB"/>
<circle cx="77.3175" cy="22.8016" r="22.8016" fill="#5842DB"/>
<path fill-rule="evenodd" clip-rule="evenodd" d="M12.7127 116.542C12.7127 116.542 26.1402 88.6734 49.4485 68.4053C72.7568 48.1372 101.386 46.4482 112.786 48.1372C123.765 49.4039 144.455 59.2844 139.388 88.6731C134.477 117.155 109.34 140.798 96.2631 149.918C96.2693 149.772 96.2725 149.625 96.2725 149.478C96.2725 143.881 91.7353 139.344 86.1384 139.344C80.5415 139.344 76.0044 143.881 76.0044 149.478C76.0044 153.863 78.7891 157.597 82.6865 159.009C75.5293 164.897 59.3339 175.925 36.781 184.946C11.4459 195.081 -0.844985 195.387 0.0450829 195.081C12.2904 190.858 36.781 180.386 36.781 177.346C36.781 176.789 36.3458 175.471 35.7066 173.534C31.9834 162.255 21.3391 130.007 49.4485 105.141C75.7971 81.8326 106.875 94.5846 119.12 103.874C120.809 101.341 124.187 95.7669 124.187 93.7401C124.187 91.2066 105.186 78.539 65.9164 87.4063C69.2944 84.4506 81.3708 78.539 102.652 78.539C103.497 74.3165 102.146 65.3648 89.9847 63.338C74.7837 60.8045 49.4486 68.4053 12.7127 116.542Z" fill="#5842DB"/>
<path d="M183.999 150.687C181.983 150.687 180.266 150.239 178.847 149.343C177.503 148.373 176.719 147.141 176.495 145.647C176.196 144.079 176.607 142.362 177.727 140.495L217.823 75.6472C219.092 73.5565 220.474 72.0632 221.967 71.1672C223.46 70.1965 225.364 69.7112 227.679 69.7112C229.994 69.7112 231.898 70.3085 233.391 71.5032C234.959 72.6979 236.079 74.4899 236.751 76.8792L255.679 140.159C256.351 142.474 256.463 144.415 256.015 145.983C255.567 147.477 254.708 148.634 253.439 149.455C252.17 150.277 250.639 150.687 248.847 150.687C246.308 150.687 244.367 150.09 243.023 148.895C241.754 147.626 240.783 145.685 240.111 143.071L236.415 128.959L241.455 132.543H195.983L202.143 129.295L192.623 145.647C191.652 147.29 190.458 148.559 189.039 149.455C187.695 150.277 186.015 150.687 183.999 150.687ZM225.663 89.1992L206.399 122.127L203.935 118.991H237.983L234.623 122.463L225.887 89.1992H225.663ZM269.111 170.847C266.498 170.847 264.557 169.951 263.287 168.159C262.018 166.442 261.645 164.053 262.167 160.991L271.463 102.303C271.837 99.4659 272.845 97.3379 274.487 95.9192C276.13 94.5005 278.333 93.7912 281.095 93.7912C283.709 93.7912 285.575 94.6499 286.695 96.3672C287.89 98.0845 288.263 100.511 287.815 103.647L286.919 108.575V104.207C289.01 100.773 291.698 98.1592 294.983 96.3672C298.269 94.5005 301.927 93.5672 305.959 93.5672C310.066 93.5672 313.65 94.5379 316.711 96.4792C319.847 98.3459 322.237 101.071 323.879 104.655C325.597 108.239 326.455 112.458 326.455 117.311C326.455 123.658 325.335 129.37 323.095 134.447C320.855 139.525 317.645 143.557 313.463 146.543C309.357 149.455 304.466 150.911 298.791 150.911C294.685 150.911 291.063 149.978 287.927 148.111C284.866 146.17 282.701 143.37 281.431 139.711H282.439L278.743 162.671C278.295 165.434 277.287 167.487 275.719 168.831C274.151 170.175 271.949 170.847 269.111 170.847ZM295.319 138.255C298.306 138.255 300.845 137.397 302.935 135.679C305.026 133.887 306.631 131.498 307.751 128.511C308.871 125.45 309.431 122.015 309.431 118.207C309.431 114.325 308.498 111.375 306.631 109.359C304.839 107.269 302.338 106.223 299.127 106.223C296.141 106.223 293.602 107.082 291.511 108.799C289.421 110.517 287.815 112.906 286.695 115.967C285.575 118.954 285.015 122.351 285.015 126.159C285.015 130.042 285.911 133.029 287.703 135.119C289.57 137.21 292.109 138.255 295.319 138.255ZM337.471 170.847C334.857 170.847 332.916 169.951 331.647 168.159C330.377 166.442 330.004 164.053 330.527 160.991L339.823 102.303C340.196 99.4659 341.204 97.3379 342.847 95.9192C344.489 94.5005 346.692 93.7912 349.455 93.7912C352.068 93.7912 353.935 94.6499 355.055 96.3672C356.249 98.0845 356.623 100.511 356.175 103.647L355.279 108.575V104.207C357.369 100.773 360.057 98.1592 363.343 96.3672C366.628 94.5005 370.287 93.5672 374.319 93.5672C378.425 93.5672 382.009 94.5379 385.071 96.4792C388.207 98.3459 390.596 101.071 392.239 104.655C393.956 108.239 394.815 112.458 394.815 117.311C394.815 123.658 393.695 129.37 391.455 134.447C389.215 139.525 386.004 143.557 381.823 146.543C377.716 149.455 372.825 150.911 367.151 150.911C363.044 150.911 359.423 149.978 356.287 148.111C353.225 146.17 351.06 143.37 349.791 139.711H350.799L347.103 162.671C346.655 165.434 345.647 167.487 344.079 168.831C342.511 170.175 340.308 170.847 337.471 170.847ZM363.679 138.255C366.665 138.255 369.204 137.397 371.295 135.679C373.385 133.887 374.991 131.498 376.111 128.511C377.231 125.45 377.791 122.015 377.791 118.207C377.791 114.325 376.857 111.375 374.991 109.359C373.199 107.269 370.697 106.223 367.487 106.223C364.5 106.223 361.961 107.082 359.871 108.799C357.78 110.517 356.175 112.906 355.055 115.967C353.935 118.954 353.375 122.351 353.375 126.159C353.375 130.042 354.271 133.029 356.063 135.119C357.929 137.21 360.468 138.255 363.679 138.255ZM435.51 150.911C431.403 150.911 427.782 149.978 424.646 148.111C421.585 146.17 419.419 143.37 418.15 139.711L419.27 136.015L418.374 142.175C418.001 144.938 417.03 147.066 415.462 148.559C413.969 149.978 411.841 150.687 409.078 150.687C406.39 150.687 404.411 149.829 403.142 148.111C401.947 146.319 401.574 143.893 402.022 140.831L411.99 78.2232C412.363 75.4605 413.371 73.3699 415.014 71.9512C416.657 70.4579 418.897 69.7112 421.734 69.7112C424.347 69.7112 426.251 70.6072 427.446 72.3992C428.715 74.1165 429.126 76.5059 428.678 79.5672L424.758 104.319H423.638C425.654 100.885 428.305 98.2339 431.59 96.3672C434.875 94.5005 438.571 93.5672 442.678 93.5672C446.785 93.5672 450.369 94.5379 453.43 96.4792C456.566 98.3459 458.955 101.071 460.598 104.655C462.315 108.239 463.174 112.458 463.174 117.311C463.174 123.658 462.054 129.37 459.814 134.447C457.574 139.525 454.363 143.557 450.182 146.543C446.075 149.455 441.185 150.911 435.51 150.911ZM432.038 138.255C435.025 138.255 437.563 137.397 439.654 135.679C441.745 133.887 443.35 131.498 444.47 128.511C445.59 125.45 446.15 122.015 446.15 118.207C446.15 114.325 445.217 111.375 443.35 109.359C441.558 107.269 439.057 106.223 435.846 106.223C432.859 106.223 430.321 107.082 428.23 108.799C426.139 110.517 424.534 112.906 423.414 115.967C422.294 118.954 421.734 122.351 421.734 126.159C421.734 130.042 422.63 133.029 424.422 135.119C426.289 137.21 428.827 138.255 432.038 138.255ZM477.213 150.687C474.6 150.687 472.659 149.829 471.389 148.111C470.195 146.319 469.859 143.893 470.381 140.831L476.541 102.191C476.915 99.3539 477.923 97.2632 479.565 95.9192C481.208 94.5005 483.448 93.7912 486.285 93.7912C488.899 93.7912 490.803 94.6499 491.997 96.3672C493.192 98.0845 493.565 100.511 493.117 103.647L486.957 142.287C486.509 145.05 485.501 147.141 483.933 148.559C482.365 149.978 480.125 150.687 477.213 150.687ZM487.853 84.6072C484.867 84.6072 482.627 83.8979 481.133 82.4792C479.715 81.0605 479.155 79.0445 479.453 76.4312C479.901 73.5192 481.059 71.3539 482.925 69.9352C484.792 68.4419 487.331 67.6952 490.541 67.6952C493.528 67.6952 495.768 68.4045 497.261 69.8232C498.755 71.2419 499.277 73.2952 498.829 75.9832C498.456 78.8205 497.336 80.9859 495.469 82.4792C493.603 83.8979 491.064 84.6072 487.853 84.6072ZM519.502 150.911C512.857 150.911 508.041 149.045 505.054 145.311C502.067 141.503 501.134 136.015 502.254 128.847L510.43 78.2232C510.803 75.3859 511.811 73.2579 513.454 71.8392C515.097 70.4205 517.337 69.7112 520.174 69.7112C522.787 69.7112 524.691 70.6072 525.886 72.3992C527.081 74.1165 527.454 76.5059 527.006 79.5672L519.166 128.623C518.718 131.535 518.979 133.701 519.95 135.119C520.995 136.538 522.563 137.247 524.654 137.247C525.401 137.247 525.998 137.21 526.446 137.135C526.969 137.061 527.454 137.023 527.902 137.023C528.798 137.023 529.507 137.322 530.03 137.919C530.553 138.517 530.814 139.674 530.814 141.391C530.814 144.005 530.291 146.021 529.246 147.439C528.201 148.783 526.969 149.679 525.55 150.127C524.878 150.351 523.945 150.538 522.75 150.687C521.63 150.837 520.547 150.911 519.502 150.911ZM544.479 150.687C541.866 150.687 539.924 149.829 538.655 148.111C537.46 146.319 537.124 143.893 537.647 140.831L543.807 102.191C544.18 99.3539 545.188 97.2632 546.831 95.9192C548.474 94.5005 550.714 93.7912 553.551 93.7912C556.164 93.7912 558.068 94.6499 559.263 96.3672C560.458 98.0845 560.831 100.511 560.383 103.647L554.223 142.287C553.775 145.05 552.767 147.141 551.199 148.559C549.631 149.978 547.391 150.687 544.479 150.687ZM555.119 84.6072C552.132 84.6072 549.892 83.8979 548.399 82.4792C546.98 81.0605 546.42 79.0445 546.719 76.4312C547.167 73.5192 548.324 71.3539 550.191 69.9352C552.058 68.4419 554.596 67.6952 557.807 67.6952C560.794 67.6952 563.034 68.4045 564.527 69.8232C566.02 71.2419 566.543 73.2952 566.095 75.9832C565.722 78.8205 564.602 80.9859 562.735 82.4792C560.868 83.8979 558.33 84.6072 555.119 84.6072ZM594.272 150.911C588.97 150.911 584.64 149.941 581.28 147.999C577.994 146.058 575.68 143.407 574.336 140.047C572.992 136.613 572.693 132.693 573.44 128.287L576.8 107.343H572.992C570.901 107.343 569.258 106.895 568.064 105.999C566.869 105.029 566.272 103.685 566.272 101.967C566.272 99.6525 567.018 97.8605 568.512 96.5912C570.08 95.3219 572.133 94.6872 574.672 94.6872H578.704L580.272 85.3912C580.72 82.7779 581.69 80.8365 583.184 79.5672C584.677 78.2232 586.73 77.5512 589.344 77.5512C592.256 77.5512 594.346 78.3725 595.616 80.0152C596.885 81.6579 597.296 83.9352 596.848 86.8472L595.616 94.6872H605.248C607.413 94.6872 609.093 95.1352 610.288 96.0312C611.482 96.9272 612.08 98.2339 612.08 99.9512C612.08 102.042 611.37 103.797 609.952 105.215C608.608 106.634 606.741 107.343 604.352 107.343H593.712L590.464 127.391C589.866 130.901 590.277 133.402 591.696 134.895C593.114 136.389 595.093 137.135 597.632 137.135C598.901 137.135 599.909 137.061 600.656 136.911C601.402 136.687 602.186 136.575 603.008 136.575C604.202 136.575 605.061 136.911 605.584 137.583C606.181 138.181 606.48 139.375 606.48 141.167C606.48 144.303 605.957 146.469 604.912 147.663C603.941 148.858 602.597 149.642 600.88 150.015C599.909 150.314 598.826 150.538 597.632 150.687C596.437 150.837 595.317 150.911 594.272 150.911ZM621.479 150.687C618.866 150.687 616.924 149.829 615.655 148.111C614.46 146.319 614.124 143.893 614.647 140.831L620.807 102.191C621.18 99.3539 622.188 97.2632 623.831 95.9192C625.474 94.5005 627.714 93.7912 630.551 93.7912C633.164 93.7912 635.068 94.6499 636.263 96.3672C637.458 98.0845 637.831 100.511 637.383 103.647L631.223 142.287C630.775 145.05 629.767 147.141 628.199 148.559C626.631 149.978 624.391 150.687 621.479 150.687ZM632.119 84.6072C629.132 84.6072 626.892 83.8979 625.399 82.4792C623.98 81.0605 623.42 79.0445 623.719 76.4312C624.167 73.5192 625.324 71.3539 627.191 69.9352C629.058 68.4419 631.596 67.6952 634.807 67.6952C637.794 67.6952 640.034 68.4045 641.527 69.8232C643.02 71.2419 643.543 73.2952 643.095 75.9832C642.722 78.8205 641.602 80.9859 639.735 82.4792C637.868 83.8979 635.33 84.6072 632.119 84.6072ZM654.584 149.679C651.373 149.679 649.058 148.858 647.64 147.215C646.221 145.498 645.736 143.071 646.184 139.935L655.816 79.1192C656.264 76.3565 657.309 74.2659 658.952 72.8472C660.594 71.4285 662.797 70.7192 665.56 70.7192H704.088C706.402 70.7192 708.157 71.2045 709.352 72.1752C710.621 73.0712 711.256 74.4152 711.256 76.2072C711.256 78.7459 710.509 80.7245 709.016 82.1432C707.597 83.5619 705.656 84.2712 703.192 84.2712H671.608L668.696 102.751H696.584C698.898 102.751 700.653 103.237 701.848 104.207C703.042 105.178 703.64 106.522 703.64 108.239C703.64 110.778 702.893 112.794 701.4 114.287C699.981 115.706 698.077 116.415 695.688 116.415H666.568L663.432 136.127H693.672C695.986 136.127 697.741 136.613 698.936 137.583C700.205 138.479 700.84 139.823 700.84 141.615C700.84 144.154 700.093 146.133 698.6 147.551C697.181 148.97 695.24 149.679 692.776 149.679H654.584ZM729.684 150.911C726.249 150.911 723.113 150.127 720.276 148.559C717.513 146.917 715.273 144.789 713.556 142.175C711.913 139.562 711.092 136.725 711.092 133.663C711.092 129.781 712.175 126.607 714.34 124.143C716.505 121.679 719.865 119.887 724.42 118.767C728.975 117.573 734.799 116.975 741.892 116.975H750.74L749.396 125.711H742.228C738.569 125.711 735.657 125.935 733.492 126.383C731.327 126.757 729.759 127.466 728.788 128.511C727.817 129.482 727.332 130.826 727.332 132.543C727.332 134.783 728.079 136.538 729.572 137.807C731.14 139.002 733.081 139.599 735.396 139.599C737.561 139.599 739.465 139.151 741.108 138.255C742.825 137.359 744.244 136.09 745.364 134.447C746.559 132.805 747.305 130.863 747.604 128.623L749.732 115.519C750.255 112.458 749.695 110.106 748.052 108.463C746.484 106.821 743.796 105.999 739.988 105.999C737.673 105.999 735.396 106.223 733.156 106.671C730.991 107.119 728.713 107.866 726.324 108.911C724.607 109.509 723.113 109.621 721.844 109.247C720.575 108.874 719.529 108.202 718.708 107.231C717.961 106.261 717.588 105.141 717.588 103.871C717.663 102.527 718.148 101.258 719.044 100.063C719.94 98.8685 721.396 97.8605 723.412 97.0392C726.623 95.7699 729.833 94.8739 733.044 94.3512C736.255 93.8285 739.353 93.5672 742.34 93.5672C748.612 93.5672 753.54 94.7245 757.124 97.0392C760.708 99.3539 763.135 102.49 764.404 106.447C765.673 110.33 765.897 114.698 765.076 119.551L761.492 142.287C761.119 145.05 760.148 147.141 758.58 148.559C757.012 149.978 754.959 150.687 752.42 150.687C749.956 150.687 748.127 149.903 746.932 148.335C745.737 146.767 745.401 144.453 745.924 141.391L746.82 135.455L747.38 138.479C746.26 141.317 744.767 143.669 742.9 145.535C741.108 147.402 739.092 148.783 736.852 149.679C734.612 150.501 732.223 150.911 729.684 150.911ZM796.396 150.911C792.887 150.911 789.489 150.575 786.204 149.903C782.919 149.231 780.044 148.373 777.58 147.327C775.863 146.581 774.631 145.61 773.884 144.415C773.212 143.221 772.913 141.989 772.988 140.719C773.137 139.45 773.548 138.33 774.22 137.359C774.967 136.389 775.975 135.754 777.244 135.455C778.513 135.082 779.932 135.231 781.5 135.903C783.889 137.023 786.353 137.882 788.892 138.479C791.431 139.002 793.895 139.263 796.284 139.263C799.495 139.263 801.884 138.703 803.452 137.583C805.095 136.463 805.916 135.045 805.916 133.327C805.916 132.058 805.468 131.05 804.572 130.303C803.751 129.482 802.407 128.922 800.54 128.623L790.348 126.719C786.017 125.973 782.657 124.367 780.268 121.903C777.879 119.365 776.684 116.191 776.684 112.383C776.684 109.023 777.655 105.925 779.596 103.087C781.612 100.175 784.561 97.8605 788.444 96.1432C792.327 94.4259 797.105 93.5672 802.78 93.5672C805.244 93.5672 807.932 93.8659 810.844 94.4632C813.756 95.0605 816.332 95.9192 818.572 97.0392C820.215 97.7859 821.372 98.7565 822.044 99.9512C822.716 101.146 822.977 102.341 822.828 103.535C822.753 104.73 822.305 105.813 821.484 106.783C820.737 107.679 819.729 108.277 818.46 108.575C817.191 108.799 815.735 108.575 814.092 107.903C812.3 107.007 810.321 106.335 808.156 105.887C806.065 105.365 803.975 105.103 801.884 105.103C798.524 105.103 795.985 105.701 794.268 106.895C792.625 108.09 791.804 109.621 791.804 111.487C791.804 112.533 792.14 113.466 792.812 114.287C793.559 115.034 794.753 115.557 796.396 115.855L806.476 117.759C811.255 118.655 814.876 120.335 817.34 122.799C819.804 125.189 821.036 128.287 821.036 132.095C821.036 138.143 818.759 142.81 814.204 146.095C809.724 149.306 803.788 150.911 796.396 150.911ZM858.017 150.911C852.268 150.911 847.265 149.866 843.009 147.775C838.753 145.61 835.468 142.623 833.153 138.815C830.838 135.007 829.681 130.602 829.681 125.599C829.681 119.327 831.025 113.802 833.713 109.023C836.401 104.245 840.06 100.474 844.689 97.7112C849.393 94.9485 854.694 93.5672 860.593 93.5672C865.222 93.5672 869.142 94.3512 872.353 95.9192C875.564 97.4872 878.102 99.6152 879.969 102.303C881.836 104.917 883.068 107.941 883.665 111.375C884.337 114.735 884.486 118.207 884.113 121.791C883.889 123.509 883.404 124.629 882.657 125.151C881.91 125.599 880.902 125.823 879.633 125.823H843.345L844.577 117.087H872.689L870.897 118.655C871.27 115.967 871.158 113.615 870.561 111.599C869.964 109.509 868.844 107.866 867.201 106.671C865.558 105.402 863.318 104.767 860.481 104.767C857.644 104.767 855.217 105.439 853.201 106.783C851.26 108.053 849.729 109.733 848.609 111.823C847.489 113.839 846.705 116.079 846.257 118.543L845.697 122.463C844.876 127.391 845.697 131.274 848.161 134.111C850.7 136.874 854.545 138.255 859.697 138.255C861.638 138.255 863.729 138.031 865.969 137.583C868.284 137.135 870.337 136.463 872.129 135.567C873.772 134.746 875.19 134.485 876.385 134.783C877.654 135.007 878.625 135.605 879.297 136.575C879.969 137.546 880.305 138.666 880.305 139.935C880.38 141.13 880.044 142.362 879.297 143.631C878.625 144.826 877.542 145.834 876.049 146.655C873.436 148.074 870.486 149.119 867.201 149.791C863.916 150.538 860.854 150.911 858.017 150.911Z" fill="#332C5C"/>
</svg>
