<svg width="88" height="16" viewBox="0 0 88 16" fill="none" xmlns="http://www.w3.org/2000/svg">
<g clip-path="url(#clip0_1_240)">
<path d="M80.7726 0.829716L82.5772 4.48629C82.7027 4.7406 82.9453 4.91682 83.226 4.95754L87.2614 5.54394C87.9683 5.64674 88.2503 6.51516 87.739 7.01345L84.819 9.85967C84.6161 10.0576 84.5233 10.3429 84.5714 10.6223L85.2606 14.6413C85.3814 15.3452 84.6425 15.8819 84.0103 15.5498L80.4012 13.6524C80.1502 13.5206 79.8501 13.5206 79.5992 13.6524L75.99 15.5498C75.3579 15.8822 74.6189 15.3452 74.7398 14.6413L75.4289 10.6223C75.477 10.3429 75.3842 10.0576 75.1813 9.85967L72.2613 7.01345C71.75 6.51482 72.032 5.6464 72.7389 5.54394L76.7743 4.95754C77.055 4.91682 77.2976 4.7406 77.4231 4.48629L79.2277 0.829716C79.5434 0.189248 80.4566 0.189248 80.7726 0.829716Z" fill="#F9D4AB"/>
</g>
<g clip-path="url(#clip1_1_240)">
<path d="M62.7726 0.829716L64.5772 4.48629C64.7027 4.7406 64.9453 4.91682 65.226 4.95754L69.2614 5.54394C69.9683 5.64674 70.2503 6.51516 69.739 7.01345L66.819 9.85967C66.6161 10.0576 66.5233 10.3429 66.5714 10.6223L67.2606 14.6413C67.3814 15.3452 66.6425 15.8819 66.0103 15.5498L62.4012 13.6524C62.1502 13.5206 61.8501 13.5206 61.5992 13.6524L57.99 15.5498C57.3579 15.8822 56.6189 15.3452 56.7398 14.6413L57.4289 10.6223C57.477 10.3429 57.3842 10.0576 57.1813 9.85967L54.2613 7.01345C53.75 6.51482 54.032 5.6464 54.7389 5.54394L58.7743 4.95754C59.055 4.91682 59.2976 4.7406 59.4231 4.48629L61.2277 0.829716C61.5434 0.189248 62.4566 0.189248 62.7726 0.829716Z" fill="#FF9A2C"/>
</g>
<g clip-path="url(#clip2_1_240)">
<path d="M44.7726 0.829716L46.5772 4.48629C46.7027 4.7406 46.9453 4.91682 47.226 4.95754L51.2614 5.54394C51.9683 5.64674 52.2503 6.51516 51.739 7.01345L48.819 9.85967C48.6161 10.0576 48.5233 10.3429 48.5714 10.6223L49.2606 14.6413C49.3814 15.3452 48.6425 15.8819 48.0103 15.5498L44.4012 13.6524C44.1502 13.5206 43.8501 13.5206 43.5992 13.6524L39.99 15.5498C39.3579 15.8822 38.6189 15.3452 38.7398 14.6413L39.4289 10.6223C39.477 10.3429 39.3842 10.0576 39.1813 9.85967L36.2613 7.01345C35.75 6.51482 36.032 5.6464 36.7389 5.54394L40.7743 4.95754C41.055 4.91682 41.2976 4.7406 41.4231 4.48629L43.2277 0.829716C43.5434 0.189248 44.4566 0.189248 44.7726 0.829716Z" fill="#FF9A2C"/>
</g>
<g clip-path="url(#clip3_1_240)">
<path d="M26.7726 0.829716L28.5772 4.48629C28.7027 4.7406 28.9453 4.91682 29.226 4.95754L33.2614 5.54394C33.9683 5.64674 34.2503 6.51516 33.739 7.01345L30.819 9.85967C30.6161 10.0576 30.5233 10.3429 30.5714 10.6223L31.2606 14.6413C31.3814 15.3452 30.6425 15.8819 30.0103 15.5498L26.4012 13.6524C26.1502 13.5206 25.8501 13.5206 25.5992 13.6524L21.99 15.5498C21.3579 15.8822 20.6189 15.3452 20.7398 14.6413L21.4289 10.6223C21.477 10.3429 21.3842 10.0576 21.1813 9.85967L18.2613 7.01345C17.75 6.51482 18.032 5.6464 18.7389 5.54394L22.7743 4.95754C23.055 4.91682 23.2976 4.7406 23.4231 4.48629L25.2277 0.829716C25.5434 0.189248 26.4566 0.189248 26.7726 0.829716Z" fill="#FF9A2C"/>
</g>
<g clip-path="url(#clip4_1_240)">
<path d="M8.77263 0.829716L10.5772 4.48629C10.7027 4.7406 10.9453 4.91682 11.226 4.95754L15.2614 5.54394C15.9683 5.64674 16.2503 6.51516 15.739 7.01345L12.819 9.85967C12.6161 10.0576 12.5233 10.3429 12.5714 10.6223L13.2606 14.6413C13.3814 15.3452 12.6425 15.8819 12.0103 15.5498L8.40116 13.6524C8.15018 13.5206 7.85014 13.5206 7.59916 13.6524L3.98998 15.5498C3.35786 15.8822 2.61894 15.3452 2.73975 14.6413L3.42895 10.6223C3.47701 10.3429 3.38423 10.0576 3.1813 9.85967L0.261322 7.01345C-0.249984 6.51482 0.032035 5.6464 0.738919 5.54394L4.7743 4.95754C5.05498 4.91682 5.29762 4.7406 5.42311 4.48629L7.2277 0.829716C7.54342 0.189248 8.45657 0.189248 8.77263 0.829716Z" fill="#FF9A2C"/>
</g>
<defs>
<clipPath id="clip0_1_240">
<rect width="16" height="16" fill="white" transform="translate(72)"/>
</clipPath>
<clipPath id="clip1_1_240">
<rect width="16" height="16" fill="white" transform="translate(54)"/>
</clipPath>
<clipPath id="clip2_1_240">
<rect width="16" height="16" fill="white" transform="translate(36)"/>
</clipPath>
<clipPath id="clip3_1_240">
<rect width="16" height="16" fill="white" transform="translate(18)"/>
</clipPath>
<clipPath id="clip4_1_240">
<rect width="16" height="16" fill="white"/>
</clipPath>
</defs>
</svg>
