<svg width="1920" height="1068" viewBox="0 0 1920 1068" fill="none" xmlns="http://www.w3.org/2000/svg">
<rect width="1920" height="1078" fill="url(#paint0_linear_50_1549)"/>
<mask id="mask0_50_1549" style="mask-type:alpha" maskUnits="userSpaceOnUse" x="0" y="0" width="1920" height="1078">
<rect width="1920" height="1077.51" fill="#D9D9D9"/>
</mask>
<g mask="url(#mask0_50_1549)">
<g filter="url(#filter0_f_50_1549)">
<path d="M2021 503.5C2021 655.102 1882.21 778 1711 778C1539.79 778 1401 655.102 1401 503.5C1401 351.898 1539.79 229 1711 229C1882.21 229 2021 351.898 2021 503.5Z" fill="#FA95B3" fill-opacity="0.46"/>
</g>
<g filter="url(#filter1_f_50_1549)">
<ellipse cx="852.5" cy="889" rx="379.5" ry="351" fill="#FFDA7C" fill-opacity="0.39"/>
</g>
<g filter="url(#filter2_f_50_1549)">
<ellipse cx="140.617" cy="571.904" rx="224.617" ry="399.904" transform="rotate(-53.0395 140.617 571.904)" fill="#BBE7FF" fill-opacity="0.49"/>
</g>
</g>
<defs>
<filter id="filter0_f_50_1549" x="1075" y="-97" width="1272" height="1201" filterUnits="userSpaceOnUse" color-interpolation-filters="sRGB">
<feFlood flood-opacity="0" result="BackgroundImageFix"/>
<feBlend mode="normal" in="SourceGraphic" in2="BackgroundImageFix" result="shape"/>
<feGaussianBlur stdDeviation="163" result="effect1_foregroundBlur_50_1549"/>
</filter>
<filter id="filter1_f_50_1549" x="147" y="212" width="1411" height="1354" filterUnits="userSpaceOnUse" color-interpolation-filters="sRGB">
<feFlood flood-opacity="0" result="BackgroundImageFix"/>
<feBlend mode="normal" in="SourceGraphic" in2="BackgroundImageFix" result="shape"/>
<feGaussianBlur stdDeviation="163" result="effect1_foregroundBlur_50_1549"/>
</filter>
<filter id="filter2_f_50_1549" x="-532.384" y="-54.1616" width="1346" height="1252.13" filterUnits="userSpaceOnUse" color-interpolation-filters="sRGB">
<feFlood flood-opacity="0" result="BackgroundImageFix"/>
<feBlend mode="normal" in="SourceGraphic" in2="BackgroundImageFix" result="shape"/>
<feGaussianBlur stdDeviation="163" result="effect1_foregroundBlur_50_1549"/>
</filter>
<linearGradient id="paint0_linear_50_1549" x1="159" y1="-36.4979" x2="1748.68" y2="1097.9" gradientUnits="userSpaceOnUse">
<stop offset="0.0992525" stop-color="#F6F4FF"/>
<stop offset="1" stop-color="#FFE9D5"/>
</linearGradient>
</defs>
</svg>
